<svg width="1043" height="399" viewBox="0 0 1043 399" fill="none" xmlns="http://www.w3.org/2000/svg">
<path d="M165.328 7.60254L86.7695 225.089C86.5665 225.654 87.3744 226.005 87.6465 225.469C112.404 176.551 154.424 109.646 207.04 106.374C240.94 106.118 246.862 138.367 232.686 164.122C221.078 187.335 198.056 205.291 171.333 213.886C171.576 225.126 173.81 238.517 176.27 255.296C177.348 261.919 178.093 267.469 179.577 272.099C182.234 280.383 190.653 285.33 199.192 283.662C215.554 280.467 240.264 264.056 259.957 230.439C260.987 228.679 261.529 226.674 261.529 224.634V71.0449C261.529 60.9121 261.15 54.1389 260.39 50.7217C259.629 47.3045 257.6 45.5918 254.312 45.5918C250.766 45.5919 245.063 47.6207 237.214 51.6699L232.657 42.1709C254.729 33.7141 273.696 25.2842 289.553 16.8867C301.486 10.5676 309.631 5.20038 313.99 0.789062L321.936 7.59863V134.16C321.936 136.152 323.805 137.615 325.739 137.135C360.587 128.485 400.571 115.352 420.598 102.612L430.424 110.172V134.262C430.424 136.231 432.254 137.691 434.173 137.249C463.882 130.409 508.676 116.365 531.167 102.575L539.901 110.174V142.992C539.901 143.542 540.346 143.986 540.896 143.986C541.225 143.986 541.531 143.822 541.717 143.55C549.988 131.35 558.88 121.744 568.394 114.737C578.017 107.646 588.78 104.097 600.685 104.097C620.69 104.097 636.081 112.963 646.844 130.688C647.516 131.796 648.168 132.934 648.798 134.097C649.468 135.336 650.905 135.949 652.265 135.579C671.521 130.354 716.182 116.338 738.632 102.575L747.366 110.174V142.992C747.366 143.542 747.811 143.986 748.36 143.986C748.69 143.986 748.996 143.822 749.182 143.55C757.453 131.35 766.344 121.744 775.858 114.737C785.482 107.646 796.245 104.097 808.149 104.097C828.154 104.097 843.546 112.963 854.309 130.688C854.981 131.796 855.609 132.896 856.261 134.095C856.912 135.294 858.284 135.91 859.615 135.607C886.65 129.438 928.664 115.842 949.286 102.679L959.405 110.174V150.485C959.405 150.882 959.728 151.204 960.124 151.204C960.38 151.204 960.62 151.064 960.746 150.84C967.55 138.832 975.969 128.13 985.998 118.725C996.129 109.226 1006.76 104.476 1017.91 104.476C1026.01 104.476 1032.22 106.884 1036.52 111.693L1036.51 111.689C1040.82 116.503 1042.97 123.469 1042.97 132.583C1042.97 142.971 1040.57 151.455 1035.76 158.04C1030.94 164.625 1024.74 167.914 1017.14 167.914C1012.84 167.914 1009.35 167.095 1006.69 165.445C1004.03 163.796 1000.93 160.948 997.387 156.895C994.094 153.349 991.497 151.008 989.601 149.868C987.701 148.732 985.735 148.16 983.711 148.16C978.897 148.16 974.212 151.329 969.655 157.659C968.514 159.243 967.444 160.931 966.446 162.72C961.765 171.113 959.399 180.6 959.399 190.212V267.066C959.399 276.946 960.598 284.48 963.008 289.675C965.412 294.87 969.719 298.478 975.925 300.503C982.125 302.528 991.433 303.539 1003.84 303.539V315.315H872.021V304.681C879.616 304.681 885.313 303.733 889.115 301.833C892.912 299.931 895.572 296.703 897.093 292.141C898.614 287.584 899.374 280.745 899.374 271.626V169.438C899.374 158.293 898.865 150.694 897.854 146.641C896.836 142.592 894.304 140.564 890.255 140.563C887.255 140.563 882.413 141.918 861.841 146.582C867.574 162.268 870.445 181.968 870.445 204.764C870.445 227.559 867.153 247.63 860.565 264.98C853.98 282.331 845.117 295.755 833.973 305.25C822.83 314.751 810.422 319.495 796.745 319.495C787.118 319.495 777.876 317.277 769.013 312.849C760.228 308.456 753.314 302.139 748.261 293.895C748.173 293.749 748.015 293.661 747.847 293.661C747.577 293.661 747.359 293.88 747.358 294.149V355.587C747.358 364.45 748.178 371.223 749.827 375.914C751.476 380.593 754.325 383.888 758.378 385.788C762.427 387.684 768.634 388.637 776.993 388.637V398.896H657.707V388.637C666.062 388.637 672.268 387.684 676.321 385.788C680.37 383.888 683.219 380.595 684.868 375.914C686.514 371.223 687.337 364.45 687.337 355.587V169.438C687.337 158.293 686.765 150.694 685.629 146.641C684.489 142.591 681.891 140.563 677.842 140.563C674.25 140.564 669.635 141.697 654.245 146.216C660.068 161.965 662.983 181.968 662.983 204.764C662.983 227.56 659.691 247.63 653.104 264.98C646.518 282.331 637.656 295.755 626.512 305.25C615.369 314.751 602.961 319.495 589.284 319.495C579.657 319.495 570.415 317.277 561.552 312.849C552.767 308.456 545.853 302.139 540.8 293.895C540.712 293.749 540.554 293.661 540.386 293.661C540.116 293.661 539.898 293.879 539.897 294.149V355.587C539.897 364.45 540.717 371.223 542.366 375.914C544.015 380.593 546.864 383.888 550.917 385.788C554.966 387.684 561.172 388.637 569.531 388.637V398.896H450.245V388.637C458.6 388.637 464.807 387.684 468.86 385.788C472.91 383.888 475.758 380.595 477.407 375.914C479.053 371.223 479.876 364.45 479.876 355.587V169.438C479.876 158.293 479.303 150.694 478.167 146.641C477.027 142.592 474.43 140.563 470.381 140.563C466.594 140.564 461.669 141.823 430.424 149.127V271.626C430.424 280.745 431.184 287.584 432.705 292.141C434.226 296.703 437.074 299.933 441.252 301.833C445.43 303.733 451.699 304.681 460.059 304.681V315.315H231.898V304.681C240.254 304.681 246.524 303.733 250.701 301.833C254.877 299.931 257.731 296.703 259.252 292.141C260.773 287.584 261.533 280.745 261.533 271.626V252.458C254.911 262.162 221.361 308.152 173.952 318.273C155.805 323.399 132.696 319.298 124.984 301.453C113.373 277.602 113.398 245.892 113.971 218.822C148.035 212.421 179.529 191.561 181.974 158.799C181.056 138.027 161.182 149.425 146.833 160.893C107.78 197.047 83.5087 250.793 60.4043 315.319H0C1.90728 306.357 92.6511 40.2461 88.5156 37.6143C88.1249 24.0719 78.8755 21.9512 65.3408 21.6562L68.3828 11.4014C97.86 10.4494 137.116 11.5828 156.9 0L165.328 7.60254ZM360.906 140.567C357.368 140.567 352.57 141.829 321.938 149.236V271.63C321.938 280.749 322.757 287.588 324.406 292.145C326.052 296.707 328.9 299.937 332.953 301.837C334.497 302.561 336.355 303.147 338.527 303.595C343.431 304.606 348.498 304.601 353.407 303.614C355.65 303.164 357.579 302.572 359.193 301.837C363.371 299.935 366.219 296.707 367.74 292.145C369.261 287.588 370.021 280.749 370.021 271.63V169.44C370.021 158.046 369.512 150.382 368.501 146.457C367.488 142.532 364.955 140.567 360.906 140.567ZM571.816 141.709C560.163 141.709 549.525 150.068 539.901 166.78V232.502C539.901 252.764 542.813 268.155 548.64 278.661C554.465 289.171 561.684 294.426 570.294 294.426L570.298 294.428C588.782 294.428 598.03 267.453 598.03 213.508C598.03 187.933 595.877 169.571 591.571 158.427C587.265 147.283 580.679 141.709 571.816 141.709ZM779.282 141.709C767.628 141.709 756.99 150.068 747.366 166.78V232.502C747.366 252.764 750.278 268.155 756.104 278.661C761.929 289.171 769.149 294.426 777.759 294.426L777.763 294.428C796.247 294.428 805.495 267.453 805.495 213.508C805.495 187.933 803.342 169.571 799.036 158.427C794.73 147.283 788.145 141.709 779.282 141.709ZM400.223 28.0479C416.902 28.0479 430.424 41.5703 430.424 58.25C430.424 74.9295 416.902 88.4512 400.223 88.4512C383.543 88.451 370.022 74.9294 370.021 58.25C370.021 41.5704 383.543 28.048 400.223 28.0479Z" fill="#FDFDFD"/>
</svg>
