<svg width="1168" height="175" viewBox="0 0 1168 175" fill="none" xmlns="http://www.w3.org/2000/svg">
<path d="M0 134.889H67.0379C75.5544 134.889 83.3365 130.078 87.147 122.461L121.4 53.9579H161.866V0.00390625H103.685C98.0089 0.00390625 92.8197 3.21117 90.2793 8.28809L53.9577 80.9349H0.00375046V134.889H0Z" fill="white"/>
<path d="M0 53.9579H26.977L53.954 0.00390625H0V53.9579Z" fill="white"/>
<path d="M1015.52 0H1045.06V68.2406H1046.67L1087.56 29.5548H1121.53V32.571L1069.98 79.5971L1121.83 131.749V134.765H1086.86L1046.67 92.6622H1045.06V134.765H1015.52V0Z" fill="white"/>
<path d="M905.43 29.563H933.965V39.5107H935.573C942.606 31.1704 953.359 27.5547 966.922 27.5547C992.041 27.5547 1007.32 40.6161 1007.32 66.6414V134.77H977.777V69.1555C977.777 56.8959 971.145 50.7661 958.885 50.7661C945.622 50.7661 934.97 57.9001 934.97 75.8885V134.773H905.43V29.563Z" fill="white"/>
<path d="M786.472 29.5586H817.219L842.843 101.804H844.451L870.172 29.5586H900.218V32.5748L852.69 149.839C844.851 169.232 835.406 174.961 812.397 174.961H790.29V151.851H812.295C819.231 151.851 822.344 149.842 824.454 144.413L828.171 135.47L786.469 32.5748V29.5586H786.472Z" fill="white"/>
<path d="M693.256 59.0979C693.256 40.0079 709.734 27.3438 739.78 27.3438C769.826 27.3438 786.907 40.0042 788.713 59.2965V62.3127H761.882C761.182 51.7617 752.335 48.2434 739.978 48.2434C727.621 48.2434 721.188 51.9603 721.188 58.3935C721.188 64.8268 726.314 67.0337 733.646 68.2401L754.546 71.6572C775.847 75.1755 790.118 83.9168 790.118 103.108C790.118 122.299 774.944 137.073 742.691 137.073C710.439 137.073 693.053 122.4 691.648 104.213V101.197H718.978C719.783 111.647 729.93 115.967 742.691 115.967C755.453 115.967 762.085 111.445 762.085 104.712C762.085 97.9785 756.959 95.4682 747.918 93.9582L727.018 90.5411C706.823 87.3263 693.256 78.083 693.256 59.0904V59.0979Z" fill="white"/>
<path d="M589.394 0.00390625H618.934V68.2407H620.542L661.438 29.555H695.399V32.5711L643.85 79.5973L695.699 131.749V134.765H660.73L620.538 92.6624H618.93V134.765H589.391V0.00390625H589.394Z" fill="white"/>
<path d="M474.988 82.2154C474.988 45.5379 498.2 27.1523 530.756 27.1523C563.312 27.1523 580.292 45.5417 581.397 65.5384V68.5545H554.166C553.263 59.7121 547.433 49.9666 531.557 49.9666C515.682 49.9666 504.629 61.623 504.629 82.2229C504.629 102.823 515.079 114.479 531.557 114.479C548.036 114.479 553.562 104.329 554.465 94.8833H581.997V97.8995C580.389 118.799 563.207 137.189 530.752 137.189C498.297 137.189 474.984 118.799 474.984 82.2229L474.988 82.2154Z" fill="white"/>
<path d="M371.928 59.8056C374.038 40.1124 391.524 27.1484 420.663 27.1484C449.802 27.1484 467.588 40.1124 467.588 68.8504V134.768H440.255V123.917H438.648C435.032 129.946 426.189 136.578 406.391 136.578C382.475 136.578 366.297 124.622 366.297 104.321C366.297 84.0212 382.876 73.5751 403.675 71.061L439.247 66.6398V64.7289C439.247 53.2749 433.016 48.2504 420.255 48.2504C407.493 48.2504 400.258 53.2749 399.355 62.8218H371.921V59.8056H371.928ZM395.743 102.613C395.743 110.148 402.075 114.974 412.926 114.974C428.198 114.974 439.251 107.034 439.251 90.7579V86.4379L410.412 90.2559C401.772 91.4623 395.739 95.1792 395.739 102.617L395.743 102.613Z" fill="white"/>
<path d="M302.387 29.5611H330.623V41.3185H332.23C336.048 33.3791 343.384 29.1602 356.344 29.1602H371.013V53.2746H356.243C339.963 53.2746 331.926 61.3115 331.926 79.9031V134.768H302.383V29.5611H302.387Z" fill="white"/>
<path d="M214.805 29.5548H236.911V0H266.454V29.5548H294.69V53.9727H266.454V102.805C266.454 108.631 269.167 110.842 274.795 110.842H294.69V134.758H267.661C248.668 134.758 236.914 124.709 236.914 106.02V53.969H214.808V29.551L214.805 29.5548Z" fill="white"/>
<path d="M1151.08 120.562H1155.15L1159.5 130.846H1159.65L1163.99 120.562H1168V134.707H1164.76V126.466H1164.6L1161.13 134.707H1157.95L1154.48 126.466H1154.32V134.707H1151.08V120.562Z" fill="white"/>
<path d="M1137.05 120.562H1149.86V123.588H1145.26V134.707H1141.64V123.588H1137.05V120.562Z" fill="white"/>
</svg>
