<svg width="565" height="144" viewBox="0 0 565 144" fill="none" xmlns="http://www.w3.org/2000/svg">
<path d="M420.095 144.005C409.748 144.005 401.438 140.921 395.167 134.755C388.896 128.484 385.761 119.704 385.761 108.417V96.9718C385.761 85.6839 388.844 76.9044 395.011 70.6334C401.282 64.3623 409.486 61.2268 419.624 61.2268H420.722C430.86 61.2268 439.013 64.3623 445.179 70.6334C451.45 76.7999 454.586 85.5794 454.586 96.9718V108.103H400.811V93.9931H437.967L434.675 96.9718C434.675 90.2827 433.578 85.6317 431.383 83.0187C429.292 80.3013 425.739 78.9425 420.722 78.9425H419.624C414.608 78.9425 411.002 80.249 408.807 82.862C406.717 85.4749 405.671 90.1782 405.671 96.9718V108.417C405.671 115.106 406.769 119.757 408.964 122.37C411.159 124.983 414.869 126.289 420.095 126.289H420.879C424.432 126.289 427.202 125.662 429.188 124.408C431.278 123.049 432.585 120.802 433.107 117.666H453.802C452.757 125.714 449.255 132.142 443.298 136.95C437.445 141.653 430.233 144.005 421.663 144.005H420.095Z" fill="white"/>
<path d="M334.855 144.005H334.698C326.023 144.005 319.438 140.869 314.944 134.598C310.554 128.223 308.359 119.391 308.359 108.103V98.2259C308.359 87.0426 310.606 78.1063 315.101 71.4172C319.7 64.6235 326.075 61.2267 334.227 61.2267H334.541C339.453 61.2267 343.53 62.3241 346.77 64.519C350.01 66.6094 352.518 69.6404 354.295 73.612H356.176V29.5579H377.027V142.437H356.803V130.208H354.922C353.25 134.598 350.741 137.995 347.397 140.399C344.157 142.803 339.976 144.005 334.855 144.005ZM342.223 124.721H342.85C348.285 124.721 351.839 123.101 353.511 119.861C355.288 116.621 356.176 112.44 356.176 107.319V97.9124C356.176 92.791 355.288 88.6103 353.511 85.3703C351.839 82.1302 348.285 80.5102 342.85 80.5102H342.223C337.729 80.5102 334.437 82.287 332.346 85.8406C330.256 89.2897 329.211 94.0975 329.211 100.264V106.065C329.211 112.127 330.204 116.778 332.189 120.018C334.28 123.153 337.624 124.721 342.223 124.721Z" fill="white"/>
<path d="M257.451 144.005H257.294C248.62 144.005 242.035 140.869 237.541 134.598C233.151 128.223 230.956 119.391 230.956 108.103V98.2259C230.956 87.0426 233.203 78.1063 237.697 71.4172C242.296 64.6235 248.672 61.2267 256.824 61.2267H257.138C262.05 61.2267 266.126 62.3241 269.366 64.519C272.606 66.6094 275.115 69.6404 276.892 73.612H278.773V29.5579H299.624V142.437H279.4V130.208H277.519C275.846 134.598 273.338 137.995 269.993 140.399C266.753 142.803 262.573 144.005 257.451 144.005ZM264.82 124.721H265.447C270.882 124.721 274.435 123.101 276.108 119.861C277.884 116.621 278.773 112.44 278.773 107.319V97.9124C278.773 92.791 277.884 88.6103 276.108 85.3703C274.435 82.1302 270.882 80.5102 265.447 80.5102H264.82C260.325 80.5102 257.033 82.287 254.943 85.8406C252.853 89.2897 251.807 94.0975 251.807 100.264V106.065C251.807 112.127 252.8 116.778 254.786 120.018C256.876 123.153 260.221 124.721 264.82 124.721Z" fill="white"/>
<path d="M190.327 144.005C180.189 144.005 171.984 140.921 165.713 134.755C159.547 128.484 156.463 119.704 156.463 108.417V96.9718C156.463 85.6839 159.547 76.9044 165.713 70.6334C171.984 64.3623 180.189 61.2268 190.327 61.2268H191.425C201.563 61.2268 209.715 64.3623 215.882 70.6334C222.153 76.7999 225.288 85.5794 225.288 96.9718V108.417C225.288 119.704 222.153 128.484 215.882 134.755C209.715 140.921 201.563 144.005 191.425 144.005H190.327ZM191.425 125.662C196.441 125.662 199.943 124.408 201.929 121.899C204.019 119.391 205.064 114.897 205.064 108.417V96.9718C205.064 90.3872 204.019 85.8407 201.929 83.3323C199.943 80.8239 196.441 79.5696 191.425 79.5696H190.327C185.31 79.5696 181.757 80.8239 179.666 83.3323C177.68 85.8407 176.688 90.3872 176.688 96.9718V108.417C176.688 114.897 177.68 119.391 179.666 121.899C181.757 124.408 185.31 125.662 190.327 125.662H191.425Z" fill="white"/>
<path d="M116.303 144.005C105.956 144.005 97.6469 140.921 91.3758 134.755C85.1048 128.484 81.9692 119.704 81.9692 108.417V96.9718C81.9692 85.6839 85.0525 76.9044 91.2191 70.6334C97.4901 64.3623 105.695 61.2268 115.833 61.2268H116.93C127.069 61.2268 135.221 64.3623 141.388 70.6334C147.659 76.7999 150.794 85.5794 150.794 96.9718V108.103H97.0198V93.9931H134.176L130.883 96.9718C130.883 90.2827 129.786 85.6317 127.591 83.0187C125.501 80.3013 121.947 78.9425 116.93 78.9425H115.833C110.816 78.9425 107.21 80.249 105.015 82.862C102.925 85.4749 101.88 90.1782 101.88 96.9718V108.417C101.88 115.106 102.977 119.757 105.172 122.37C107.367 124.983 111.077 126.289 116.303 126.289H117.087C120.641 126.289 123.41 125.662 125.396 124.408C127.487 123.049 128.793 120.802 129.316 117.666H150.01C148.965 125.714 145.464 132.142 139.506 136.95C133.653 141.653 126.441 144.005 117.871 144.005H116.303Z" fill="white"/>
<path d="M31.5121 144.005C21.6874 144.005 13.9531 140.556 8.30915 133.658C2.76972 126.655 0 116.83 0 104.184L0 73.769C0 65.4076 1.56776 58.2481 4.70329 52.2906C7.83882 46.2286 12.2286 41.6821 17.8725 38.651C23.5165 35.5155 29.9966 33.9478 37.3128 33.9478H38.2535C45.4652 33.9478 51.8407 35.5155 57.3802 38.651C63.0241 41.6821 67.4139 46.1763 70.5494 52.1338C73.6849 58.0913 75.2527 65.303 75.2527 73.769H54.4014C54.4014 65.8256 53.1472 60.3385 50.6388 57.3074C48.2349 54.2764 44.1064 52.7609 38.2535 52.7609H37.3128C31.2508 52.7609 26.9655 54.2764 24.4571 57.3074C22.0532 60.3385 20.8513 65.8256 20.8513 73.769V104.184C20.8513 112.127 22.0532 117.614 24.4571 120.645C26.9655 123.676 31.1985 125.192 37.156 125.192H38.0967C43.218 125.192 47.1897 123.624 50.0117 120.488C52.9382 117.248 54.4014 111.813 54.4014 104.184V100.421L61.6131 106.065H38.2535L38.2535 86.7814H75.2527V142.437H55.9692V130.679H53.9311C52.1543 135.173 49.5414 138.518 46.0923 140.713C42.6432 142.907 38.0967 144.005 32.4527 144.005H31.5121Z" fill="white"/>
<path d="M534.282 0H480.538L450.759 29.9861L507.412 87.0318L564.064 29.9861L534.282 0ZM480.114 29.9861L507.412 2.49884V29.9861H534.709L507.412 57.4733L480.114 29.9861Z" fill="white"/>
</svg>
