<svg width="960" height="151" viewBox="0 0 960 151" fill="none" xmlns="http://www.w3.org/2000/svg">
<path d="M233.363 0.109375C272.079 0.109375 298.678 21.9104 304.889 53.0303L305.104 53.0283L314.006 2.35645H360.805L399.198 79.8145L399.347 80.1152L399.404 79.7852L412.87 2.35645H455.788L430.21 147.964H389.251L346.815 61.9678L346.668 61.668L346.609 61.9971L331.347 147.964H288.428L295.353 108.548L295.149 108.473C280.445 133.378 252.48 149.987 219.209 149.987C181.943 149.987 155.948 130.148 148.358 101.174L148.274 100.855L148.15 101.16C135.746 131.668 107.86 149.987 72.127 149.987C50.0189 149.987 32.0154 142.861 19.54 130.918C7.06501 118.975 0.109473 102.209 0.109375 82.9131C0.109375 37.365 37.1305 0.109375 88.3047 0.109375C88.7437 0.109375 106.794 0.110573 148.021 0.112305L140.562 42.585H85.9668C85.6264 42.5815 85.2821 42.582 84.9355 42.582C61.9534 42.5823 47.752 59.487 47.752 78.8682C47.752 87.3182 50.5131 94.4812 55.5078 99.5322C60.5029 104.584 67.7233 107.513 76.623 107.513C90.3529 107.513 100.281 102.784 105.699 94.4307L105.81 94.2617H80.7959L86.1504 63.249H148.456L148.477 63.166C157.472 27.0738 190.784 0.109396 233.363 0.109375ZM229.544 42.582C209.032 42.582 194.158 59.4893 194.158 78.8682C194.158 87.3194 197.032 94.4819 202.054 99.5322C207.076 104.583 214.239 107.513 222.803 107.513C242.411 107.513 258.189 91.9589 258.189 71.9014C258.189 63.3386 255.372 56.0074 250.379 50.8164C245.385 45.6249 238.221 42.582 229.544 42.582Z" fill="white" stroke="white" stroke-width="0.219378"/>
<path d="M676.65 0.109375C715.108 0.109375 741.612 21.622 748.05 52.4131L748.266 52.4092L757.057 2.35645H804.02L785.841 106.486L785.818 106.615H822.501L822.532 106.558L878.727 2.35645H932.722L959.867 147.964H914.033L910.676 123.791L910.663 123.696H859.942L859.912 123.759L848.259 147.964H731.479L738.305 109.105L738.103 109.03C723.312 133.625 695.517 149.987 662.495 149.987C622.395 149.987 595.344 127.016 590.233 94.4062L590.17 93.999L590.022 94.3838C578.018 125.77 545.507 147.964 506.565 147.964H438.165L463.742 2.35645H523.419C561.112 2.35645 588.33 24.3312 593.923 55.3486L593.996 55.751L594.134 55.3662C605.704 23.2582 638.191 0.109524 676.65 0.109375ZM503.764 42.6729L492.303 107.609L492.28 107.738H511.62V107.735C531.178 107.677 546.896 92.1459 546.896 71.9014C546.896 63.3386 544.079 56.0074 539.086 50.8164C534.092 45.6249 526.928 42.582 518.251 42.582H503.779L503.764 42.6729ZM672.831 42.582C652.319 42.5822 637.445 59.4893 637.445 78.8682C637.445 87.3193 640.319 94.4819 645.341 99.5322C650.363 104.583 657.526 107.513 666.091 107.513C685.699 107.513 701.477 91.9588 701.477 71.9014C701.476 63.3386 698.66 56.0074 693.666 50.8164C688.672 45.625 681.508 42.582 672.831 42.582ZM899.908 40.6211L877.664 86.9082L877.589 87.0654H905.974L905.958 86.9424L900.116 40.6543L900.069 40.2852L899.908 40.6211Z" fill="white" stroke="white" stroke-width="0.219378"/>
</svg>
