<svg width="269" height="290" viewBox="0 0 269 290" fill="none" xmlns="http://www.w3.org/2000/svg">
<path d="M210.807 100.003L17.4929 2.15968C7.95995 -2.66455 0 0.848232 0 10.157V68.7748L218.032 150.991V114.245C218.032 108.388 214.831 102.035 210.807 100.003Z" fill="white"/>
<path d="M129.934 289.309L263.177 289.234C266.159 289.234 268.536 285.158 268.536 280.123V248.446L118.767 229.183V275.863C118.767 283.337 123.833 289.316 129.934 289.309Z" fill="white"/>
<path d="M0.00146484 103.609V162.22C0.00146484 171.529 7.96141 180.566 17.4943 182.373L268.537 229.617V197.94C268.537 192.912 266.16 188.074 263.178 187.13L0.00146484 103.609Z" fill="white"/>
</svg>
