<svg width="766" height="210" viewBox="0 0 766 210" fill="none" xmlns="http://www.w3.org/2000/svg">
<g clip-path="url(#clip0_1_342)">
<path d="M70.9903 73.5201C87.8407 71.1134 104.223 61.7973 103.209 44.0192C102.351 28.8805 89.0889 23.5238 70.2102 24.6107L19.425 27.4831V27.7936C22.9355 30.3556 24.6517 32.6846 24.8858 36.5663C25.0418 38.74 24.7297 41.3796 24.1837 44.7179L11.3118 111.561C9.36157 121.187 7.25527 124.991 0.000244141 129.572V129.882L54.686 126.777C76.6071 125.535 101.181 116.141 99.8544 92.7733C98.9963 78.6439 84.9543 73.6753 70.9123 73.4424L70.9903 73.5201ZM53.5938 29.5016L60.5368 29.1134C71.3804 28.4924 76.8411 34.082 77.3872 43.9415C78.3233 60.2447 67.7138 72.4332 52.0336 73.2872L45.0906 73.6753L53.5938 29.5016ZM45.3247 123.439L35.5733 123.982L44.3885 77.3241L53.2038 76.7807C66.5437 76.0044 72.9406 81.1282 73.5647 91.8417C74.5788 109.698 62.9552 122.429 45.2467 123.439H45.3247Z" fill="white"/>
<path d="M131.448 110.551C131.448 109.697 131.448 108.688 131.682 107.679L149.157 13.043L114.364 15.0615V15.372C118.732 17.5457 120.995 19.1761 121.229 23.5236C121.307 25.2315 121.229 27.4053 120.605 30.3554L106.797 105.35C106.485 107.213 106.251 108.843 106.329 110.474C106.797 118.858 112.882 124.991 124.037 124.37C130.824 123.982 138.547 121.342 145.1 113.579V113.268C142.136 114.744 139.561 115.597 137.533 115.753C133.945 115.986 131.604 114.045 131.448 110.629V110.551Z" fill="white"/>
<path d="M227.87 73.6742C229.742 63.2713 231.692 52.3249 234.423 43.4746C224.827 45.726 216.792 50.1511 210.941 58.1474C207.431 50.8498 201.19 45.4155 189.566 46.0365C164.603 47.4339 146.894 72.5097 148.298 97.4302C149.157 112.569 158.206 122.195 171.78 121.419C185.432 120.643 192.609 111.404 197.757 100.536C197.367 101.7 197.211 103.175 197.211 104.029C197.445 113.268 203.374 119.711 214.842 119.09C221.629 118.702 229.352 115.907 235.905 108.299V107.988C226.7 112.724 220.927 110.317 222.487 102.399L227.792 73.5966L227.87 73.6742ZM203.296 71.5005L199.63 89.201C197.367 99.7593 191.361 110.24 183.715 110.628C177.943 110.939 174.9 106.669 174.432 98.2842C173.418 81.1271 182.467 51.0827 195.261 50.384C200.176 50.0735 203.998 53.4894 204.466 60.5541C204.622 63.5818 204.232 67.0753 203.374 71.5005H203.296Z" fill="white"/>
<path d="M434.991 157.829C436.863 147.426 438.813 136.48 441.544 127.629C431.948 129.881 423.913 134.306 418.062 142.302C414.552 135.005 408.311 129.57 396.687 130.191C371.724 131.589 354.015 156.665 355.42 181.585C356.278 196.724 365.327 206.35 378.901 205.574C392.475 204.798 399.73 195.559 404.879 184.69C404.488 185.855 404.332 187.33 404.332 188.184C404.566 197.422 410.495 203.866 421.963 203.245C428.75 202.857 436.473 200.062 443.026 192.454V192.143C433.821 196.879 428.048 194.472 429.608 186.554L434.913 157.751L434.991 157.829ZM410.417 155.655L406.751 173.356C404.488 183.914 398.482 194.395 390.837 194.783C385.064 195.093 382.021 190.823 381.553 182.439C380.539 165.282 389.588 135.238 402.382 134.539C407.297 134.228 411.119 137.644 411.587 144.709C411.743 147.737 411.353 151.23 410.495 155.655H410.417Z" fill="white"/>
<path d="M520.49 184.458C520.49 183.604 520.49 182.595 520.724 181.43L527.276 147.038C527.823 144.088 528.057 141.06 527.979 138.498C527.432 129.57 522.752 123.049 511.44 123.67C497.944 124.447 487.647 135.16 481.64 149.678L485.853 126.543L452.386 128.484V128.794C456.208 131.201 458.003 132.986 458.237 136.558C458.315 138.265 458.003 140.439 457.457 143.855L446.613 200.45L472.279 198.975L479.144 162.41C482.108 146.184 490.377 137.334 496.852 136.946C500.753 136.713 502.235 138.809 502.391 141.992C502.469 143.545 502.313 145.641 501.845 147.814L495.838 179.101C495.526 180.964 495.292 182.595 495.37 184.225C495.838 192.609 501.923 198.742 513.078 198.121C520.021 197.733 527.589 195.094 534.141 187.33V187.02C531.177 188.495 528.759 189.349 526.574 189.504C522.986 189.737 520.646 187.951 520.49 184.535V184.458Z" fill="white"/>
<path d="M592.963 118.935C584.148 119.478 577.829 126.776 578.453 136.558C578.531 138.033 578.609 139.43 579.155 140.983C580.559 137.722 584.07 135.782 588.126 135.549C595.849 135.083 602.09 140.517 602.714 150.92C603.65 166.525 595.381 182.051 581.105 182.828C570.964 183.371 563.397 175.608 562.617 162.022C562.07 152.783 565.503 141.604 576.892 120.255L573.694 120.41L570.496 126.077C563.163 125.612 559.028 121.652 552.475 122.04C542.022 122.661 535.313 132.831 536.093 145.719C536.093 146.728 536.327 147.892 536.405 148.902C539.681 142.924 544.518 140.905 559.808 138.732L566.439 137.8C547.716 150.61 537.965 161.556 538.745 175.297C539.447 187.563 549.121 195.948 564.489 195.094C593.509 193.464 612.075 163.109 610.671 138.033C609.969 126.233 604.118 118.314 592.807 118.935H592.963Z" fill="white"/>
<path d="M739.78 110.551C722.072 111.56 707.951 123.516 708.732 137.335C709.356 147.738 716.767 153.405 729.639 158.684C739.936 163.032 743.915 166.292 744.227 171.571C744.617 178.17 738.922 182.751 729.639 183.294C720.355 183.838 714.27 178.714 713.802 171.649C713.49 166.913 715.987 163.575 719.419 163.187C717.001 161.169 713.568 160.315 710.37 160.547C703.817 160.936 698.824 164.662 699.214 170.873C699.37 173.279 700.228 175.531 701.789 177.549C692.817 182.052 687.201 179.568 688.761 171.804L694.066 143.002C695.938 132.599 697.888 121.653 700.618 112.803C691.023 115.054 682.988 119.479 677.137 127.475C673.627 120.178 667.386 114.743 655.762 115.364C630.799 116.762 613.09 141.838 614.494 166.758C615.352 181.897 624.402 191.523 637.976 190.747C651.549 189.971 658.805 180.732 663.953 169.864C663.563 171.028 663.407 172.503 663.407 173.357C663.641 182.596 669.57 189.039 681.038 188.418C687.825 188.03 695.47 185.313 701.945 177.86C706.391 183.139 715.831 186.322 728.624 185.701C747.737 184.614 763.105 172.736 762.247 157.908C761.623 147.66 755.148 143.157 739.702 136.015C729.717 131.512 726.05 129.261 725.738 124.059C725.348 117.849 730.809 113.346 738.61 112.88C746.411 112.414 750.702 116.218 751.092 121.886C751.326 125.612 749.921 129.183 746.333 129.96C748.361 132.133 751.482 133.143 754.914 132.91C760.687 132.599 765.446 128.795 765.134 123.05C764.666 114.511 754.29 109.62 739.702 110.474L739.78 110.551ZM669.492 140.751L665.826 158.451C663.563 169.01 657.556 179.49 649.911 179.878C644.138 180.189 641.096 175.919 640.628 167.535C639.614 150.377 648.663 120.333 661.457 119.634C666.372 119.324 670.194 122.74 670.662 129.804C670.818 132.832 670.428 136.326 669.57 140.751H669.492Z" fill="white"/>
<path d="M357.446 100.769L361.347 79.7301C365.403 58.6137 377.573 47.6673 386.544 47.2015C390.913 46.9686 394.579 50.3845 394.969 54.6543C395.983 65.9113 386.856 73.9076 375.467 74.6063C371.956 74.8392 368.914 74.3734 366.807 73.5194L374.998 93.7819C378.821 104.728 385.062 109.386 395.671 108.765C396.53 108.765 413.536 107.678 416.422 107.445C416.89 107.445 417.28 107.445 417.749 107.368L759.281 87.8041C761.699 87.6488 763.572 85.6303 763.416 83.3013C763.26 80.9723 761.231 79.1867 758.735 79.2643L411.82 99.1386C407.295 99.3715 403.785 96.4214 401.678 91.9187L391.459 71.8115C406.281 68.4732 418.139 60.3216 417.358 46.8909C416.89 38.817 410.572 33.3826 400.898 33.9261C385.53 34.78 370.864 49.841 364.233 64.5139L376.481 0L341.688 2.01848V2.32902C346.056 4.50277 348.319 6.13309 348.553 10.4806C348.631 12.1885 348.553 14.3623 347.929 17.3124L331.312 105.116C328.582 104.806 325.461 104.651 321.795 104.806C321.093 104.806 320.391 104.884 319.767 104.961C316.178 105.194 313.448 103.719 313.292 100.225C313.292 99.3715 313.292 98.3623 313.526 97.1978L320.079 62.8059C320.625 59.8558 320.859 56.8281 320.781 54.2662C320.235 45.3383 315.554 38.817 304.242 39.4381C290.747 40.2144 280.449 50.9279 274.442 65.4455L278.655 42.3105L245.188 44.2514V44.5619C249.011 46.9686 250.805 48.7542 251.039 52.3253C251.117 54.0333 250.805 56.207 250.259 59.6229L239.415 116.218L265.081 114.743L271.946 78.1774C274.91 61.9519 283.179 53.1017 289.654 52.7135C293.555 52.4806 295.037 54.5767 295.193 57.7597C295.271 59.3124 295.115 61.4085 294.647 63.5822L288.64 94.8688C288.328 96.732 288.094 98.3623 288.172 99.9926C288.484 105.272 290.981 109.619 295.583 112.026C274.052 123.36 260.322 146.418 261.804 171.959C263.209 195.638 280.215 211.397 305.803 209.922C326.242 208.758 341.454 197.346 349.723 177.006H349.021C340.362 190.436 330.766 196.492 318.05 197.19C301.668 198.122 291.449 187.02 290.278 166.913C288.718 140.362 303.072 108.998 324.837 107.756C339.659 106.902 347.929 119.479 352.453 137.567H352.765L356.588 106.203C356.822 104.34 357.134 102.477 357.446 100.691V100.769Z" fill="white"/>
</g>
<defs>
<clipPath id="clip0_1_342">
<rect width="765.288" height="210" fill="white"/>
</clipPath>
</defs>
</svg>
