<svg width="960" height="216" viewBox="0 0 960 216" fill="none" xmlns="http://www.w3.org/2000/svg">
<path d="M82.2857 0C60.4622 0 39.5325 8.66294 24.1009 24.0828C8.66936 39.5026 0 60.4161 0 82.223H16.7452C16.7524 64.8548 23.6595 48.2002 35.9487 35.9177C48.238 23.6352 64.9042 16.7298 82.2857 16.7189C99.6553 16.7371 116.308 23.6395 128.59 35.9123C140.873 48.1852 147.781 64.8258 147.799 82.1822V171.819L82.2857 197.993L16.7314 171.778V115.702H114.35V149.112L82.2857 161.98L50.2354 149.112V132.461H33.504V160.431L82.2857 180L131.081 160.485V98.9694H0V183.111L82.2857 216L164.489 183.111V82.1407C164.467 60.3623 155.8 39.4824 140.388 24.0828C124.977 8.68308 104.081 0.0217675 82.2857 0V0Z" fill="white"/>
<path d="M82.2857 50.1562C90.785 50.1634 98.9343 53.5394 104.945 59.5434C110.957 65.5475 114.339 73.6894 114.35 82.1822H131.081C131.067 69.2551 125.921 56.8613 116.773 47.7205C107.625 38.5797 95.2226 33.4383 82.2857 33.4238C69.3488 33.4383 56.9459 38.5797 47.7981 47.7205C38.6503 56.8613 33.5048 69.2551 33.4902 82.1822H50.2217C50.2325 73.6894 53.6146 65.5475 59.6258 59.5434C65.637 53.5394 73.7864 50.1634 82.2857 50.1562Z" fill="white"/>
<path d="M273.312 50.2383H254.894L212.379 161.445H230.208L241.577 132.434H285.861L297.23 161.445H315.538L273.696 51.4441L273.312 50.2383ZM280.498 116.551H247.077L263.726 72.0547L280.498 116.551Z" fill="white"/>
<path d="M377.431 120.429C377.431 137.12 369.573 147.097 356.421 147.097C341.088 147.097 337.879 134.599 337.879 124.115V79.3999H321.504V124.869C321.504 157.498 342.075 162.377 354.267 162.377C364.018 162.377 372 159.335 378.089 153.332L379.392 161.445H393.792V79.3999H377.431V120.429Z" fill="white"/>
<path d="M435.758 138.998V94.6794H456.028V79.3998H435.758V57.4736H419.383V79.3998H405.257V94.6794H419.383V139.149C419.383 154.579 426.24 161.445 441.696 161.445H457.262V146.179H442.972C437.294 146.179 435.758 144.63 435.758 138.998Z" fill="white"/>
<path d="M508.69 78.4819C497.033 78.4819 489.491 83.2784 484.773 88.5543V50.1836H468.398V161.445H484.773V120.429C484.773 103.724 492.905 93.7615 506.537 93.7615C522.638 93.7615 526.012 106.259 526.012 116.743V161.445H542.373V115.975C542.373 92.1444 530.098 78.4819 508.69 78.4819Z" fill="white"/>
<path d="M591.333 112.111C579.511 110.672 573.326 109.603 573.326 102.929C573.326 96.886 579.772 92.9941 589.783 92.9941C599.205 92.9941 606.117 97.9275 606.967 105.328L607.159 107H623.767L623.616 104.972C622.382 88.527 609.737 78.6879 589.797 78.5234C579.196 78.5234 569.952 81.634 563.973 87.554C561.784 89.6726 560.049 92.212 558.87 95.0196C557.692 97.8271 557.095 100.844 557.116 103.889C557.116 122.115 573.49 125.65 590.277 127.706L591.141 127.802C603.127 129.173 608.887 130.241 608.887 137.806C608.887 143.753 601.893 147.906 591.881 147.906C580.293 147.906 572.53 142.342 572.105 133.722L572.009 131.941H555.429V133.859C555.744 151.469 569.719 162.418 591.881 162.418C611.438 162.418 625.097 151.921 625.097 136.888C625.097 117.757 609.134 114.249 591.333 112.111Z" fill="white"/>
<path d="M647.575 49.9234C646.25 49.8934 644.933 50.1318 643.703 50.6247C642.473 51.1175 641.356 51.8544 640.419 52.7906C639.482 53.7269 638.745 54.8431 638.252 56.0721C637.759 57.301 637.52 58.6173 637.55 59.941C637.518 61.2658 637.755 62.5834 638.248 63.8139C638.74 65.0445 639.477 66.1623 640.414 67.1C641.351 68.0378 642.469 68.7757 643.7 69.2694C644.931 69.763 646.249 70.002 647.575 69.972C648.9 70 650.218 69.7597 651.447 69.2654C652.677 68.771 653.794 68.0327 654.731 67.0954C655.668 66.158 656.405 65.0409 656.898 63.8113C657.391 62.5816 657.63 61.2653 657.6 59.941C657.628 58.6178 657.388 57.3021 656.894 56.0741C656.4 54.846 655.663 53.7305 654.726 52.7947C653.79 51.8588 652.673 51.1222 651.444 50.6287C650.215 50.1352 648.899 49.8954 647.575 49.9234V49.9234Z" fill="white"/>
<path d="M655.597 79.3999H639.236V161.445H655.597V79.3999Z" fill="white"/>
<path d="M735.346 89.5822C729.49 82.2917 720.727 78.4819 709.714 78.4819C686.4 78.4819 670.189 95.7349 670.189 120.429C670.189 145.905 685.7 162.377 709.714 162.377C720.37 162.377 728.749 158.868 734.715 151.948V157.731C734.715 173.313 727.255 180.562 711.25 180.562C699.113 180.562 691.063 175.505 689.129 166.694L688.8 165.214H672.26L672.507 167.31C674.564 184.988 688.704 195.54 710.331 195.54C737.362 195.54 751.076 182.974 751.076 158.197V79.4H736.621L735.346 89.5822ZM734.866 120.731C734.866 136.436 725.033 147.399 710.948 147.399C696.535 147.399 686.866 136.559 686.866 120.429C686.866 104.3 696.466 93.4464 710.948 93.4464C725.431 93.4464 734.866 104.41 734.866 120.731Z" fill="white"/>
<path d="M806.674 78.4819C794.565 78.4819 786.857 82.9493 782.098 87.6497L780.727 79.4274H766.396V161.445H782.757V120.429C782.757 103.724 790.889 93.7616 804.535 93.7616C820.498 93.7616 823.845 106.259 823.845 116.743V161.445H840.206V115.975C840.206 83.3329 819.195 78.4819 806.674 78.4819Z" fill="white"/>
<path d="M922.642 142.835V108.576C922.642 89.3903 910.477 78.4272 889.275 78.4272C869.28 78.4272 856.183 88.1707 854.221 104.465L853.961 106.575H870.24L870.542 105.04C871.913 97.7358 878.77 93.3643 888.658 93.3643C899.863 93.3643 906.281 98.6129 906.281 107.753V111.248H885.12C863.602 111.248 851.753 120.58 851.753 137.532C851.753 152.606 863.821 162.295 882.514 162.295C892.896 162.295 901.275 158.828 907.488 152.003C909.147 158.293 914.235 161.363 922.916 161.363H931.707V146.097H925.837C923.245 146.179 922.642 145.864 922.642 142.835ZM906.281 125.692V127.638C906.281 140.108 897.531 147.864 883.433 147.864C874.217 147.864 868.265 143.534 868.265 136.901C868.265 134.161 868.265 125.747 883.899 125.747L906.281 125.692Z" fill="white"/>
<path d="M960 50.2246H943.639V161.445H960V50.2246Z" fill="white"/>
</svg>
