<svg width="703" height="196" viewBox="0 0 703 196" fill="none" xmlns="http://www.w3.org/2000/svg">
<path d="M77.7283 181.049C85.2641 180.882 92.5758 178.452 98.7147 174.075C98.9373 173.914 99.212 173.844 99.4842 173.877C99.7564 173.91 100.006 174.044 100.184 174.253V174.253C100.356 174.452 100.45 174.706 100.45 174.969C100.45 175.231 100.356 175.485 100.184 175.684C89.0001 187.346 73.6628 194.109 57.5162 194.501C41.0368 194.501 26.5825 189.93 26.5825 163.822V80.3699H1.02953C0.803105 80.3699 0.585907 80.2798 0.425798 80.1196C0.265688 79.9594 0.175796 79.742 0.175796 79.5154C0.175014 79.3842 0.205128 79.2547 0.263775 79.1373C0.322422 79.0199 0.407914 78.918 0.513292 78.8399L55.7292 36.1403C55.8599 36.0386 56.0203 35.9829 56.1858 35.9814V35.9814C56.2849 35.9814 56.3831 36.001 56.4746 36.0389C56.5662 36.0769 56.6493 36.1325 56.7194 36.2026C56.7895 36.2728 56.845 36.3558 56.8829 36.4474C56.9208 36.539 56.9403 36.6373 56.9403 36.7365V64.8915H107.113L94.704 80.3699H56.9801V157.464C56.9404 175.485 65.2992 181.049 77.7283 181.049Z" fill="white"/>
<path d="M304.468 43.313C314.128 43.313 321.96 35.4757 321.96 25.808C321.96 16.1403 314.128 8.30322 304.468 8.30322C294.807 8.30322 286.976 16.1403 286.976 25.808C286.976 35.4757 294.807 43.313 304.468 43.313Z" fill="white"/>
<path d="M319.676 189.671V61.1157L271.012 80.9852C270.864 81.048 270.738 81.153 270.65 81.2874C270.562 81.4218 270.515 81.5794 270.516 81.7402V81.7402C270.512 81.8814 270.548 82.0206 270.618 82.1431C270.688 82.2657 270.79 82.3669 270.913 82.4356L289.259 93.6023V189.711H271.767C271.433 189.716 271.115 189.852 270.881 190.09C270.647 190.328 270.516 190.649 270.516 190.983V190.983C270.516 191.316 270.647 191.637 270.881 191.875C271.115 192.113 271.433 192.249 271.767 192.254H337.188C337.525 192.254 337.848 192.12 338.087 191.882C338.325 191.643 338.459 191.32 338.459 190.983C338.459 190.645 338.325 190.322 338.087 190.083C337.848 189.845 337.525 189.711 337.188 189.711L319.676 189.671Z" fill="white"/>
<path d="M363.002 189.674H380.493V2.54311H362.743C362.406 2.54311 362.083 2.40928 361.845 2.1708C361.607 1.93232 361.473 1.60894 361.473 1.27168C361.473 0.934415 361.607 0.610791 361.845 0.372311C362.083 0.13383 362.406 0 362.743 0H410.891V189.674H428.522C428.856 189.679 429.174 189.816 429.408 190.053C429.642 190.291 429.773 190.612 429.773 190.946C429.773 191.28 429.642 191.6 429.408 191.838C429.174 192.076 428.856 192.212 428.522 192.218H363.002C362.664 192.218 362.341 192.083 362.103 191.845C361.865 191.606 361.731 191.283 361.731 190.946C361.731 190.609 361.865 190.285 362.103 190.047C362.341 189.808 362.664 189.674 363.002 189.674Z" fill="white"/>
<path d="M444.107 127.799C444.107 91.0408 471.487 61.8726 512.03 61.8726C553.328 61.8726 579.536 93.326 579.536 129.429C579.536 166.446 551.899 195.614 511.613 195.614C469.958 195.515 444.107 164.061 444.107 127.799ZM548.007 152.656C547.651 140.548 545.777 128.532 542.428 116.891C534.486 87.7226 522.156 65.2304 503.155 65.2304C489.972 65.2304 475.537 73.1782 475.537 104.532C475.878 116.642 477.753 128.66 481.117 140.297C489.059 169.446 501.13 192.276 520.389 192.276C533.573 192.216 548.007 184.11 548.007 152.656Z" fill="white"/>
<path d="M642.952 189.713H666.282C666.613 189.713 666.932 189.845 667.166 190.079C667.401 190.314 667.532 190.633 667.532 190.965V190.965C667.535 191.131 667.505 191.296 667.443 191.45C667.381 191.604 667.29 191.744 667.173 191.863C667.057 191.981 666.918 192.075 666.765 192.139C666.612 192.203 666.448 192.236 666.282 192.236H595.122C594.785 192.236 594.462 192.102 594.224 191.864C593.985 191.625 593.852 191.302 593.852 190.965V190.965C593.857 190.631 593.993 190.312 594.231 190.078C594.468 189.844 594.789 189.713 595.122 189.713H612.614V93.6041L594.249 82.4176C594.129 82.3443 594.031 82.2422 593.961 82.1207C593.892 81.9992 593.854 81.8622 593.852 81.7222V81.7222C593.852 81.5591 593.902 81.3999 593.994 81.2653C594.086 81.1306 594.216 81.0268 594.368 80.9672L643.012 61.0977L642.952 189.713Z" fill="white"/>
<path d="M694.216 65.6876C690.983 63.4616 687.28 62.0132 683.396 61.4554C683.396 61.4554 682.601 61.3163 681.192 61.1971C679.21 61.0287 677.217 61.0287 675.235 61.1971C669.458 61.6541 662.33 63.8597 653.633 69.5027C653.519 69.585 653.431 69.6982 653.379 69.8291C653.328 69.9601 653.315 70.1031 653.342 70.2412C653.369 70.3793 653.435 70.5067 653.533 70.6082C653.63 70.7098 653.755 70.7813 653.891 70.8141C656.016 71.3904 660.166 73.2182 665.328 79.0996C672.456 87.2461 678.075 94.7766 687.922 93.4453C688.591 93.3662 689.254 93.2469 689.908 93.0878V93.0878C693.748 92.1304 697.124 89.8425 699.438 86.6302C703.846 80.3912 703.171 72.0459 694.216 65.6876Z" fill="white"/>
<path d="M128.139 100.559C128.1 96.6383 128.97 92.7615 130.68 89.2336C130.983 88.5542 131.321 87.891 131.693 87.2467C132.667 85.5145 133.782 83.8664 135.028 82.3191C138.642 77.7889 144.44 73.0998 153.99 69.0266C154.12 68.982 154.26 68.9747 154.394 69.0057C154.528 69.0368 154.65 69.1049 154.748 69.2022C154.845 69.2995 154.913 69.422 154.944 69.5561C154.975 69.6901 154.968 69.8302 154.923 69.9604C154.208 71.9473 153.414 76.5172 155.419 84.0676C158.199 94.5388 161.376 103.4 154.705 110.851C154.274 111.346 153.816 111.817 153.335 112.262V112.262C150.394 114.916 146.61 116.443 142.653 116.574C134.969 116.753 128.417 111.547 128.139 100.559Z" fill="white"/>
<path d="M245.858 189.672H228.386L228.625 100.16C228.625 67.4544 209.882 61.1162 189.868 61.1162H187.327C187.327 61.1162 185.858 61.1162 183.356 61.3745H183.038C181.708 61.4937 180.1 61.6923 178.293 61.9705L177.578 62.0898C173.666 62.6885 169.794 63.5246 165.983 64.5934C165.752 64.6576 165.548 64.7948 165.401 64.9846C165.254 65.1744 165.173 65.4064 165.169 65.6463V65.6463C165.169 65.8085 165.204 65.9689 165.274 66.1156C165.343 66.2623 165.444 66.3917 165.569 66.4945C165.695 66.5972 165.842 66.6707 165.999 66.7096C166.156 66.7485 166.321 66.7518 166.479 66.7193C170.128 65.9682 173.863 65.7275 177.578 66.004H178.63C189.67 67.4346 198.485 76.8727 198.485 93.6426C198.485 102.008 195.447 107.094 189.094 112.161C182.96 116.821 176.295 120.736 169.239 123.824C143.13 136.243 123.573 139.283 123.573 161.358C123.573 180.87 141.562 195.335 163.104 195.335C179.325 195.335 193.243 185.4 198.068 167.954L199.339 192.036H245.858C246.179 192.04 246.491 191.927 246.735 191.719C246.98 191.511 247.141 191.221 247.189 190.904C247.184 190.735 247.145 190.569 247.075 190.415C247.005 190.262 246.905 190.123 246.782 190.009C246.658 189.894 246.512 189.805 246.354 189.747C246.195 189.689 246.027 189.664 245.858 189.672V189.672ZM197.969 156.967C197.711 173.697 188.041 183.592 178.213 183.592C166.301 183.592 156.671 170.657 156.671 153.668C156.671 135.667 174.163 126.03 188.597 115.638C192.173 113.086 195.497 110.199 198.525 107.015L197.969 156.967Z" fill="white"/>
</svg>
