<svg width="498" height="621" viewBox="0 0 498 621" fill="none" xmlns="http://www.w3.org/2000/svg">
<path d="M248.832 152.192C329.27 152.192 394.493 217.415 394.493 297.853C394.493 378.291 329.284 443.514 248.832 443.514C181.695 443.514 125.174 398.094 108.297 336.317H119.725C123.444 336.317 126.441 333.301 126.441 329.601V269.883L126.456 269.898V266.47C126.456 262.751 123.439 259.754 119.74 259.754H108.205C124.953 197.787 181.563 152.192 248.832 152.192ZM273.329 291.327C267.671 291.327 263.082 295.916 263.082 301.574C263.081 309.441 256.684 315.837 248.817 315.837C240.949 315.837 234.552 309.441 234.552 301.574C234.552 295.917 229.963 291.327 224.306 291.327C218.649 291.327 214.059 295.916 214.059 301.574C214.059 320.741 229.649 336.331 248.817 336.332C267.984 336.332 283.575 320.741 283.575 301.574C283.575 295.917 278.986 291.327 273.329 291.327ZM175.284 273.892C161.938 273.892 151.133 284.697 151.132 298.042C151.132 311.389 161.938 322.194 175.284 322.194C188.63 322.194 199.435 311.389 199.435 298.042C199.435 284.696 188.615 273.892 175.284 273.892ZM322.365 273.892C309.019 273.892 298.215 284.697 298.214 298.042C298.214 311.389 309.019 322.194 322.365 322.194C335.711 322.194 346.516 311.389 346.516 298.042C346.516 284.696 335.696 273.892 322.365 273.892Z" fill="white" stroke="white" stroke-width="2.83985"/>
<path d="M45.8418 1.41992H451.836C476.335 1.41994 496.258 21.37 496.258 45.8564V464.062C496.258 488.562 476.322 508.484 451.836 508.484H390.996C390.795 508.484 390.64 508.472 390.339 508.463C390.083 508.455 389.754 508.452 389.413 508.496L389.388 508.499L389.361 508.503C389.221 508.526 389.273 508.515 389.079 508.545C388.967 508.562 388.773 508.595 388.564 508.673C388.335 508.758 388.089 508.896 387.867 509.117C387.706 509.278 387.587 509.453 387.496 509.626L387.424 509.776C387.224 510.223 387.086 510.839 387.351 511.473C387.607 512.087 388.107 512.389 388.424 512.531C388.745 512.675 389.075 512.743 389.287 512.782L389.779 512.868L389.792 512.871C391.549 513.231 393.294 513.635 395.028 514.068V514.067C397.892 514.799 400.716 515.63 403.494 516.586L404.683 517.003L404.686 517.004C410.367 519.032 415.855 521.575 421.021 524.66V524.661C429.346 529.651 436.766 536.079 442.825 543.656L443.407 544.393V544.394C448.223 550.556 452.125 557.425 455.039 564.701V564.702C456.231 567.704 457.264 570.777 458.11 573.889V573.888C461.015 584.681 458.799 595.94 452.021 604.809C445.229 613.677 434.923 618.755 423.735 618.755H295.768C276.139 618.755 260.158 602.8 260.158 583.175V508.484H237.141V583.175C237.141 602.8 221.16 618.755 201.531 618.755H73.5625C62.7389 618.755 52.7287 613.99 45.9385 605.629L45.291 604.809C38.4975 595.923 36.2698 584.664 39.2021 573.889L39.2012 573.888C40.4117 569.449 41.9893 565.111 43.8965 560.932L44.2822 560.099C46.8783 554.57 50.0788 549.32 53.8242 544.491L54.5811 543.53C59.203 537.753 64.6329 532.641 70.6465 528.35L71.8564 527.503C79.555 522.222 88.1143 518.266 97.0566 515.524L97.9238 515.263L97.9268 515.262C99.4344 514.809 100.962 514.396 102.498 514.011L104.036 513.634C105.114 513.386 106.172 513.143 107.227 512.93L107.234 512.928L107.242 512.927C107.41 512.891 107.431 512.897 107.772 512.832C108.008 512.787 108.342 512.713 108.67 512.576C108.986 512.444 109.451 512.189 109.769 511.688C110.119 511.136 110.147 510.515 109.992 509.957H109.993C109.929 509.721 109.814 509.404 109.57 509.118C109.292 508.792 108.946 508.62 108.624 508.546C108.367 508.486 108.122 508.492 108.053 508.492L107.879 508.49L107.872 508.489L107.591 508.471C106.917 508.439 106.153 508.484 105.719 508.484H45.8418C21.3417 508.484 1.42002 488.563 1.41992 464.062V45.8564C1.41992 21.356 21.3565 1.41992 45.8418 1.41992ZM26.7529 464.062C26.753 474.593 35.2969 483.136 45.8271 483.136H135.375V535.424C109.761 535.672 92.9867 542.642 82.0273 551.72C71.2285 560.665 66.2077 571.548 63.874 579.717L63.6572 580.498L63.6562 580.499C61.8954 587.017 66.7905 593.422 73.5479 593.422H201.517C207.174 593.422 211.763 588.832 211.763 583.175V483.136H285.491V583.175C285.491 588.832 290.081 593.422 295.738 593.422H423.706C430.342 593.422 435.205 587.218 433.676 580.805L433.598 580.499C431.371 572.244 426.385 560.946 415.238 551.714C404.279 542.637 387.5 535.672 361.879 535.424V483.136H451.792C462.322 483.136 470.866 474.593 470.866 464.062V462.643H470.852V112.571H26.7529V464.062ZM45.8418 26.7676C35.3115 26.7676 26.7676 35.3115 26.7676 45.8418V103.155H469.446V101.735H470.866V45.8418C470.866 35.3115 462.322 26.7676 451.792 26.7676H45.8418Z" fill="white" stroke="white" stroke-width="2.83985"/>
<path d="M63.7236 54.1343C69.709 54.1345 74.5586 58.9848 74.5586 64.9702C74.5584 70.9555 69.7089 75.805 63.7236 75.8052C57.7382 75.8052 52.8878 70.9556 52.8877 64.9702C52.8877 58.9847 57.7381 54.1343 63.7236 54.1343Z" fill="white" stroke="white" stroke-width="2.83985"/>
<path d="M112.767 54.1343C118.752 54.1345 123.602 58.9848 123.602 64.9702C123.602 70.9555 118.752 75.805 112.767 75.8052C106.782 75.8052 101.931 70.9556 101.931 64.9702C101.931 58.9847 106.782 54.1343 112.767 54.1343Z" fill="white" stroke="white" stroke-width="2.83985"/>
</svg>
