<svg width="960" height="193" viewBox="0 0 960 193" fill="none" xmlns="http://www.w3.org/2000/svg">
<path d="M77.1587 47.1926C102.101 47.1926 122.326 67.4171 122.327 92.3596C122.327 117.302 102.106 137.528 77.1587 137.528C56.3411 137.527 38.817 123.443 33.5835 104.287H37.1255C38.2786 104.287 39.2075 103.351 39.2075 102.204V83.6868L39.2124 83.6917V82.6282C39.2122 81.475 38.2765 80.5461 37.1294 80.5461H33.5542C38.7478 61.3313 56.2999 47.1928 77.1587 47.1926ZM84.7554 90.3362C83.0011 90.3362 81.5776 91.7597 81.5776 93.5139C81.5775 95.9533 79.5942 97.9366 77.1548 97.9368C74.7153 97.9368 72.7311 95.9534 72.731 93.5139C72.731 91.7598 71.3083 90.3363 69.5542 90.3362C67.8 90.3362 66.3765 91.7597 66.3765 93.5139C66.3766 99.4573 71.2113 104.291 77.1548 104.291C83.0981 104.291 87.9319 99.4573 87.9321 93.5139C87.9321 91.7598 86.5095 90.3363 84.7554 90.3362ZM54.353 84.9299C50.2146 84.9299 46.8638 88.2807 46.8638 92.4192C46.864 96.5574 50.2147 99.9075 54.353 99.9075C58.4913 99.9074 61.842 96.5574 61.8423 92.4192C61.8423 88.2806 58.4867 84.93 54.353 84.9299ZM99.9604 84.9299C95.8221 84.9301 92.4722 88.2808 92.4722 92.4192C92.4724 96.5574 95.8223 99.9073 99.9604 99.9075C104.099 99.9075 107.449 96.5574 107.45 92.4192C107.45 88.2806 104.094 84.9299 99.9604 84.9299Z" fill="white" stroke="white" stroke-width="0.880597"/>
<path d="M14.2148 0.44043H140.107C147.704 0.44043 153.882 6.62683 153.882 14.2197V143.899C153.882 151.496 147.7 157.674 140.107 157.674H121.242C121.18 157.674 121.131 157.67 121.038 157.667C120.959 157.665 120.857 157.663 120.751 157.677L120.743 157.678L120.735 157.68C120.692 157.687 120.708 157.683 120.647 157.692C120.613 157.698 120.553 157.708 120.488 157.732C120.417 157.759 120.34 157.802 120.271 157.87C120.238 157.903 120.211 157.938 120.188 157.974L120.132 158.08C120.071 158.218 120.03 158.407 120.111 158.601C120.191 158.791 120.346 158.885 120.444 158.929C120.544 158.973 120.646 158.995 120.712 159.007L120.865 159.033L120.869 159.034C121.414 159.146 121.955 159.271 122.492 159.405V159.404C123.253 159.599 124.005 159.816 124.747 160.061L125.486 160.315H125.487C127.249 160.944 128.951 161.734 130.553 162.69V162.689C133.051 164.187 135.286 166.102 137.131 168.354L137.494 168.809C138.987 170.719 140.197 172.849 141.101 175.105V175.106C141.47 176.037 141.791 176.988 142.053 177.952V177.953C142.926 181.196 142.309 184.575 140.358 187.283L140.165 187.542C138.059 190.292 134.864 191.867 131.395 191.867H91.7129C85.6265 191.867 80.6709 186.92 80.6709 180.834V157.674H73.5342V180.834C73.5342 186.919 68.5785 191.867 62.4922 191.867H22.8105C19.3461 191.867 16.1501 190.292 14.0439 187.542H14.043C11.9369 184.787 11.2472 181.296 12.1562 177.955C12.5066 176.67 12.9558 175.412 13.4951 174.196L13.7314 173.679C14.4828 172.079 15.397 170.553 16.46 169.14L16.9248 168.541C18.3579 166.75 20.0416 165.165 21.9062 163.834L22.2812 163.571C24.5915 161.987 27.1522 160.787 29.8281 159.94L30.3643 159.775H30.3662C30.988 159.589 31.6204 159.424 32.2559 159.271L33.249 159.052L33.2539 159.051C33.3059 159.04 33.313 159.042 33.4189 159.021C33.4921 159.008 33.5957 158.985 33.6973 158.942C33.7954 158.901 33.9398 158.822 34.0381 158.667C34.1466 158.496 34.1545 158.303 34.1064 158.13H34.1074C34.0876 158.057 34.0519 157.959 33.9766 157.87C33.8902 157.769 33.7826 157.715 33.6826 157.692C33.6031 157.674 33.5274 157.676 33.5059 157.676H33.4521L33.4492 157.675L33.2715 157.666C33.0881 157.663 32.8977 157.674 32.7822 157.674H14.2148C6.61786 157.674 0.440683 151.496 0.44043 143.899V14.2197C0.44043 6.62249 6.62232 0.44043 14.2148 0.44043ZM8.2959 143.899C8.29615 147.164 10.945 149.813 14.21 149.813H41.9775V166.028C34.0353 166.105 28.8338 168.265 25.4355 171.08C22.1951 173.764 20.6322 177.011 19.8789 179.514L19.7393 180.004C19.1933 182.025 20.7105 184.011 22.8057 184.012H62.4873C64.2415 184.012 65.665 182.588 65.665 180.834V149.813H88.5264V180.834C88.5264 182.588 89.9499 184.012 91.7041 184.012H131.385C133.41 184.012 134.903 182.148 134.497 180.193L134.452 180.004C133.762 177.444 132.216 173.941 128.76 171.078C125.361 168.264 120.158 166.105 112.214 166.028V149.813H140.094C143.359 149.813 146.009 147.164 146.009 143.899V143.459H146.004V34.9062H8.2959V143.899ZM14.2148 8.30078C10.9496 8.30078 8.30078 10.9496 8.30078 14.2148V31.9873H145.568V31.5469H146.009V14.2148C146.009 10.9496 143.359 8.30078 140.094 8.30078H14.2148Z" fill="white" stroke="white" stroke-width="0.880597"/>
<path d="M19.7593 16.7864C21.6151 16.7864 23.1194 18.2899 23.1196 20.1458C23.1196 22.0018 21.6153 23.5061 19.7593 23.5061C17.9035 23.5059 16.3999 22.0016 16.3999 20.1458C16.4002 18.2901 17.9036 16.7866 19.7593 16.7864Z" fill="white" stroke="white" stroke-width="0.880597"/>
<path d="M34.9668 16.7864C36.8227 16.7864 38.3269 18.2899 38.3271 20.1458C38.3271 22.0018 36.8228 23.5061 34.9668 23.5061C33.111 23.5059 31.6074 22.0016 31.6074 20.1458C31.6077 18.2901 33.1111 16.7866 34.9668 16.7864Z" fill="white" stroke="white" stroke-width="0.880597"/>
<path d="M237.335 45.4487C255.79 45.4487 267.59 50.103 274.192 54.0708V74.646C267.456 71.1502 255.704 67.3453 241.435 67.3452C235.466 67.3452 231.238 67.8562 228.478 68.8276C227.093 69.3147 226.025 69.9365 225.296 70.7153C224.551 71.5114 224.19 72.4449 224.189 73.4692C224.189 74.3061 224.354 75.0862 224.791 75.7866C225.226 76.4834 225.888 77.0356 226.77 77.4937C228.497 78.3915 231.24 79.0116 235.327 79.5874V79.5864L249.636 81.8921V81.8911C259.939 83.6068 267.417 86.4537 272.314 90.7925C277.176 95.0996 279.579 100.953 279.579 108.903C279.579 117.967 275.219 125.42 267.52 130.636C259.798 135.867 248.704 138.85 235.309 138.85C217.843 138.85 203.15 134.245 192.931 128.031V106.675C203.743 113.141 217.472 117.603 231.702 117.603C236.773 117.603 240.628 117.157 243.238 116.163C244.55 115.663 245.597 115.007 246.318 114.154C247.052 113.286 247.413 112.257 247.413 111.098C247.413 110.135 247.225 109.234 246.756 108.409C246.288 107.586 245.571 106.89 244.595 106.288C242.672 105.102 239.639 104.218 235.155 103.45H235.154L222.372 101.144H222.371C211.696 99.2359 204.183 95.9818 199.345 91.438C194.533 86.9192 192.292 81.0552 192.292 73.7388C192.292 65.4836 195.877 58.4555 203.252 53.4604C210.66 48.4428 221.94 45.4488 237.335 45.4487Z" fill="white" stroke="white" stroke-width="1.49813"/>
<path d="M354.298 59.5374C364.955 59.5374 373.507 63.7906 379.406 70.8118C385.185 77.6891 388.452 87.2669 388.595 98.1985H388.591V98.9475C388.591 110.885 384.929 120.835 378.724 127.791C372.524 134.741 363.747 138.75 353.402 138.75C346.144 138.75 339.913 137.36 334.805 134.526C329.704 131.696 325.682 127.403 322.866 121.526L321.441 121.85V157.709H291.729V64.2854H321.441V80.4026L322.908 80.6194C324.977 73.7866 328.626 68.5362 333.821 64.9856C339.023 61.4307 345.835 59.5374 354.298 59.5374ZM339.448 81.9485C333.971 81.9485 329.426 83.7666 326.247 86.8792C323.068 89.9917 321.308 94.3489 321.308 99.3284C321.308 104.297 322.967 108.564 326.074 111.589C329.181 114.613 333.664 116.327 339.19 116.327C344.723 116.327 349.302 114.544 352.501 111.464C355.701 108.383 357.466 104.057 357.466 99.0823V99.0706C357.466 94.159 355.737 89.8649 352.587 86.7991C349.437 83.7335 344.922 81.9485 339.448 81.9485Z" fill="white" stroke="white" stroke-width="1.49813"/>
<path d="M429.747 64.2852V137.562H399.91V64.2852H429.747ZM415.02 31.3047C419.878 31.3048 423.898 32.583 426.683 34.6855C429.455 36.7786 431.023 39.6979 431.023 43.0869C431.023 49.7956 424.64 55.1268 415.02 55.127C410.223 55.127 406.104 53.85 403.205 51.71C400.318 49.5789 398.634 46.5937 398.634 43.0869C398.634 39.7134 400.284 36.7932 403.156 34.6924C406.04 32.5834 410.16 31.3047 415.02 31.3047Z" fill="white" stroke="white" stroke-width="1.49813"/>
<path d="M505.046 59.5374C514.996 59.5374 522.471 62.5525 527.474 68.3567C532.385 74.0555 535.01 82.5558 535.121 93.8538H535.116V137.563H505.279V101.254C505.279 95.5351 504.047 91.0509 501.528 87.9856C498.989 84.8947 495.237 83.3596 490.465 83.3596C485.198 83.3596 481.095 84.9128 478.324 88.0774C475.569 91.2239 474.239 95.8436 474.239 101.759V137.563H444.525V64.2854H473.981V80.7942L475.438 81.0422C478.024 73.6581 481.629 68.3019 486.445 64.7854C491.259 61.2711 497.36 59.5374 505.046 59.5374Z" fill="white" stroke="white" stroke-width="1.49813"/>
<path d="M584.121 59.5264C598.459 59.5264 609.446 63.0797 616.844 69.7734C624.086 76.3269 627.989 85.9863 628.138 98.5791H628.134V137.563H599.316V125.182L597.949 127.184C592.876 134.609 584.689 138.75 572.731 138.75C564.187 138.75 557.539 136.175 553.035 131.979C548.534 127.785 546.11 121.915 546.11 115.197C546.11 108.501 548.742 102.6 553.578 98.3652C558.42 94.1248 565.523 91.5107 574.523 91.5107C584.85 91.5108 592.164 94.3956 597.869 101.22L599.366 103.011L599.191 100.684C598.727 94.5127 595.89 89.8586 591.384 86.7695C586.903 83.6982 580.823 82.207 573.885 82.207C564.911 82.2071 556.524 85.22 549.694 90.582V69.1553C557.615 63.8411 568.751 59.5264 584.121 59.5264ZM585.521 104.213C581.826 104.213 578.747 105.101 576.57 106.708C574.376 108.329 573.136 110.659 573.136 113.405C573.136 116.152 574.378 118.481 576.557 120.102C578.718 121.709 581.767 122.599 585.397 122.599C589.329 122.599 592.774 121.748 595.262 120.163C597.768 118.566 599.316 116.206 599.316 113.282V113.271C599.316 110.477 597.833 108.18 595.373 106.615C592.932 105.062 589.518 104.213 585.521 104.213Z" fill="white" stroke="white" stroke-width="1.49813"/>
<path d="M663.186 64.2747L673.331 107.172L673.964 109.855L674.775 107.22L687.984 64.2747H719.478L732.821 107.479L733.618 110.059L734.264 107.437L744.897 64.2747H774.398L751.219 137.552H718.667L703.417 91.6672L702.691 89.4817L701.993 91.677L687.398 137.552H656.248L632.323 64.2747H663.186Z" fill="white" stroke="white" stroke-width="1.49813"/>
<path d="M815.714 59.5264C830.052 59.5264 841.04 63.0797 848.437 69.7734C855.679 76.3269 859.583 85.9863 859.732 98.5791H859.727V137.563H830.91V125.182L829.542 127.184C824.469 134.609 816.283 138.75 804.325 138.75C795.78 138.75 789.133 136.175 784.628 131.979C780.127 127.785 777.704 121.915 777.704 115.197C777.704 108.501 780.336 102.6 785.171 98.3652C790.013 94.1248 797.116 91.5107 806.117 91.5107C816.443 91.5108 823.757 94.3956 829.462 101.22L830.959 103.011L830.785 100.684C830.32 94.5127 827.483 89.8586 822.977 86.7695C818.496 83.6982 812.416 82.207 805.478 82.207C796.504 82.2071 788.118 85.22 781.288 90.582V69.1553C789.209 63.8411 800.345 59.5264 815.714 59.5264ZM817.114 104.213C813.419 104.213 810.34 105.101 808.164 106.708C805.969 108.329 804.729 110.659 804.729 113.405C804.729 116.152 805.971 118.481 808.15 120.102C810.311 121.709 813.36 122.599 816.991 122.599C820.923 122.599 824.367 121.748 826.855 120.163C829.362 118.566 830.91 116.206 830.91 113.282V113.271C830.91 110.477 829.426 108.18 826.966 106.615C824.525 105.062 821.111 104.213 817.114 104.213Z" fill="white" stroke="white" stroke-width="1.49813"/>
<path d="M958.782 64.2734L911.53 157.697H878.036L892.693 130.514L892.875 130.178L892.708 129.833L861.163 64.2852H892.767L908.87 102.696L909.538 104.291L910.244 102.713L927.454 64.2734H958.782Z" fill="white" stroke="white" stroke-width="1.49813"/>
</svg>
