<svg width="700" height="262" viewBox="0 0 700 262" fill="none" xmlns="http://www.w3.org/2000/svg">
<path d="M56.4938 126.642C46.4514 126.642 36.4226 125.036 26.3938 121.835C16.3513 118.635 7.56249 114.223 0.0136261 108.627L6.10449 95.1588C22.0062 107.401 38.739 113.529 56.3303 113.529C69.861 113.529 80.3395 111.404 87.793 107.142C95.2328 102.88 98.9527 96.7929 98.9527 88.8676C98.9527 82.5763 95.9414 78.0281 89.905 75.2229C83.8687 72.4177 72.6271 70.0346 56.1668 68.0465C37.6762 65.8268 24.1182 62.2182 15.4929 57.207C6.86755 52.1957 2.54808 44.5019 2.54808 34.1117C2.54808 23.7216 7.07195 15.0201 16.1469 9.01476C25.2219 3.00946 38.1122 0 54.7906 0C64.029 0 73.3357 1.25281 82.6968 3.75842C92.0579 6.26403 99.8384 9.50499 106.038 13.4677L101.133 27.1124C95.2737 23.0271 88.2563 19.6772 80.0806 17.0491C71.9049 14.4209 63.484 13.1136 54.7906 13.1136C29.2007 13.1136 16.4058 20.0585 16.4058 33.9347C16.4058 39.1774 19.3082 43.3172 25.1129 46.3538C30.9176 49.3905 41.546 51.8962 56.998 53.8707C77.5189 56.4308 91.9489 60.0803 100.288 64.8055C108.627 69.5308 112.81 77.3063 112.81 88.1595C112.81 99.816 107.742 109.144 97.5901 116.143C87.4387 123.143 73.7445 126.642 56.4938 126.642ZM194.24 126.642C176.989 126.642 163.377 121.781 153.403 112.031C143.428 102.294 138.441 88.6769 138.441 71.1921V2.09709H151.972V71.3691C151.972 84.9049 155.61 95.3086 162.886 102.594C170.163 109.879 180.614 113.529 194.254 113.529C207.893 113.529 218.154 109.879 225.376 102.594C232.584 95.3086 236.195 84.9049 236.195 71.3691V2.09709H249.726V71.1921C249.726 88.6905 244.738 102.294 234.764 112.031C224.79 121.767 211.286 126.642 194.254 126.642H194.24ZM485.225 124.545L471.531 94.6278H400.498L386.804 124.545H371.747L428.895 2.09709H443.107L500.269 124.545H485.212H485.225ZM406.589 81.5141H465.44L436.008 17.1444L406.576 81.5141H406.589ZM99.9611 137.455H113.328V259.903H99.9611V202.001H13.5307V259.903H0V137.455H13.5307V188.888H99.9474V137.455H99.9611ZM194.24 262C176.989 262 163.377 257.139 153.403 247.388C143.428 237.652 138.441 224.035 138.441 206.55V137.455H151.972V206.727C151.972 220.262 155.61 230.666 162.886 237.952C170.163 245.237 180.614 248.886 194.254 248.886C207.893 248.886 218.154 245.237 225.376 237.952C232.584 230.666 236.195 220.262 236.195 206.727V137.455H249.726V206.55C249.726 224.048 244.738 237.652 234.764 247.388C224.79 257.125 211.286 262 194.254 262H194.24ZM409.791 137.455V259.903H396.261V156.873L348.733 259.903H336.047L288.356 155.825V259.903H274.825V137.455H294.269L342.642 243.453L390.837 137.455H409.778H409.791ZM548.464 259.903L534.77 229.985H463.737L450.043 259.903H434.986L492.148 137.455H506.36L563.521 259.903H548.464ZM469.828 216.872H528.679L499.247 152.502L469.814 216.872H469.828ZM686.306 137.455H700V259.903H681.727L597.505 153.373V259.903H583.81V137.455H601.906L686.292 243.276V137.455H686.306ZM371.134 12.4191C362.958 5.54231 351.989 2.09709 338.241 2.09709H274.825V124.545H288.696V15.2243H338.077C359.048 15.2243 369.54 23.2722 369.54 39.3681C369.54 55.4639 359.048 63.8523 338.077 63.8523H302.568V76.9659H338.254C352.126 76.9659 363.122 73.4935 371.229 66.5622C379.351 59.6309 383.411 50.5616 383.411 39.3681C383.411 28.1745 379.323 19.3096 371.148 12.4327L371.134 12.4191Z" fill="white"/>
</svg>
