<svg width="513" height="463" viewBox="0 0 513 463" fill="none" xmlns="http://www.w3.org/2000/svg">
<path d="M248.396 290.599H325.199C308.596 316.198 278.149 330.73 235.946 330.73C181.288 330.73 147.382 294.752 147.382 242.86C147.382 183.354 190.972 131.461 261.545 131.461C262.613 131.461 263.67 131.461 264.717 131.472H489.158L512.253 0.0106775C328.968 0.0106775 273.269 0 271.919 0C114.164 0 0 114.858 0 255.315C0 374.321 85.799 462.197 222.103 462.197C365.325 462.197 467.728 366.713 477.418 217.26C478.112 209.647 478.112 202.04 478.112 194.427H265.005L248.401 290.599H248.396Z" fill="white"/>
</svg>
