<svg width="960" height="197" viewBox="0 0 960 197" fill="none" xmlns="http://www.w3.org/2000/svg">
<g clip-path="url(#clip0_1_799)">
<g clip-path="url(#clip1_1_799)">
<path d="M95.8155 196.903H12.5803C7.89619 196.903 3.62898 194.36 1.47085 190.267C-0.73633 186.174 -0.44204 181.282 2.20657 177.455L57.1898 98.3791L2.20657 19.3272C-0.44204 15.5248 -0.73633 10.6083 1.44632 6.5152C3.62898 2.44635 7.89619 -0.0966797 12.5803 -0.0966797L95.889 -0.0966797C108.764 -0.0966797 120.806 6.15191 128.114 16.6389L185.157 98.4275L128.016 180.216C120.708 190.655 108.666 196.903 95.8155 196.903ZM20.845 180.192H95.7909C103.099 180.192 109.917 176.656 114.086 170.722L164.606 98.4275L114.184 26.1086C110.04 20.1749 103.197 16.6147 95.889 16.6147L20.845 16.6147L67.4655 83.6295L84.8041 58.7078C88.728 53.0647 95.7909 50.6428 102.412 52.6772C109.034 54.7117 113.473 60.6454 113.473 67.4995V129.307C113.473 136.137 109.034 142.095 102.412 144.129C95.7909 146.164 88.728 143.742 84.8041 138.099L67.4655 113.177L20.845 180.192ZM77.7411 98.4033L96.5512 125.432V71.3503L77.7411 98.4033Z" fill="white"/>
</g>
<path d="M383.337 48.1963C353.908 48.1963 331.689 69.7757 331.689 98.403C331.689 127.03 353.884 148.464 383.337 148.464C397.66 148.464 410.731 143.378 420.148 134.151C429.566 124.923 434.716 112.256 434.716 98.3787C434.716 69.7999 412.619 48.1963 383.337 48.1963ZM416.249 98.3787C416.249 117.585 402.417 131.511 383.337 131.511C364.258 131.511 350.156 117.585 350.156 98.3787C350.156 79.4634 364.429 65.1256 383.337 65.1256C402.246 65.1014 416.249 79.4634 416.249 98.3787Z" fill="white"/>
<path d="M496.811 106.903L492.373 119.619L487.713 106.685L464.856 49.4067H444.526L485.702 147.301H497.891L539.067 49.4067H519.251L496.811 106.903Z" fill="white"/>
<path d="M770.232 49.4312L727.78 147.326H747.179L755.37 127.635H797.895L805.963 147.326H825.485L783.377 49.4312H770.232V49.4312ZM791.249 111.433H761.869L776.608 76.3388L791.249 111.433Z" fill="white"/>
<path d="M863.325 49.4067H845.153V147.301H863.325V49.4067Z" fill="white"/>
<path d="M911.05 130.881V49.4067H892.853V147.301H959.829V130.881H911.05Z" fill="white"/>
<path d="M260.471 49.4312H224.175V87.7219L231.631 98.4511L224.151 109.156V147.326H260.447C291.347 147.326 312.095 127.635 312.095 98.3058C312.095 68.9762 291.347 49.4312 260.471 49.4312ZM242.348 87.4555V65.973H260.373C280.655 65.973 293.702 78.7123 293.702 98.4269C293.702 118.141 280.63 130.76 260.373 130.76H242.348V87.4555V87.4555Z" fill="white"/>
<path d="M576.956 106.032H619.971V89.4899H576.956V65.973H626.323V49.4312H558.759V147.326H626.151V130.905H576.956V106.032V106.032Z" fill="white"/>
<path d="M645.992 49.4065V65.9726H677.726V147.325H696.046V65.9483H727.78V49.3823H645.992V49.4065Z" fill="white"/>
</g>
<defs>
<clipPath id="clip0_1_799">
<rect width="960" height="197" fill="white"/>
</clipPath>
<clipPath id="clip1_1_799">
<rect width="185.158" height="197" fill="white" transform="translate(0 -0.0966797)"/>
</clipPath>
</defs>
</svg>
