<svg width="832" height="208" viewBox="0 0 832 208" fill="none" xmlns="http://www.w3.org/2000/svg">
<path d="M380.294 125.879C375.06 84.2133 329.584 58.0905 290.986 74.0411C225.723 100.533 241.246 200.14 312.564 203.393C341.383 205.102 369.174 188.978 379.771 161.725H351.953C344.113 173.694 329.535 179.729 315.299 179.427C295.617 179.869 279.041 164.668 276.09 145.288H381.034C381.009 139.373 381.263 131.645 380.291 125.879H380.294ZM277.358 123.793C285.261 83.6272 346.062 83.2266 353.221 123.793H277.358Z" fill="#F2F7F8"/>
<path d="M534.414 71.9536H507.861V200.922H534.414V71.9536Z" fill="#F2F7F8"/>
<path d="M534.414 23.9717H507.861V49.8796H534.414V23.9717Z" fill="#F2F7F8"/>
<path d="M223.408 23.9717H196.855V200.921H223.408V23.9717Z" fill="#F2F7F8"/>
<path d="M671.447 88.7689C639.357 55.3802 577.367 67.1326 561.489 111.145C539.826 166.766 593.435 220.38 649.056 198.731C693.071 182.861 704.853 120.861 671.447 88.7665V88.7689ZM662.535 143.811C658.337 187.506 597.223 192.723 586.228 150.193C580.29 127.155 589.713 98.7384 615.66 94.1835C647.085 88.6566 666.557 113.974 662.535 143.811Z" fill="#F2F7F8"/>
<path d="M818.6 83.2063C807.053 70.0716 780.07 65.6608 762.84 72.5848C757.865 74.6949 753.693 77.0102 750.323 79.538C746.442 82.5738 743.326 85.9466 740.966 89.654H739.701V71.9522H713.148V200.92H739.701V131.378C739.701 125.649 740.585 120.466 742.356 115.826C745.775 106.76 752.318 100.014 761.069 96.2287C772.157 91.156 790.677 93.0879 797.862 101.287C802.92 106.513 805.448 114.859 805.448 126.32V200.918H832.001V123.79C832.001 105.922 827.531 92.3943 818.597 83.2039L818.6 83.2063Z" fill="#F2F7F8"/>
<path d="M434.954 90.877C434.947 90.8917 434.937 90.9063 434.93 90.9185H433.665V71.954H407.112V200.922H433.665V130.542C433.665 125.081 434.549 120.136 436.32 115.698C441.502 102.305 454.871 94.5991 469.068 94.7139H485.505V69.4263H469.955C454.686 69.4263 441.446 78.1477 434.954 90.8795V90.877Z" fill="#F2F7F8"/>
<path d="M101.981 34.9443H73.9604L84.5356 58.9668H97.8682C122.555 58.9668 142.64 79.0523 142.64 103.739C142.64 128.426 122.555 148.511 97.8682 148.511H84.5356L73.9604 172.534H101.981C139.915 172.534 170.776 141.673 170.776 103.739C170.776 65.8053 139.915 34.9443 101.981 34.9443Z" fill="#F2F7F8"/>
<path d="M29.3614 0H0.00732691L27.2561 61.8953C38.9938 88.5554 38.9938 118.923 27.2561 145.583L0 207.496H29.3541L56.1632 146.602C68.1867 119.292 68.1867 88.1867 56.1632 60.8768L29.3614 0Z" fill="#F2F7F8"/>
</svg>
