<svg width="960" height="119" viewBox="0 0 960 119" fill="none" xmlns="http://www.w3.org/2000/svg">
<g clip-path="url(#clip0_1_117)">
<path d="M267.354 11.5469H106.939V0.0209961H278.811V119.127H0V107.601H171.868L187.146 92.2322H26.7358V80.7064H198.604L213.882 65.3371H53.4716V53.8112H225.34L240.618 38.442H80.2074V26.9161H252.076L267.354 11.5469Z" fill="white"/>
<path d="M609.126 89.1644C602.751 94.8612 594.378 98.2246 584.952 98.2246C563.986 98.2246 548.174 81.6101 548.174 59.5719C548.174 37.5337 563.986 20.9192 584.952 20.9192C594.374 20.9192 602.751 24.2827 609.122 29.9753L620.242 18.7886C612.132 7.54819 597.393 -0.00610352 582.838 -0.00610352C551.077 -0.00610352 526.2 26.1609 526.2 59.5678C526.2 92.9747 551.077 119.142 582.838 119.142C597.393 119.142 612.132 111.587 620.242 100.347L609.122 89.1603L609.126 89.1644Z" fill="white"/>
<path d="M392.592 57.8239C385.975 53.0704 377.626 50.7081 369.549 48.4162C357.828 45.0941 347.711 42.2271 347.711 32.8939C347.711 26.1256 352.926 19.2705 362.895 19.2705C372.111 19.2705 378.35 23.9868 381.43 33.291L381.846 34.5487L398.024 18.2735C395.466 14.0702 392.094 10.4047 388.031 7.46742C381.278 2.58153 372.909 0 363.833 0C353.559 0 344.092 3.5041 337.175 9.86279C330.254 16.2256 326.441 24.9052 326.441 34.3088C326.441 44.4156 330.064 51.9534 337.52 57.3523C343.936 61.9982 352.087 64.3605 359.967 66.6483C371.951 70.1234 382.302 73.1269 382.302 83.1842C382.302 94.6521 372.728 99.8773 363.833 99.8773C352.206 99.8773 343.056 92.5257 338.721 79.7132L338.273 78.3852L321.638 95.1196C329.213 109.91 344.734 119.148 362.895 119.148C374.048 119.148 384.432 115.247 392.135 108.164C399.813 101.106 404.041 91.6486 404.041 81.5335C404.041 71.4183 400.295 63.3552 392.592 57.8239V57.8239Z" fill="white"/>
<path d="M825.89 57.8239C819.273 53.0704 810.924 50.7081 802.847 48.4162C791.127 45.0941 781.01 42.2271 781.01 32.8939C781.01 26.1256 786.224 19.2705 796.193 19.2705C805.41 19.2705 811.648 23.9868 814.729 33.291L815.144 34.5487L831.323 18.2735C828.765 14.0702 825.392 10.4047 821.329 7.46742C814.576 2.58153 806.207 0 797.131 0C786.858 0 777.391 3.5041 770.473 9.86279C763.552 16.2256 759.739 24.9052 759.739 34.3088C759.739 44.4156 763.363 51.9534 770.819 57.3523C777.234 61.9982 785.385 64.3605 793.265 66.6483C805.249 70.1234 815.6 73.1269 815.6 83.1842C815.6 94.6521 806.026 99.8773 797.131 99.8773C785.505 99.8773 776.354 92.5257 772.02 79.7132L771.571 78.3852L754.936 95.1196C762.511 109.91 778.032 119.148 796.193 119.148C807.347 119.148 817.731 115.247 825.434 108.164C833.112 101.106 837.339 91.6486 837.339 81.5335C837.339 71.4183 833.593 63.3552 825.89 57.8239V57.8239Z" fill="white"/>
<path d="M937.626 115.424H959.834V3.72337H937.626V18.9023C929.532 7.60394 914.744 0 900.144 0C868.383 0 843.506 26.167 843.506 59.5739C843.506 92.9808 868.383 119.148 900.144 119.148C914.744 119.148 929.532 111.544 937.626 100.245V115.424ZM902.254 98.2266C881.288 98.2266 865.475 81.6121 865.475 59.5739C865.475 37.5357 881.288 20.9212 902.254 20.9212C923.22 20.9212 939.033 37.5357 939.033 59.5739C939.033 81.6121 923.22 98.2266 902.254 98.2266Z" fill="white"/>
<path d="M718.676 115.424H740.884V3.72337H718.676V18.9023C710.582 7.60394 695.794 0 681.194 0C649.433 0 624.556 26.167 624.556 59.5739C624.556 92.9808 649.433 119.148 681.194 119.148C695.794 119.148 710.582 111.544 718.676 100.245V115.424ZM683.304 98.2266C662.338 98.2266 646.525 81.6121 646.525 59.5739C646.525 37.5357 662.338 20.9212 683.304 20.9212C704.27 20.9212 720.082 37.5357 720.082 59.5739C720.082 81.6121 704.27 98.2266 683.304 98.2266Z" fill="white"/>
<path d="M489.586 3.72388V70.91C489.586 88.1616 480.226 98.4629 464.54 98.4629C448.855 98.4629 439.495 88.1616 439.495 70.91V3.72388H417.287V72.7965C417.287 86.0062 422.123 97.9209 430.904 106.348C439.507 114.602 451.45 119.148 464.536 119.148C491.914 119.148 511.786 99.7537 511.786 73.0323V3.72388H489.578H489.586Z" fill="white"/>
</g>
<defs>
<clipPath id="clip0_1_117">
<rect width="960" height="119" fill="white"/>
</clipPath>
</defs>
</svg>
