<svg width="960" height="190" viewBox="0 0 960 190" fill="none" xmlns="http://www.w3.org/2000/svg">
<path d="M148.26 55.5957L168.395 8.18256C170.042 4.30291 167.194 0 162.977 0H61.5684C56.8454 0 52.5783 2.82238 50.733 7.16852L0.473854 125.512C-1.17316 129.392 1.67578 133.695 5.89242 133.695H48.4265L80.0711 59.1799C80.9938 57.006 83.1273 55.5957 85.4897 55.5957H148.26Z" fill="white"/>
<path d="M148.26 55.5957L116.616 130.11C115.693 132.284 113.559 133.695 111.197 133.695H48.4266L28.2912 181.108C26.6442 184.988 29.4932 189.29 33.7098 189.29H135.12C139.843 189.29 144.11 186.468 145.955 182.122L196.213 63.7783C197.86 59.8986 195.011 55.5957 190.794 55.5957H148.26Z" fill="white"/>
<path d="M535.91 162.777C533.151 162.777 530.913 160.542 530.913 157.783V101.753C530.913 69.8928 509.827 57.1498 484.327 57.1498C455.394 57.1498 438.475 72.3442 435.289 98.077H453.188C455.886 82.8826 466.182 73.5689 482.611 73.5689C501.245 73.5689 509.091 84.3523 509.091 101.263V105.674L473.538 108.86C450.246 111.312 431.611 122.585 431.611 144.887C431.611 165.964 448.285 179.442 472.803 179.442C491.682 179.442 500.755 173.314 510.807 160.816H513.014C516.937 170.865 523.803 176.5 538.269 176.5H548.569V162.776H535.91V162.777ZM509.091 131.652C509.091 151.994 493.155 162.777 477.706 162.777C465.202 162.777 454.169 157.632 454.169 144.152C454.169 132.389 462.259 126.016 476.481 124.546L509.091 120.87V131.654V131.652Z" fill="white"/>
<path d="M947.341 162.777C944.582 162.777 942.344 160.542 942.344 157.783V101.753C942.344 69.8928 921.257 57.1498 895.757 57.1498C866.825 57.1498 849.906 72.3442 846.72 98.077H864.619C867.316 82.8826 877.613 73.5689 894.042 73.5689C912.676 73.5689 920.522 84.3523 920.522 101.263V105.674L884.969 108.86C861.676 111.312 843.042 122.585 843.042 144.887C843.042 165.964 859.716 179.442 884.234 179.442C903.113 179.442 912.186 173.314 922.237 160.816H924.445C928.368 170.865 935.233 176.5 949.7 176.5H960V162.776H947.341V162.777ZM920.524 131.652C920.524 151.994 904.587 162.777 889.139 162.777C876.635 162.777 865.601 157.632 865.601 144.152C865.601 132.389 873.692 126.016 887.913 124.546L920.524 120.87V131.654V131.652Z" fill="white"/>
<path d="M681.556 162.777C678.797 162.777 676.561 160.542 676.561 157.783V101.508C676.561 76.2652 661.359 57.1498 634.632 57.1498C619.431 57.1498 605.699 62.2956 596.136 75.5304H595.646V59.7722H559.113V73.4969H567.847C570.606 73.4969 572.842 75.7321 572.842 78.4914V157.785C572.842 160.542 570.606 162.779 567.845 162.779H559.111V176.504H609.375V162.779H600.641C597.882 162.779 595.646 160.544 595.646 157.785V107.634C595.646 88.0285 608.152 75.0405 626.294 75.0405C644.437 75.0405 654.002 87.5385 654.002 107.146V157.785C654.002 160.542 651.765 162.779 649.005 162.779H640.27V176.504H690.535V162.779H681.556V162.777Z" fill="white"/>
<path d="M823.522 162.777C820.763 162.777 818.526 160.542 818.526 157.783V101.508C818.526 76.2652 803.325 57.1498 776.598 57.1498C761.396 57.1498 747.665 62.2956 738.102 75.5304H737.612V59.7722H701.078V73.4969H709.813C712.572 73.4969 714.808 75.7321 714.808 78.4914V157.785C714.808 160.542 712.572 162.779 709.811 162.779H701.077V176.504H751.341V162.779H742.607C739.848 162.779 737.612 160.544 737.612 157.785V107.634C737.612 88.0285 750.118 75.0405 768.26 75.0405C786.402 75.0405 795.967 87.5385 795.967 107.146V157.785C795.967 160.542 793.731 162.779 790.97 162.779H782.236V176.504H832.501V162.779H823.522V162.777Z" fill="white"/>
<path d="M415.309 162.777C412.55 162.777 410.314 160.542 410.314 157.783V12.7914H373.78V26.516H382.514C385.273 26.516 387.511 28.7512 387.511 31.5106V157.785C387.511 160.542 385.275 162.779 382.514 162.779H373.78V176.504H424.045V162.779H415.311L415.309 162.777Z" fill="white"/>
<path d="M309.727 12.7914H232.256V26.516H240.99C243.749 26.516 245.987 28.7512 245.987 31.5106V157.785C245.987 160.542 243.751 162.779 240.99 162.779H232.256V176.504H282.52V162.779H273.786C271.027 162.779 268.791 160.544 268.791 157.785V116.704H310.219C344.79 116.704 366.122 96.609 366.122 64.7488C366.122 32.8885 344.79 12.7932 309.729 12.7932L309.727 12.7914ZM307.031 99.3036H268.791V29.9454H307.031C331.551 29.9454 342.584 46.1196 342.584 64.747C342.584 83.3743 331.551 99.3017 307.031 99.3017V99.3036Z" fill="white"/>
</svg>
