<svg width="608" height="661" viewBox="0 0 608 661" fill="none" xmlns="http://www.w3.org/2000/svg">
<path d="M555.972 345.327C555.972 345.327 555.858 345.128 555.801 345.043C550.497 335.83 550.554 324.604 555.886 315.391C622.597 200.21 622.257 54.4134 544.087 13.5347C468.952 -31.7097 345.146 41.5431 280.307 157.999C275.202 167.156 265.445 172.599 254.979 172.57C121.784 172.202 -2.24964 243.81 0.246348 331.351C-2.278 419.147 123.088 490.84 256.368 489.82C266.92 489.735 276.677 495.149 282.066 504.192C450.686 786.63 720.65 656.141 555.972 345.327ZM234.557 375.575C235.266 380.111 231.437 384.079 226.87 383.597C145.978 375.235 84.5142 334.072 84.4858 284.491C82.7556 228.757 166.683 183.031 256.312 183.485C261.36 183.485 264.707 188.729 262.665 193.322C235.238 255.377 224.459 312.216 234.528 375.575H234.557ZM464.074 597.233C416.537 626.63 334.623 576.113 290.603 498.183C288.107 493.788 291.029 488.26 296.049 487.779C367.099 481.088 428.591 456.482 467.988 421.67C467.988 421.67 468.045 421.641 468.045 421.613C471.647 418.636 477.064 419.912 478.965 424.164C512.15 498.551 507.101 572.484 464.046 597.233H464.074ZM401.079 199.87C397.562 198.396 393.959 196.978 390.329 195.618C386.018 194.002 384.429 188.729 387.095 184.987C434.207 118.736 500.266 85.5118 543.463 109.892C593.468 135.774 591 233.747 545.874 310.968C543.321 315.334 537.11 315.617 534.16 311.535C497.429 260.678 456.331 222.889 401.135 199.87H401.079Z" fill="white"/>
</svg>
