<svg width="533" height="543" viewBox="0 0 533 543" fill="none" xmlns="http://www.w3.org/2000/svg">
<g clip-path="url(#clip0_1_976)">
<path d="M531.231 200.302C529.675 183.253 526.405 166.602 521.509 150.805C516.458 134.512 509.631 118.973 501.218 104.622C492.522 89.7891 482.041 76.0736 470.067 63.8535C452.137 45.5534 431.175 30.8574 407.764 20.171C385.375 9.95283 361.056 3.53876 335.473 1.10678C310.732 -1.24578 285.185 0.164663 259.542 5.29702C234.108 10.3883 208.955 19.07 184.759 31.1094C162.126 42.3874 141.619 57.8968 123.812 77.2047C87.4222 116.659 67.698 166.75 69.6972 214.631C70.4449 232.512 74.2024 249.445 80.8685 264.96C88.011 281.584 98.2812 296.113 111.394 308.141C127.024 322.479 145.677 332.42 166.837 337.695C186.336 342.556 207.041 343.202 228.373 339.62C266.23 333.261 302.841 314.005 332.598 285.008V329.566H360.453V191.617H359.946L355.951 201.685C347.828 221.995 335.84 240.824 320.32 257.65C306.755 272.357 291.336 284.575 274.487 293.971C258.093 303.11 241.026 309.218 223.753 312.118C206.222 315.062 189.344 314.564 173.582 310.636C156.988 306.501 142.407 298.748 130.248 287.593C120.059 278.248 112.068 266.929 106.492 253.953C101.171 241.569 98.1662 227.949 97.5609 213.472C96.7448 193.929 100.448 173.062 108.269 153.122C116.39 132.42 128.517 113.241 144.311 96.1183C159.812 79.3108 177.605 65.8391 197.195 56.0783C219.176 45.1398 241.993 37.2578 265.014 32.6486C287.987 28.0503 310.803 26.7822 332.833 28.8746C378.937 33.2566 419.502 52.1044 450.146 83.3751C470.785 104.439 485.831 129.903 494.869 159.065C499.188 173.002 502.077 187.731 503.458 202.841C504.819 217.745 504.72 233.15 503.167 248.632C500.032 279.905 491.18 310.96 476.857 340.938C462.076 371.877 442.072 400.327 417.407 425.501C403.374 439.824 388.084 452.77 371.964 463.983C356.263 474.902 339.655 484.26 322.607 491.791C305.824 499.208 288.534 504.891 271.215 508.687C253.947 512.472 236.6 514.389 219.653 514.389C193.186 514.389 168.023 509.785 144.859 500.703C120.761 491.255 99.4589 477.194 81.5422 458.91C60.6595 437.598 45.5089 411.794 36.5095 382.213C32.2097 368.081 29.3779 353.152 28.0907 337.837C28.0441 337.276 28.003 336.714 27.9592 336.15H-0.000335693C0.0900419 337.495 0.188636 338.837 0.300923 340.173C1.75244 357.444 4.95948 374.317 9.82891 390.328C14.8545 406.845 21.6958 422.592 30.1666 437.135C38.925 452.168 49.5074 466.061 61.6235 478.427C82.3118 499.542 106.892 515.772 134.679 526.666C161.099 537.024 189.689 542.277 219.653 542.277C297.424 542.277 376.762 506.827 437.326 445.017C464.146 417.646 485.911 386.671 502.02 352.958C517.735 320.063 527.457 285.9 530.916 251.412C532.644 234.169 532.751 216.972 531.228 200.305L531.231 200.302Z" fill="white"/>
<path d="M473.56 165.665C465.582 139.924 452.343 117.488 434.21 98.9828C407.302 71.5217 371.515 54.9552 330.722 51.0772C310.861 49.1902 290.228 50.346 269.394 54.517C248.301 58.7401 227.358 65.9813 207.143 76.0406C189.993 84.5854 174.369 96.4304 160.714 111.236C146.804 126.318 136.147 143.147 129.043 161.261C122.344 178.334 119.167 196.065 119.855 212.533C120.345 224.287 122.747 235.256 126.992 245.137C131.314 255.196 137.484 263.944 145.33 271.144C164.058 288.321 190.596 295.056 220.056 290.11C234.804 287.631 249.462 282.373 263.621 274.48C278.402 266.239 291.961 255.487 303.918 242.519C317.582 227.705 328.115 211.185 335.225 193.419L339.661 182.245H240.739V210.101H294.44C291.101 214.759 287.423 219.27 283.419 223.614C273.467 234.404 262.238 243.321 250.04 250.122C238.674 256.459 227.032 260.66 215.436 262.607C203.391 264.631 180.715 265.76 164.181 250.595C151.438 238.907 148.195 222.814 147.716 211.372C147.187 198.746 149.707 184.943 155.001 171.449C160.755 156.781 169.82 142.498 181.21 130.147C192.562 117.839 205.473 108.034 219.566 101.009C237.579 92.0457 256.185 85.6042 274.866 81.8659C293.029 78.2316 310.932 77.2128 328.082 78.8423C344.983 80.4472 360.881 84.6073 375.336 91.2076C389.991 97.8956 403.096 107.081 414.289 118.504C429.289 133.811 440.265 152.459 446.921 173.922C453.581 195.416 455.701 218.865 453.22 243.617C450.664 269.101 443.379 294.56 431.565 319.291C419.169 345.232 402.345 369.143 381.556 390.363C369.719 402.443 356.85 413.346 343.304 422.765C330.229 431.857 316.443 439.63 302.322 445.869C288.601 451.932 274.521 456.566 260.471 459.644C246.729 462.657 232.997 464.182 219.656 464.182C199.486 464.182 180.487 460.743 163.184 453.959C145.728 447.115 130.325 436.957 117.401 423.77C102.22 408.28 91.1641 389.377 84.5391 367.593C81.4718 357.509 79.4013 347.004 78.3277 336.145H50.3408C51.5048 349.827 54.0326 363.14 57.8558 375.711C65.8009 401.827 79.1329 424.561 97.4796 443.289C113.175 459.307 131.856 471.634 153.002 479.924C173.558 487.985 195.983 492.071 219.654 492.071C234.996 492.071 250.738 490.326 266.439 486.886C282.305 483.411 298.167 478.191 313.589 471.377C329.336 464.421 344.69 455.766 359.224 445.658C374.199 435.242 388.413 423.206 401.472 409.879C424.414 386.463 443.004 360.029 456.725 331.311C469.934 303.666 478.09 275.099 480.965 246.397C483.822 217.906 481.33 190.744 473.557 165.662L473.56 165.665Z" fill="white"/>
</g>
<defs>
<clipPath id="clip0_1_976">
<rect width="532.299" height="542.271" fill="white"/>
</clipPath>
</defs>
</svg>
