<svg fill="none" height="311" viewBox="0 0 669 311" width="669" xmlns="http://www.w3.org/2000/svg" xmlns:xlink="http://www.w3.org/1999/xlink"><clipPath id="a"><path d="m0 .587891h669v309.588h-669z"/></clipPath><g clip-path="url(#a)" fill="#fff"><path d="m300.267 113.804c-.879-9.636-2.727-19.0483-5.495-27.9772-2.854-9.209-6.714-17.9924-11.469-26.1039-4.915-8.384-10.839-16.1364-17.607-23.0436-10.135-10.3437-21.983-18.6503-35.216-24.6906-12.654-5.77558-26.401-9.401-40.861-10.77563-13.984-1.329731-28.424-.53251-42.918 2.36844-14.376 2.87774-28.593 7.78489-42.27 14.58989-12.7924 6.3747-24.3838 15.141-34.4489 26.0544-20.5683 22.3006-31.717 50.6135-30.587 77.6772.4226 10.107 2.5465 19.678 6.3143 28.448 4.0372 9.396 9.8422 17.608 17.254 24.407 8.8345 8.104 19.3779 13.723 31.3378 16.704 11.0218 2.748 22.7248 3.113 34.7818 1.089 21.398-3.595 42.092-14.479 58.911-30.869v25.186h15.745v-77.973h-.287l-2.258 5.691c-4.592 11.48-11.367 22.122-20.14 31.633-7.667 8.313-16.382 15.218-25.906 20.53-9.266 5.165-18.913 8.617-28.676 10.257-9.909 1.664-19.449 1.382-28.3581-.838-9.3793-2.337-17.6209-6.72-24.494-13.025-5.7586-5.281-10.2757-11.679-13.4274-19.014-3.0078-7-4.7059-14.698-5.048-22.881-.4613-11.046 1.6316-22.8406 6.0527-34.1116 4.5898-11.7013 11.4443-22.5419 20.3717-32.2201 8.7617-9.5 18.8191-17.1147 29.8921-22.6317 12.424-6.1828 25.32-10.6379 38.333-13.2432 12.985-2.5991 25.881-3.3158 38.333-2.1331 26.059 2.4768 48.988 13.1301 66.309 30.8052 11.666 11.9057 20.17 26.299 25.279 42.7821 2.441 7.8778 4.074 16.2034 4.854 24.7434.77 8.424.714 17.132-.164 25.882-1.772 17.677-6.775 35.23-14.872 52.174-8.354 17.488-19.661 33.569-33.602 47.798-7.932 8.096-16.574 15.413-25.686 21.751-8.875 6.172-18.262 11.461-27.898 15.718-9.486 4.192-19.259 7.404-29.048 9.55-9.761 2.139-19.566 3.223-29.145 3.223-14.959 0-29.1825-2.602-42.2755-7.735-13.6209-5.341-25.6613-13.289-35.7883-23.623-11.8035-12.047-20.3671-26.632-25.4538-43.352-2.4303-7.987-4.031-16.426-4.7585-25.082-.0264-.317-.0496-.635-.0743-.954h-15.8036c.0510841.76.106812 1.519.17028 2.274.820441 9.762 2.63315 19.299 5.3855 28.349 2.84058 9.336 6.70752 18.237 11.49542 26.457 4.9506 8.497 10.932 16.35 17.7804 23.339 11.6936 11.935 25.5869 21.109 41.2929 27.267 14.9336 5.854 31.0935 8.823 48.0295 8.823 43.959 0 88.803-20.037 123.036-54.974 15.159-15.471 27.461-32.979 36.566-52.035 8.883-18.593 14.378-37.902 16.333-57.396.977-9.747 1.038-19.466.177-28.888z"/><path d="m267.669 94.2264c-4.509-14.5497-11.992-27.2309-22.242-37.6908-15.209-15.5218-35.437-24.8857-58.494-27.0776-11.226-1.0666-22.889-.4133-34.664 1.9443-11.923 2.387-23.761 6.4799-35.187 12.1657-9.693 4.8298-18.5245 11.5249-26.2428 19.8934-7.8623 8.5248-13.8856 18.0373-17.9011 28.2758-3.7864 9.6498-5.5821 19.6718-5.1935 28.9798.2771 6.644 1.6347 12.844 4.0341 18.429 2.4427 5.686 5.9304 10.63 10.3654 14.7 10.5852 9.709 25.5849 13.516 42.2369 10.72 8.336-1.401 16.621-4.373 24.624-8.834 8.355-4.658 16.019-10.736 22.778-18.066 7.723-8.373 13.676-17.71 17.695-27.752l2.508-6.316h-55.914v15.745h30.353c-1.887 2.633-3.966 5.182-6.229 7.638-5.626 6.099-11.972 11.139-18.867 14.983-6.424 3.582-13.005 5.956-19.559 7.057-6.808 1.144-19.626 1.782-28.971-6.79-7.2029-6.606-9.0357-15.702-9.3066-22.17-.2988-7.136 1.1254-14.938 4.1177-22.5652 3.2523-8.2911 8.3762-16.364 14.8139-23.3455 6.417-6.9567 13.714-12.4985 21.68-16.4692 10.181-5.0666 20.699-8.7075 31.257-10.8205 10.267-2.0542 20.386-2.63 30.08-1.709 9.552.9071 18.539 3.2586 26.709 6.9892 8.283 3.7803 15.69 8.9723 22.017 15.429 8.479 8.6518 14.683 19.1921 18.445 31.3238 3.764 12.1484 4.962 25.4024 3.56 39.3934-1.444 14.404-5.562 28.795-12.24 42.773-7.006 14.663-16.516 28.178-28.267 40.172-6.69 6.828-13.964 12.991-21.621 18.315-7.39 5.139-15.182 9.532-23.164 13.059-7.755 3.427-15.714 6.046-23.655 7.786-7.768 1.703-15.529 2.565-23.07 2.565-11.401 0-22.139-1.944-31.9195-5.779-9.867-3.868-18.5729-9.61-25.8779-17.063-8.5806-8.756-14.8299-19.44-18.5745-31.753-1.7338-5.7-2.9041-11.638-3.5109-17.776h-15.819c.6579 7.734 2.0867 15.259 4.2477 22.364 4.4908 14.762 12.0264 27.612 22.3965 38.197 8.8716 9.055 19.4305 16.022 31.3826 20.708 11.6193 4.556 24.294 6.865 37.674 6.865 8.672 0 17.57-.986 26.444-2.93 8.968-1.964 17.934-4.915 26.651-8.766 8.901-3.932 17.579-8.824 25.794-14.538 8.465-5.887 16.499-12.69 23.88-20.223 12.967-13.235 23.475-28.176 31.23-44.409 7.466-15.625 12.076-31.773 13.702-47.996 1.614-16.103.206-31.457-4.188-45.6332z"/><path d="m355.151 86.0271c3.537 3.5759 7.69 6.3329 12.46 8.2694 4.766 1.9366 9.87 2.9056 15.308 2.9056 6.853 0 13.091-1.4892 18.717-4.4691 5.624-2.9783 10.093-7.3359 13.408-13.0744 3.315-5.7353 4.973-12.6998 4.973-20.8965 0-.9675-.039-1.9551-.112-2.9613-.074-1.0062-.15-2.0294-.223-3.0728h-36.763v12.6271h21.09c-.392 3.017-1.201 5.6982-2.431 8.0449-1.639 3.1286-4.023 5.514-7.151 7.1518-3.129 1.6393-6.966 2.4582-11.51 2.4582-4.173 0-7.989-1.0619-11.453-3.1842-3.465-2.1239-6.24-5.1409-8.326-9.0512-2.086-3.9102-3.128-8.5852-3.128-14.0233 0-4.096.576-7.7834 1.732-11.062 1.155-3.2772 2.756-6.0341 4.805-8.2695 2.048-2.2353 4.469-3.9474 7.263-5.1409 2.795-1.1904 5.829-1.7879 9.107-1.7879 5.065 0 9.387 1.2848 12.962 3.8545 3.574 2.5697 6.442 6.4629 8.603 11.6766l13.298-7.0403c-1.938-5.0651-4.749-9.2741-8.437-12.6271-3.687-3.3529-7.822-5.8669-12.402-7.5434-4.582-1.6765-9.257-2.5139-14.024-2.5139-5.662 0-10.878.9504-15.644 2.8498-4.768 1.8994-8.902 4.6564-12.404 8.2695-3.502 3.6145-6.221 7.8963-8.156 12.8499-1.938 4.9552-2.906 10.4475-2.906 16.4816s1.006 11.528 3.017 16.4816c2.011 4.9551 4.786 9.2183 8.325 12.7942z"/><path d="m442.926 65.6894c0-4.2462 1.079-7.5047 3.24-9.7772 2.159-2.2709 4.877-3.4087 8.158-3.4087h6.034v-15.6441h-2.906c-3.056 0-5.83.7647-8.325 2.291-2.497 1.5279-4.563 3.9675-6.201 7.319v-8.158h-14.638v57.547h14.638v-30.1706z"/><path d="m514.101 88.8211c2.718-2.6812 4.805-5.867 6.257-9.5543s2.18-7.7663 2.18-12.2354c0-5.9583-1.305-11.2106-3.91-15.7556-2.609-4.5434-6.146-8.0821-10.617-10.6162-4.469-2.531-9.573-3.7988-15.308-3.7988-4.246 0-8.195.7261-11.845 2.1796-3.65 1.452-6.816 3.5388-9.499 6.257-2.681 2.7199-4.768 5.9227-6.257 9.61-1.49 3.6874-2.235 7.7292-2.235 12.124 0 5.8855 1.285 11.1177 3.854 15.6998 2.57 4.5821 6.107 8.1394 10.617 10.672 4.506 2.5309 9.627 3.7987 15.364 3.7987 4.319 0 8.286-.726 11.901-2.1795 3.613-1.4521 6.778-3.5202 9.498-6.2013zm-15.533-5.754c-1.826.7818-3.781 1.1734-5.866 1.1734-2.757 0-5.253-.6703-7.487-2.0108-2.235-1.3406-3.986-3.2957-5.252-5.867-1.268-2.5696-1.899-5.6796-1.899-9.3298 0-2.7554.371-5.1765 1.117-7.2632.743-2.0851 1.77-3.8731 3.073-5.3638 1.302-1.4892 2.85-2.6068 4.638-3.353 1.788-.743 3.724-1.1176 5.811-1.1176 2.83 0 5.364.6702 7.598 2.0108 2.235 1.3406 4.003 3.2787 5.308 5.8112 1.302 2.5341 1.955 5.6255 1.955 9.2741 0 2.6811-.373 5.1038-1.118 7.2632-.746 2.161-1.788 3.9675-3.128 5.4196-1.341 1.452-2.924 2.5697-4.75 3.3529z"/><path d="m565.119 59.8798c1.341 4.3964 2.384 7.8608 3.129 10.3918l7.71 25.5884h14.527l17.432-57.5469h-15.308l-6.928 25.5884c-.521 1.7152-1.006 3.4087-1.452 5.0837-.446 1.6749-.932 3.5944-1.452 5.7554-1.34-4.469-2.421-8.0449-3.24-10.7276l-7.71-25.7015h-13.075l-7.599 25.7015c-.522 1.7879-1.025 3.5202-1.509 5.1966-.486 1.6765-1.062 3.5589-1.732 5.6425-.522-2.0852-1.007-3.9675-1.452-5.6425-.448-1.6764-.932-3.4087-1.453-5.1966l-6.927-25.7015h-15.533l17.544 57.547h14.415l7.599-25.5885c.819-2.531 1.825-5.9954 3.017-10.3917z"/><path d="m383.898 147.982-23.689-32.628h-14.638v78.219h15.42v-53.413c1.19 1.491 2.235 2.85 3.128 4.079s1.825 2.514 2.794 3.855l15.533 21.008h2.57l15.644-21.231c1.489-2.011 3.388-4.582 5.698-7.711v53.413h15.421v-78.219h-14.526z"/><path d="m436.919 213.073h15.979l34.808-76.803h-16.091l-10.728 23.355c-.82 1.862-1.899 4.357-3.24 7.486-1.341-3.203-2.385-5.735-3.129-7.599l-9.721-23.242h-16.762l22.126 47.378-13.24 29.425z"/><path d="m383.898 245.702-23.689-32.629h-14.638v78.219h15.42v-53.413c1.19 1.491 2.235 2.85 3.128 4.079.893 1.23 1.825 2.514 2.794 3.855l15.533 21.008h2.57l15.644-21.231c1.489-2.011 3.388-4.582 5.698-7.711v53.413h15.421v-78.219h-14.526z"/><path d="m474.682 236.092c-4.469-2.531-9.573-3.799-15.308-3.799-4.246 0-8.195.726-11.845 2.18-3.65 1.452-6.816 3.538-9.499 6.257-2.681 2.719-4.768 5.922-6.257 9.61-1.491 3.687-2.235 7.729-2.235 12.124 0 5.885 1.285 11.117 3.854 15.699 2.57 4.582 6.107 8.14 10.617 10.672 4.506 2.531 9.627 3.799 15.363 3.799 4.319 0 8.287-.726 11.901-2.18 3.614-1.452 6.779-3.52 9.499-6.201 2.718-2.681 4.805-5.867 6.257-9.554s2.18-7.766 2.18-12.235c0-5.959-1.305-11.211-3.912-15.756-2.609-4.543-6.146-8.082-10.616-10.616zm-1.565 33.635c-.746 2.161-1.788 3.967-3.128 5.419-1.341 1.452-2.925 2.57-4.75 3.353-1.826.782-3.781 1.174-5.867 1.174-2.757 0-5.252-.671-7.486-2.011-2.233-1.341-3.986-3.296-5.252-5.867-1.268-2.57-1.899-5.68-1.899-9.33 0-2.755.371-5.176 1.117-7.263.743-2.085 1.77-3.873 3.073-5.364 1.302-1.489 2.85-2.607 4.638-3.353 1.788-.743 3.724-1.118 5.811-1.118 2.83 0 5.364.671 7.599 2.011 2.235 1.341 4.003 3.279 5.308 5.811 1.302 2.535 1.955 5.626 1.955 9.275 0 2.681-.373 5.103-1.117 7.263z"/><path d="m537.648 234.974c-3.091-1.788-6.576-2.681-10.447-2.681-4.098 0-7.749 1.08-10.951 3.24-1.925 1.299-3.526 3.125-4.805 5.474v-7.262h-14.638v57.547h14.638v-33.858c0-4.023 1.079-7.076 3.24-9.163 2.16-2.085 4.917-3.128 8.27-3.128 2.829 0 5.196.988 7.096 2.961 1.899 1.975 2.85 4.824 2.85 8.548v34.64h14.637v-37.211c0-4.395-.876-8.231-2.625-11.509-1.751-3.277-4.173-5.812-7.263-7.599z"/><path d="m596.927 236.092c-4.098-2.531-8.828-3.799-14.191-3.799-4.173 0-7.953.726-11.342 2.18-3.39 1.452-6.351 3.52-8.884 6.201-2.534 2.681-4.489 5.867-5.867 9.554-1.379 3.687-2.066 7.766-2.066 12.236 0 6.034 1.229 11.323 3.687 15.867s5.847 8.065 10.169 10.558c4.319 2.496 9.311 3.744 14.974 3.744 3.947 0 7.654-.671 11.117-2.011 3.463-1.341 6.517-3.409 9.163-6.202 2.644-2.794 4.71-6.312 6.201-10.559l-12.291-4.582c-.969 2.609-2.18 4.694-3.632 6.257-1.452 1.565-3.091 2.72-4.916 3.465-1.827.746-3.893 1.117-6.201 1.117-2.681 0-5.028-.614-7.041-1.843-2.01-1.229-3.594-3.146-4.749-5.756-.834-1.882-1.365-4.156-1.597-6.816h40.427c.073-.52.112-1.097.112-1.732v-1.62c0-5.96-1.157-11.193-3.465-15.7-2.309-4.507-5.514-8.027-9.61-10.559zm-24.081 12.515c1.155-1.565 2.551-2.699 4.191-3.408 1.637-.708 3.537-1.062 5.698-1.062 3.873 0 7.001 1.452 9.387 4.357 1.458 1.779 2.47 4.202 3.037 7.264h-25.256c.095-.482.2-.948.318-1.397.596-2.271 1.47-4.19 2.625-5.755z"/><path d="m652.91 233.745-10.728 23.354c-.82 1.863-1.899 4.358-3.24 7.486-1.341-3.202-2.385-5.735-3.128-7.599l-9.722-23.241h-16.762l22.126 47.378-13.075 29.053h15.979l34.64-76.431h-16.092z"/></g></svg>