<svg width="593" height="595" viewBox="0 0 593 595" fill="none" xmlns="http://www.w3.org/2000/svg">
<path d="M306.795 70.8889C379.385 139.733 459.223 201.484 544.025 254.491L592.999 285.083C586.561 126.556 456.299 0 296.524 0C276.521 0 256.986 1.9705 238.089 5.76372L306.771 70.8889H306.795Z" fill="white"/>
<path d="M292.643 85.9132L214.279 11.6006C168.696 24.7537 127.634 48.5722 93.895 80.1987C229.146 167.27 376.585 231.583 532.256 271.485C446.619 217.888 365.994 155.472 292.643 85.9132Z" fill="white"/>
<path d="M510.434 287.103C358.253 246.24 214.057 182.272 81.411 96.7031L79.0028 95.1514C32.0434 145.867 2.50647 213.037 0 287.103H510.434Z" fill="white"/>
<path d="M84.0649 496.468C216.121 411.737 359.604 348.311 510.926 307.768H0C2.50647 381.81 32.0434 448.979 79.0028 499.695L84.0649 496.444V496.468Z" fill="white"/>
<path d="M540.807 342.572C458.118 394.544 380.172 454.916 309.155 522.011L238.139 589.107C257.011 592.9 276.547 594.871 296.549 594.871C456.299 594.871 586.537 468.315 593 309.788L540.807 342.597V342.572Z" fill="white"/>
<path d="M295.027 506.96C367.051 438.953 446.053 377.744 529.873 325.058L532.453 323.432C377.224 363.187 230.129 427.228 95.1728 513.832L93.895 514.645C127.609 546.247 168.671 570.065 214.279 583.243L295.076 506.96H295.027Z" fill="white"/>
</svg>
