<svg width="960" height="199" viewBox="0 0 960 199" fill="none" xmlns="http://www.w3.org/2000/svg">
<g clip-path="url(#clip0_1_441)">
<path d="M547.614 143.84C548.305 147.038 549.382 149.32 551.009 151.026C554.067 154.231 559.081 155.484 568.904 155.484H580.355V142.44H572.431C567.581 142.44 565.181 141.723 563.865 139.877C562.558 138.039 562.32 135.172 562.32 129.832V73.1069H580.347V60.5983H562.32V33.999H546.661V60.5983H531.643V73.1069H546.661V131.777C546.661 137.018 546.965 140.849 547.606 143.84H547.614ZM851.864 73.4694L869.077 73.4447L869.061 60.59L848.355 60.6148C839.625 60.6148 834.01 62.9302 830.681 67.8661C827.706 72.2911 826.382 79.0645 826.39 89.8097L826.456 154.511H841.902L841.836 88.7549C841.836 83.3164 842.066 79.8967 843.34 77.4329C844.754 74.689 847.385 73.4612 851.856 73.4612L851.864 73.4694ZM960 60.59H941.776L908.476 107.534L941.776 154.47H960L926.692 107.534L960 60.59ZM323.576 154.478C323.033 143.363 325.072 89.9992 321.94 80.3747C319.729 71.739 315.175 65.1221 307.185 61.6365C291.632 55.4729 270.318 59.7743 262.163 75.4059V60.59H246.718V154.47H262.163V103.488C261.908 85.8214 269.981 72.2746 287.243 72.3817C304.505 71.6154 308.697 85.8956 308.122 99.805V154.462H323.576V154.478ZM412.912 99.3518C411.58 63.2022 358.273 63.128 356.949 99.3518H412.912ZM429.237 112.561H356.785C357.007 126.009 363.78 136.861 375.691 141.335C389.599 146.222 406.303 141.764 411.942 127.591H427.93C422.915 146.082 405.423 156.967 386.073 156.761C357.656 157.593 339.383 134.447 340.123 107.716C338.24 54.8549 409.919 38.9843 426.672 89.8179C428.867 96.8221 429.738 104.469 429.237 112.561ZM478.508 94.6961L454.316 60.5983H436.101L469.4 107.543L436.101 154.478H454.316L478.508 120.381L502.7 154.478H520.924L487.616 107.543C487.665 107.477 520.85 60.6972 520.924 60.5983H502.7L478.508 94.6961ZM885.633 33.999V154.52H901.078V33.999H885.633ZM775.656 74.8043C751.99 66.6383 736.019 84.4865 736.964 107.889C736.882 121.765 741.436 135.724 754.604 140.973C769.179 146.988 786.531 138.855 790.945 123.52C796.116 107.032 793.79 81.8991 775.656 74.8043ZM781.188 153.506C737.194 167.762 709.525 125.737 724.544 86.0604C734.86 58.0273 774.53 50.8419 795.475 70.9974C818.721 93.1634 813.592 142.547 781.188 153.506ZM714.54 60.59L687.553 154.47H673.39C673.119 153.498 652.651 78.809 652.388 77.8532L632.084 154.47H617.921L590.942 60.59H607.596L625.796 131.085L644.702 60.59H660.788L679.695 131.085L697.894 60.59H714.548H714.54Z" fill="white"/>
<path d="M184.574 135.633C179.905 146.683 173.238 156.613 164.722 165.133C156.215 173.661 146.318 180.353 135.295 185.033C123.885 189.878 111.76 192.325 99.2494 192.325C93.8735 192.325 88.5715 191.872 83.3682 190.966L103.335 172.112C126.294 150.424 151.496 130.903 178.228 114.102L191.651 105.664C190.977 116.022 188.61 126.075 184.582 135.633H184.574ZM36.6534 167.885C79.5952 140.684 126.302 120.512 175.532 107.913L174.702 108.441C147.608 125.473 122.06 145.258 98.7809 167.242L75.4933 189.235C71.3257 188.123 67.2239 186.722 63.2207 185.025C53.4142 180.872 44.4954 175.104 36.6616 167.885H36.6534ZM13.9331 135.633C9.53531 125.209 7.11038 114.2 6.71582 102.846H168.553C120.104 115.832 74.137 136.07 31.7871 163.081C24.2328 155.03 18.2239 145.81 13.9331 135.641V135.633ZM13.9331 63.3669C18.2239 53.1903 24.2246 43.9778 31.7871 35.9271C74.0959 62.9219 119.997 83.1598 168.397 96.1627H6.72404C7.1186 84.8078 9.54353 73.7907 13.9413 63.3751L13.9331 63.3669ZM63.2125 13.9753C67.2239 12.2778 71.3093 10.877 75.4769 9.7646L97.9917 31.1149C121.707 53.6023 147.764 73.7907 175.458 91.1115C126.244 78.4876 79.5787 58.3239 36.6534 31.1149C44.4871 23.8965 53.4142 18.1284 63.2207 13.9753H63.2125ZM135.303 13.9753C146.326 18.6557 156.231 25.3385 164.731 33.8753C173.238 42.4039 179.913 52.3251 184.582 63.3751C188.618 72.9337 190.986 83.0032 191.66 93.3693L179.272 85.6236C151.858 68.4923 126.047 48.5263 102.579 26.2614L83.36 8.0424C88.5715 7.13598 93.8817 6.68277 99.2658 6.68277C111.769 6.68277 123.893 9.13834 135.311 13.9753H135.303ZM190.714 60.763C185.717 48.9136 178.557 38.2756 169.441 29.1372C160.325 19.9989 149.713 12.8299 137.892 7.81168C125.661 2.63685 112.656 0 99.2576 0C85.8589 0 72.8629 2.63685 60.6232 7.81992C48.8027 12.8299 38.1906 20.0071 29.0745 29.1455C19.9584 38.2838 12.7987 48.9219 7.80087 60.7712C2.62221 73.0408 0 86.0685 0 99.5C0 112.931 2.62221 125.967 7.80087 138.237C12.7987 150.086 19.9584 160.724 29.0745 169.863C38.1906 179.001 48.8027 186.17 60.6232 191.188C72.8629 196.38 85.8589 199.008 99.2576 199.008C112.656 199.008 125.661 196.371 137.9 191.188C149.721 186.178 160.333 179.001 169.449 169.863C178.565 160.724 185.717 150.086 190.723 138.237C195.901 125.967 198.523 112.931 198.523 99.5C198.523 86.0685 195.893 73.0408 190.723 60.763H190.714Z" fill="white"/>
</g>
<defs>
<clipPath id="clip0_1_441">
<rect width="960" height="199" fill="white"/>
</clipPath>
</defs>
</svg>
