<svg width="931" height="209" viewBox="0 0 931 209" fill="none" xmlns="http://www.w3.org/2000/svg">
<g clip-path="url(#clip0_1_668)">
<path d="M119.703 104.488C119.703 167.469 138.349 208.985 181.578 208.985C224.808 208.985 243.453 167.469 243.453 104.488C243.453 41.5064 224.803 -0.0100098 181.578 -0.0100098C138.353 -0.0100098 119.703 41.2268 119.703 104.488ZM196.268 98.8405V110.419C196.268 160.693 191.747 174.249 181.578 174.249C171.409 174.249 166.889 160.693 166.889 110.419V98.8405C166.889 48.2868 171.409 34.7309 181.578 34.7309C191.747 34.7309 196.268 48.2868 196.268 98.8405Z" fill="white"/>
<path d="M55.3979 206.444C93.8225 206.444 114.166 181.873 114.166 148.545C114.166 124.255 102.299 107.593 81.9599 101.382C96.0851 96.0146 110.78 81.8945 110.78 56.1957C110.78 22.5881 90.7207 2.53638 54.8384 2.53638H0.870117V2.77678C3.61859 30.7668 5.2235 64.5951 5.2235 101.034C5.2235 137.472 3.61859 171.296 0.870117 199.286V206.444H55.3979ZM44.3794 88.1057V34.4464H48.0506C61.896 34.4464 70.3721 44.0479 70.3721 61.2785C70.3721 78.5092 61.3316 88.1106 48.0506 88.1106H44.3794V88.1057ZM44.3794 174.534V118.897H48.615C63.5893 118.897 72.0654 129.063 72.0654 146.293C72.0654 163.524 63.5893 174.539 48.615 174.539H44.3794V174.534Z" fill="white"/>
<path d="M243.447 35.8594V2.53141H345.16V35.8594H316.62V206.449H271.982V35.8594H243.447ZM334.436 206.444L367.781 2.53141H422.874L455.929 206.444H412.42L406.206 163.799H375.408L369.195 206.444H334.441H334.436ZM379.929 130.471H401.116L390.378 57.8883L379.929 130.471ZM464.027 2.53141H508.945V173.121H551.046V206.449H464.027V2.53141ZM561.421 2.53141H606.344V173.121H648.44V206.449H561.421V2.53141ZM769.235 104.488C769.235 167.469 750.59 208.985 707.36 208.985C664.131 208.985 645.485 167.469 645.485 104.488C645.485 41.5064 664.135 -0.0100098 707.365 -0.0100098C750.595 -0.0100098 769.24 41.2268 769.24 104.488H769.235ZM692.671 110.419C692.671 160.693 697.191 174.249 707.365 174.249C717.539 174.249 722.055 160.693 722.055 110.419V98.8405C722.055 48.2868 717.534 34.7309 707.365 34.7309C697.196 34.7309 692.671 48.2868 692.671 98.8405V110.419ZM837.633 2.53141H870.408L882.276 118.328L894.708 2.53141H930.875L904.597 206.444H864.48L849.505 88.6699L836.229 206.444H796.111L769.824 2.53141H813.333L825.765 118.043L837.633 2.53141Z" fill="white"/>
</g>
<defs>
<clipPath id="clip0_1_668">
<rect width="930" height="209" fill="white" transform="translate(0.870117 -0.0100098)"/>
</clipPath>
</defs>
</svg>
