<svg width="832" height="835" viewBox="0 0 832 835" fill="none" xmlns="http://www.w3.org/2000/svg">
<path d="M812.485 381.234C811.88 376.844 635.844 400.532 669.75 375.028L726.738 361.178C750.805 355.729 741.799 317.737 717.732 324.018C713.191 322.732 635.769 352.247 656.732 326.289L784.634 266.803C807.036 256.813 791.067 221.243 768.514 232.141C766.244 228.281 612.762 317.585 634.331 281.031L681.632 246.445C701.687 232.292 678.983 200.506 659.079 215.567C654.386 216.172 594.068 273.009 603.604 240.996L699.114 137.085C715.991 119.3 687.611 92.5084 670.961 111.202C667.404 108.553 559.709 249.775 565.688 207.771L596.187 157.67C609.28 136.933 576.207 116.272 563.493 137.766C559.33 140.112 525.501 215.642 521.944 182.494L570.38 49.9754C579.159 27.0439 542.68 13.2698 534.507 36.8824C530.571 39.3042 488.492 182.115 478.881 173.185C467.15 173.109 484.708 113.624 483.195 108.402C487.357 84.1078 448.835 77.9018 445.429 102.574C442.478 106.282 440.132 189.154 424.163 159.865C416.822 143.291 434.91 -6.02894 398.28 0.555358C354.385 -12.1591 408.421 198.009 373.835 163.195L359.985 106.207C354.46 82.2157 316.619 91.0705 322.825 115.213C321.539 119.754 351.054 197.176 325.096 176.212L265.61 48.3104C259.253 33.1741 235.413 34.0065 230.342 49.8239C214.828 61.1761 317.754 208.528 279.838 198.614C266.518 183.251 229.813 110.823 210.968 159.714C204.308 175.91 256.831 215.037 248.052 229.492C243.738 241.526 139.979 134.057 135.967 133.982C124.312 122.478 102.592 132.317 103.954 148.891C91.3152 159.789 252.82 273.085 206.654 267.408L156.553 236.909C147.547 231.46 135.74 234.26 130.291 243.266C112.96 269.149 174.111 288.297 186.75 300.027C208.622 337.414 35.9164 246.218 34.2514 263.322C19.1907 269.906 19.9475 293.367 35.765 298.589C34.6297 302.903 206.351 348.312 165.18 358.907L107.284 349.901C82.9903 345.739 76.7843 384.261 101.457 387.667C105.165 390.618 188.036 392.964 158.747 408.933L17.7527 414.912C-6.76812 415.593 -5.55716 454.493 19.3421 453.131C19.9475 457.521 195.983 433.832 162.077 459.337L105.089 473.187C81.0225 478.636 90.0286 516.628 114.095 510.346C118.636 511.633 196.134 482.117 175.095 508.076L47.1929 567.562C32.0565 573.919 32.8891 597.759 48.7066 602.829C50.6743 620.009 217.25 513.979 197.497 553.333L150.196 587.92C141.719 594.126 139.827 606.159 146.033 614.636C163.288 640.519 204.459 591.326 220.05 584.136C265.459 574.6 113.187 702.426 127.718 710.978C128.021 727.401 149.969 735.726 160.867 723.087C166.013 724.904 269.772 585.801 266.14 626.518L235.64 676.619C222.547 697.431 255.696 718.017 268.334 696.523L298.758 646.497C333.496 623.869 256.982 781.968 261.447 784.314C252.517 807.472 289.223 820.868 297.321 797.407C301.71 798.542 346.968 626.82 357.639 667.991C358.471 684.338 333.875 744.656 364.601 747.684C401.685 761.231 382.765 643.622 407.664 674.5C415.005 691.074 396.918 840.469 433.548 833.809C477.443 846.524 423.406 636.281 457.993 671.17L471.842 728.158C477.367 752.3 515.208 743.143 509.002 719.152C510.289 714.611 480.773 637.113 506.732 658.152L566.217 786.054C576.283 808.456 611.702 792.412 600.879 769.934C604.739 767.664 515.435 614.106 551.989 635.751C565.309 651.038 602.015 723.617 620.859 674.651C630.925 663.526 556.303 597.683 591.949 604.948L695.86 700.458C707.666 711.962 729.16 702.123 727.873 685.549C737.863 669.126 586.349 572.33 625.173 567.032L675.274 597.531C696.087 610.624 716.597 577.552 695.179 564.837C692.833 560.675 617.227 526.845 650.451 523.288L782.969 571.724C798.181 577.93 814.453 560.448 806.885 545.69C814.15 530.705 621.616 487.793 666.647 475.457L724.543 484.463C734.987 486.052 744.75 478.939 746.339 468.494C759.886 431.41 642.353 450.331 673.08 425.432L814.075 419.453C838.822 418.696 837.233 379.871 812.485 381.234Z" fill="white"/>
<path d="M335.089 395.697C339.932 394.714 344.927 394.713 349.695 395.546C355.674 396.605 365.437 397.892 370.356 396.378C377.773 394.108 380.725 390.475 379.741 387.372C378.757 384.269 375.275 379.35 362.864 378.518C350.452 377.685 334.937 377.004 325.553 381.469C316.168 385.934 301.335 399.254 299.67 404.022C298.005 408.79 296.945 413.709 302.697 412.12C307.616 410.758 317.53 399.406 335.013 395.697H335.089Z" fill="black"/>
<path d="M477.514 390.695C480.163 393.722 484.325 394.933 488.185 394.025C491.212 393.344 494.694 392.057 496.131 389.484C498.78 384.64 499.764 379.569 513.009 380.251C526.253 380.932 542.449 378.51 548.125 380.705C553.801 382.899 552.741 376.466 542.676 372.834C532.61 369.201 529.507 365.568 517.247 367.158C504.986 368.747 490.758 366.325 483.947 371.472C478.346 375.71 471.762 383.959 477.514 390.619V390.695Z" fill="black"/>
<path d="M455.804 400.831C455.804 400.831 455.804 400.679 455.728 400.528C455.274 398.939 451.49 384.03 453.231 371.391C455.123 358.071 465.643 343.162 480.93 335.669C496.218 328.177 509.387 336.653 516.955 339.68C524.523 342.707 541.476 344.599 541.097 338.318C540.719 332.036 541.476 320.23 525.431 316.673C509.387 313.116 487.666 313.57 471.167 323.711C454.745 333.853 443.846 345.81 442.181 352.319C440.516 358.752 434.689 396.29 454.366 405.902C454.896 406.129 455.501 406.129 456.031 405.902C456.788 405.448 457.393 404.161 455.88 400.907L455.804 400.831Z" fill="black"/>
<path d="M357.039 359.82C357.039 359.82 361.126 364.134 367.408 360.804C373.689 357.474 378.987 351.798 374.371 344.835C369.754 337.797 357.191 331.515 342.736 332.575C328.205 333.559 339.784 327.656 320.637 331.667C301.565 335.602 258.426 355.204 261.227 363.377C264.027 371.475 282.342 356.869 297.932 352.933C313.523 348.998 351.515 348.771 357.039 359.896V359.82Z" fill="black"/>
<path d="M408.426 448.888C408.199 450.856 410.091 452.445 411.983 452.066C413.496 451.764 415.388 451.613 417.507 451.991C422.275 452.823 436.05 459.559 446.267 461.451C456.484 463.343 461.63 462.662 466.398 458.878C471.166 455.018 480.399 442.909 484.789 442.682C489.178 442.455 493.795 435.114 491.146 433.146C488.497 431.178 482.14 431.708 479.642 434.66C477.145 437.611 470.258 446.088 456.332 449.191C442.407 452.369 434.006 448.434 428.103 445.709C422.957 443.287 409.258 440.866 408.426 449.039V448.888Z" fill="black"/>
<path d="M426.44 556.821C426.44 556.821 427.197 557.048 427.575 557.123C429.467 557.502 435.219 558.41 440.517 557.502C446.117 556.594 456.031 553.415 468.443 553.112C474.119 552.961 479.644 550.993 483.882 547.285C485.245 546.15 486.38 544.863 487.137 543.501C490.164 538.203 486.531 534.949 480.023 539.717C473.514 544.485 446.723 548.193 442.257 548.269C435.9 548.496 427.197 543.955 422.731 545.469C418.342 546.907 420.991 554.777 426.516 556.669L426.44 556.821Z" fill="black"/>
<path d="M556.611 471.83C555.173 468.197 553.281 462.143 545.108 458.056C536.934 453.969 530.501 445.266 526.868 445.341C523.236 445.417 521.722 447.914 522.1 449.579C522.479 451.244 524.295 461.31 518.165 465.094C512.035 468.878 479.113 478.187 460.571 481.895C442.029 485.604 419.476 487.799 406.383 485.452C393.29 483.182 367.786 483.031 365.137 483.333C362.488 483.636 352.649 480.987 353.179 473.116C353.709 465.245 351.665 461.689 349.016 462.899C346.292 464.11 339.405 470.77 335.545 476.749C332.064 482.274 320.56 493.172 320.636 500.437C320.636 501.573 321.317 502.632 322.377 503.162C323.89 503.843 326.312 504.524 328.809 502.784C332.821 499.983 340.691 492.869 351.741 496.578C362.79 500.286 382.089 517.995 397.301 522.309C412.438 526.623 430.677 531.694 451.716 529.348C472.68 527.002 503.256 513.152 508.705 507.703C514.078 502.254 527.852 480.836 532.923 477.355C537.993 473.873 544.048 472.511 550.708 475.084C557.368 477.657 558.049 475.463 556.611 471.83ZM504.239 484.317C502.12 487.269 486.454 501.648 475.178 504.751C463.901 507.779 443.846 512.168 429.769 511.638C415.692 511.109 392.306 498.848 392.306 498.848C388.674 497.032 394.88 496.426 398.437 497.41C401.237 498.167 409.335 499.075 427.044 501.346C444.678 503.616 486.303 492.415 489.406 491.053C492.509 489.691 506.434 481.366 504.315 484.317H504.239Z" fill="black"/>
</svg>
