<svg fill="none" height="898" viewBox="0 0 733 898" width="733" xmlns="http://www.w3.org/2000/svg"><path d="m704.49 681.828c-50.255 69.794-107.082 104.978-146.564 112.693-23.917 4.673-47.497-9.185-54.938-32.389-4.158-12.967-6.245-28.51-9.266-47.062-6.889-46.998-13.144-84.506-13.826-115.988 74.849-24.073 139.332-74.366 171.844-139.385 39.707-72.139 23.118-162.466-71.833-161.747-147.374 9.164-265.068 196.561-334.411 333.575-.762 1.502-3.026.515-2.457-1.063l220.033-609.168-23.607-21.294c-55.416 32.4427-165.368 29.2666-247.931 31.933l-8.52 28.7247c37.91.8262 63.818 6.7654 64.912 44.6963 11.583 7.372-242.58774 752.738-247.926 777.831h169.188c64.714-180.734 132.695-331.273 242.078-432.539 40.19-32.121 95.858-64.043 98.428-5.864-6.846 91.764-95.059 150.19-190.471 168.12-1.604 75.82-1.674 164.639 30.849 231.445 21.6 49.986 86.324 61.468 137.153 47.111 132.791-28.349 226.761-157.165 245.308-184.345l-28.043-25.296z" fill="#fdfdfd"/></svg>