<svg width="460" height="341" viewBox="0 0 460 341" fill="none" xmlns="http://www.w3.org/2000/svg">
<path d="M0 340.164H168.976C190.443 340.164 210.059 328.038 219.663 308.837L306.002 136.169H408V0.171875H261.35C247.042 0.171875 233.962 8.25613 227.559 21.0531L136.006 204.167H0.00945345V340.164H0Z" fill="white"/>
<path d="M0 136.169H67.9984L135.997 0.171875H0V136.169Z" fill="white"/>
<path d="M440.727 0H445.147L449.855 11.1526H450.026L454.734 0H459.08V15.3389H455.565V6.40185H455.394L451.624 15.3389H448.183L444.412 6.40185H444.242V15.3389H440.727V0Z" fill="white"/>
<path d="M425.508 0H439.398V3.28082H434.413V15.3389H430.493V3.28082H425.508V0Z" fill="white"/>
</svg>
