<svg width="518" height="411" viewBox="0 0 518 411" fill="none" xmlns="http://www.w3.org/2000/svg">
<path d="M35.9843 376.669C31.4702 377.104 28.0202 380.522 23.2803 379.99C16.6382 381.763 4.24049 348.021 0.935521 344.506C-2.12762 339.17 2.98299 336.784 6.88447 334.946C9.97986 333.414 12.108 333.85 14.5101 336.751C53.7667 390.84 108.903 346.989 58.0067 330.254L35.4201 323.773C-11.0752 314.374 -7.64127 252.821 44.5289 252.934C57.5392 252.934 64.262 255.868 74.3704 251.902C78.2235 251.386 80.8513 252.499 82.4635 256.32L96.683 282.292C98.0211 284.871 97.7631 287.177 94.845 289.047C91.7658 291.288 87.6708 293.335 84.8495 289.805C69.0824 273.57 58.6677 268.008 46.9149 268.476C36.3874 268.895 30.4384 273.876 30.7286 281.26C30.0193 294.528 59.7962 297.64 70.5495 301.283C122.623 308.522 119.753 379.684 62.7627 378.749C48.8979 379.313 42.4653 376.395 35.9682 376.669H35.9843Z" fill="white"/>
<path d="M109.048 370.738C106.227 355.631 119.656 364.257 119.398 352.923L117.931 316.246C117.738 311.329 116.399 308.927 110.37 307.411C105.485 306.718 106.372 302.155 106.146 298.625C104.421 291.789 132.537 287.146 135.987 284.599C140.84 283.003 144.242 284.276 144.451 289.532C146.579 294.433 142.388 359.13 151.787 358.308C154.818 359.049 158.461 360.065 158.332 363.837C158.477 367.255 159.509 373.365 154.318 373.317L113.788 374.945C110.983 375.058 109.161 373.381 109.048 370.738ZM110.612 264.849C104.566 246.342 138.18 237.507 142.001 256.611C148.079 275.313 114.513 284.131 110.612 264.849Z" fill="white"/>
<path d="M159.494 406.686C159.446 403.091 158.221 397.997 162.783 396.707C166.765 395.433 170.199 393.725 169.667 388.872L166.652 313.954C167.41 303.346 155.899 307.908 155.222 300.702C155.19 297.381 153.981 292.302 158.527 291.254L183.838 282.678C189.658 280.404 192.641 284.048 192.205 289.723C192.27 291.303 193.882 291.948 195.22 290.481C254.935 245.581 279.876 371.235 215.211 372.798C209.327 374.459 196.429 367.333 196.558 371.96C197.8 376.942 194.108 393.531 202.185 394.063C205.554 394.74 210.6 394.821 210.504 399.706C210.649 403.204 211.713 409.25 206.312 409.185L164.024 410.878C161.397 410.991 159.575 409.298 159.462 406.67L159.494 406.686ZM225.013 327.077C224.304 305.764 211.648 293.334 196.703 300.621C190.754 303.426 196.703 345.15 195.72 350.405C195.688 356.886 201.121 357.725 206.038 357.725C217.097 357.273 225.868 348.309 225.013 327.077Z" fill="white"/>
<path d="M258.191 402.675C258.143 399.08 256.918 393.985 261.48 392.695C265.462 391.422 268.896 389.713 268.364 384.86L265.35 309.942C266.107 299.334 254.596 303.897 253.919 296.69C253.887 293.369 252.678 288.291 257.224 287.243L282.535 278.666C288.355 276.393 291.338 280.036 290.903 285.711C290.967 287.291 292.579 287.936 293.917 286.469C353.633 241.57 378.573 367.223 313.908 368.787C308.024 370.447 295.126 363.322 295.255 367.949C296.497 372.93 292.805 389.52 300.882 390.052C304.251 390.729 309.298 390.809 309.201 395.694C309.346 399.193 310.41 405.238 305.009 405.174L262.722 406.867C260.094 406.979 258.272 405.287 258.159 402.659L258.191 402.675ZM323.71 323.065C323.001 301.752 310.345 289.322 295.401 296.61C289.452 299.415 295.401 341.138 294.417 346.394C294.385 352.875 299.818 353.713 304.735 353.713C315.795 353.262 324.565 344.298 323.71 323.065Z" fill="white"/>
<path d="M444.286 341.638C430.486 381.185 355.875 368.013 358.228 321.196C352.183 272.056 427.31 253.774 440.562 301.382C441.578 304.671 440.595 306.654 437.483 308.008C436.919 309.668 384.716 326.338 389.698 330.304C397.372 344.459 423.425 346.926 434.355 335.189C439.095 329.756 448.075 333.222 444.286 341.654V341.638ZM382.943 310.7C382.862 312.248 383.298 313.957 385.49 312.877L411.382 301.285C412.768 300.705 413.429 299.625 412.656 298.077C404.353 280.262 380.75 290.193 382.927 310.7H382.943Z" fill="white"/>
<path d="M448.799 356.435C446.043 341.587 459.375 350.002 459.198 338.862L458.005 302.169C457.844 297.3 456.554 294.898 450.573 293.35C447.768 292.576 446.688 291.561 446.607 288.949C446.542 285.547 445.543 280.646 450.138 279.615L475.11 271.312C488.653 266.588 479.108 286.579 487.089 281.017C492.135 274.585 516.447 261.977 517.43 276.89C515.769 281.452 518.816 305.426 510.498 304.619C504.017 304.152 499.035 291.206 492.877 293.012C487.83 293.173 485.154 296.397 485.364 302.83L486.508 337.959C486.621 341.619 487.734 343.489 491.248 344.247C494.618 344.972 499.68 345.053 499.438 349.906C499.567 353.275 500.518 359.369 495.392 359.272L453.475 360.643C450.686 360.739 448.896 359.047 448.816 356.435H448.799Z" fill="white"/>
<path d="M343.217 146.998C343.088 146.063 305.589 151.109 312.811 145.676L324.951 142.726C330.078 141.565 328.159 133.472 323.032 134.81C322.065 134.536 305.573 140.823 310.038 135.294L337.284 122.622C342.056 120.494 338.654 112.916 333.85 115.238C333.367 114.416 300.672 133.44 305.266 125.653L315.342 118.285C319.615 115.27 314.778 108.499 310.538 111.707C309.538 111.836 296.689 123.944 298.721 117.124L319.066 94.989C322.662 91.2004 316.616 85.4933 313.069 89.4754C312.311 88.9111 289.37 118.994 290.644 110.047L297.141 99.3741C299.93 94.9568 292.885 90.5555 290.176 95.1341C289.289 95.6339 282.083 111.723 281.325 104.662L291.643 76.4328C293.513 71.5479 285.743 68.6137 284.002 73.6437C283.163 74.1596 274.199 104.581 272.152 102.679C269.653 102.663 273.393 89.9913 273.071 88.8789C273.958 83.7038 265.752 82.3817 265.026 87.6375C264.397 88.4274 263.898 106.081 260.496 99.8417C258.932 96.311 262.785 64.5027 254.982 65.9053C245.632 63.1968 257.143 107.967 249.775 100.551L246.825 88.4113C245.648 83.3007 237.587 85.187 238.909 90.3298C238.635 91.2971 244.922 107.79 239.393 103.324L226.721 76.0781C225.367 72.8538 220.288 73.0311 219.208 76.4006C215.903 78.8188 237.829 110.208 229.752 108.096C226.914 104.823 219.095 89.3948 215.081 99.8094C213.662 103.26 224.851 111.594 222.981 114.674C222.062 117.237 199.959 94.3441 199.104 94.328C196.621 91.8775 191.994 93.9733 192.285 97.504C189.592 99.8255 223.996 123.96 214.162 122.751L203.489 116.254C201.571 115.093 199.056 115.689 197.895 117.608C194.203 123.122 207.23 127.2 209.922 129.699C214.581 137.663 177.791 118.237 177.436 121.88C174.228 123.283 174.389 128.281 177.759 129.393C177.517 130.312 214.097 139.985 205.327 142.242L192.994 140.323C187.819 139.437 186.497 147.643 191.753 148.368C192.543 148.997 210.196 149.497 203.957 152.899L173.922 154.172C168.698 154.317 168.956 162.604 174.26 162.314C174.389 163.249 211.889 158.203 204.666 163.636L192.526 166.586C187.4 167.747 189.318 175.84 194.445 174.502C195.412 174.776 211.921 168.488 207.439 174.018L180.193 186.69C176.969 188.044 177.146 193.122 180.516 194.203C180.935 197.862 216.419 175.276 212.211 183.659L202.135 191.027C200.329 192.349 199.926 194.912 201.248 196.718C204.924 202.231 213.694 191.752 217.015 190.221C226.689 188.189 194.251 215.419 197.347 217.241C197.411 220.739 202.087 222.512 204.408 219.82C205.504 220.207 227.607 190.575 226.834 199.249L220.337 209.921C217.547 214.355 224.609 218.74 227.301 214.161L233.782 203.505C241.182 198.684 224.883 232.363 225.834 232.863C223.932 237.796 231.751 240.649 233.476 235.652C234.411 235.894 244.052 199.313 246.325 208.083C246.502 211.566 241.263 224.415 247.808 225.06C255.708 227.946 251.677 202.892 256.981 209.47C258.545 213.001 254.692 244.825 262.495 243.406C271.846 246.115 260.335 201.328 267.702 208.761L270.653 220.9C271.83 226.043 279.891 224.092 278.569 218.982C278.843 218.014 272.555 201.506 278.085 205.988L290.757 233.233C292.901 238.006 300.446 234.588 298.14 229.8C298.963 229.316 279.939 196.605 287.726 201.216C290.563 204.472 298.382 219.933 302.397 209.502C304.541 207.132 288.645 193.106 296.238 194.654L318.373 215C320.888 217.45 325.467 215.354 325.193 211.824C327.321 208.325 295.045 187.705 303.315 186.577L313.988 193.074C318.422 195.863 322.791 188.818 318.228 186.109C317.728 185.223 301.623 178.016 308.7 177.259L336.929 187.577C340.17 188.898 343.636 185.174 342.024 182.031C343.572 178.839 302.558 169.697 312.15 167.07L324.483 168.988C326.708 169.327 328.788 167.811 329.126 165.586C332.012 157.687 306.975 161.717 313.521 156.413L343.556 155.139C348.827 154.978 348.489 146.708 343.217 146.998Z" fill="white"/>
<path d="M241.521 150.079C242.553 149.869 243.617 149.869 244.633 150.047C245.906 150.272 247.986 150.547 249.034 150.224C250.614 149.74 251.243 148.967 251.033 148.306C250.823 147.645 250.082 146.597 247.438 146.419C244.794 146.242 241.489 146.097 239.49 147.048C237.491 147.999 234.331 150.837 233.976 151.852C233.622 152.868 233.396 153.916 234.621 153.577C235.669 153.287 237.781 150.869 241.505 150.079H241.521Z" fill="black"/>
<path d="M271.861 149.013C272.425 149.658 273.312 149.916 274.134 149.723C274.779 149.578 275.521 149.303 275.827 148.755C276.391 147.723 276.601 146.643 279.422 146.788C282.243 146.934 285.693 146.418 286.903 146.885C288.112 147.353 287.886 145.982 285.742 145.208C283.598 144.435 282.937 143.661 280.325 143.999C277.713 144.338 274.682 143.822 273.231 144.918C272.038 145.821 270.636 147.578 271.861 148.997V149.013Z" fill="black"/>
<path d="M267.236 151.173C267.236 151.173 267.236 151.14 267.22 151.108C267.123 150.769 266.317 147.594 266.688 144.901C267.091 142.064 269.332 138.888 272.589 137.292C275.845 135.696 278.65 137.501 280.263 138.146C281.875 138.791 285.486 139.194 285.405 137.856C285.325 136.518 285.486 134.003 282.068 133.245C278.65 132.487 274.023 132.584 270.509 134.744C267.01 136.905 264.689 139.452 264.334 140.838C263.98 142.209 262.738 150.205 266.93 152.253C267.043 152.301 267.172 152.301 267.285 152.253C267.446 152.156 267.575 151.882 267.252 151.189L267.236 151.173Z" fill="black"/>
<path d="M246.197 142.436C246.197 142.436 247.068 143.355 248.406 142.646C249.744 141.937 250.873 140.727 249.889 139.244C248.906 137.745 246.229 136.407 243.15 136.633C240.055 136.842 242.521 135.585 238.443 136.439C234.38 137.277 225.19 141.453 225.787 143.194C226.383 144.919 230.285 141.808 233.606 140.969C236.927 140.131 245.02 140.083 246.197 142.452V142.436Z" fill="black"/>
<path d="M257.144 161.41C257.095 161.829 257.498 162.167 257.901 162.087C258.224 162.022 258.627 161.99 259.078 162.071C260.094 162.248 263.028 163.683 265.205 164.086C267.381 164.489 268.477 164.344 269.493 163.538C270.509 162.716 272.475 160.136 273.411 160.088C274.346 160.039 275.329 158.476 274.765 158.056C274.2 157.637 272.846 157.75 272.314 158.379C271.782 159.008 270.315 160.813 267.349 161.474C264.382 162.151 262.593 161.313 261.335 160.733C260.239 160.217 257.321 159.701 257.144 161.442V161.41Z" fill="black"/>
<path d="M260.981 184.402C260.981 184.402 261.142 184.45 261.223 184.466C261.626 184.547 262.851 184.74 263.98 184.547C265.173 184.353 267.285 183.676 269.929 183.612C271.138 183.58 272.315 183.16 273.217 182.37C273.508 182.129 273.749 181.855 273.911 181.564C274.556 180.436 273.782 179.743 272.395 180.758C271.009 181.774 265.302 182.564 264.35 182.58C262.996 182.628 261.142 181.661 260.191 181.984C259.256 182.29 259.82 183.966 260.997 184.369L260.981 184.402Z" fill="black"/>
<path d="M288.71 166.297C288.404 165.523 288.001 164.233 286.26 163.363C284.519 162.492 283.148 160.638 282.374 160.654C281.601 160.67 281.278 161.202 281.359 161.557C281.439 161.912 281.826 164.056 280.52 164.862C279.215 165.668 272.202 167.651 268.252 168.441C264.302 169.231 259.498 169.699 256.708 169.199C253.919 168.715 248.486 168.683 247.922 168.747C247.358 168.812 245.262 168.248 245.375 166.571C245.488 164.894 245.052 164.137 244.488 164.395C243.908 164.652 242.441 166.071 241.618 167.345C240.877 168.522 238.426 170.843 238.442 172.391C238.442 172.633 238.588 172.858 238.813 172.971C239.136 173.116 239.652 173.262 240.184 172.891C241.038 172.294 242.715 170.779 245.069 171.569C247.422 172.359 251.533 176.131 254.774 177.05C257.998 177.969 261.884 179.049 266.365 178.549C270.831 178.05 277.344 175.099 278.505 173.939C279.65 172.778 282.584 168.215 283.664 167.474C284.744 166.732 286.034 166.442 287.453 166.99C288.871 167.538 289.017 167.071 288.71 166.297ZM277.554 168.957C277.103 169.586 273.765 172.649 271.363 173.31C268.961 173.955 264.689 174.89 261.69 174.777C258.691 174.664 253.71 172.052 253.71 172.052C252.936 171.665 254.258 171.537 255.016 171.746C255.612 171.907 257.337 172.101 261.11 172.584C264.866 173.068 273.733 170.682 274.394 170.392C275.055 170.102 278.021 168.328 277.57 168.957H277.554Z" fill="black"/>
<path d="M80.9312 200.169C80.9956 201.716 82.4144 203.796 80.254 204.634C79.0449 204.667 71.2258 209.39 70.5971 207.182C67.8564 203.296 77.9325 202.506 78.2227 194.204C78.7547 187.819 71.9352 187.868 70.3391 193.688L68.211 198.943C64.761 209.874 50.0579 207.472 51.4282 194.945C51.7668 191.818 52.6374 190.27 51.9442 187.755C51.9119 186.82 52.2505 186.207 53.2178 185.917L59.8277 183.16C60.795 182.66 61.4238 183.612 61.7462 184.482C62.0847 185.191 61.9235 185.772 61.327 186.191C50.203 192.978 57.0548 205.666 61.8107 194.945C64.0516 189.222 65.7928 181.226 73.6925 181.903C82.7529 181.951 83.2043 193.784 80.9473 200.169H80.9312Z" fill="white"/>
<path d="M83.027 172.714C79.2545 172.408 82.2048 169.409 79.4641 168.635L61.5527 163.815C60.3597 163.331 59.6342 164.54 59.0538 165.427C58.5702 166.378 57.2966 165.765 56.5066 165.572C54.443 163.944 57.5706 157.575 57.6996 155.254C60.3758 145.339 65.5187 141.534 71.9191 143.259C76.3848 144.468 78.8998 148.354 77.2392 154.496C77.1425 156.382 74.8371 158.994 75.8367 160.187C77.207 160.187 82.4144 162.992 83.2205 160.993C83.7202 160.236 84.1233 158.527 85.413 159.075C86.203 159.317 87.7507 159.462 87.3476 160.687C86.7028 161.396 84.9777 173.778 83.0109 172.698L83.027 172.714ZM69.533 150.014C65.3091 147.838 58.1188 154.835 62.8586 156.705L71.387 158.994C74.0633 156.818 74.4341 150.853 69.533 150.014Z" fill="white"/>
<path d="M91.2988 143.05C89.9284 142.566 89.4932 141.938 89.6221 140.487C90.4605 137.391 77.4341 125.59 75.9509 123.301C73.9195 120.576 72.5008 125.526 70.6629 124.171C70.0503 123.672 69.1152 122.995 69.6311 122.108L72.791 115.627C72.3073 113.757 97.5541 116.417 98.1667 116.046C100.633 116.191 101.053 115.595 102.471 114.563C103.374 113.692 106.26 115.095 105.454 116.385L100.488 126.574C99.9562 127.783 98.731 126.944 97.941 126.574C97.1671 126.283 97.2639 125.445 97.3122 124.752C97.3929 123.704 97.1188 123.107 95.8452 122.995C95.3293 123.091 93.1689 122.398 92.9432 123.14L88.9934 131.265C88.5903 131.862 89.8317 132.587 90.0897 132.974C92.4918 135.795 93.6203 131.491 95.9902 133.345C98.0377 133.925 92.7336 141.567 92.6853 142.55C92.3951 143.163 91.847 143.324 91.2666 143.034L91.2988 143.05ZM89.3964 123.107C90.3637 121.947 80.5939 122.14 80.4327 121.85C78.2401 121.447 86.2366 128.508 86.027 128.686C86.817 129.862 89.0418 123.269 89.3964 123.107Z" fill="white"/>
<path d="M109.532 108.08C106.178 106.322 110.064 104.71 107.839 102.937L93.2324 91.5063C92.3135 90.6035 91.185 91.4257 90.2983 92.0222C89.476 92.6993 88.5571 91.6514 87.8961 91.1677C86.6386 88.814 91.9749 84.2192 93.1035 82.0428C99.5199 73.7562 105.308 72.3052 109.951 75.9326C112.691 78.0768 113.175 80.9788 111.579 84.316C111.418 84.6707 111.563 84.8964 111.95 84.9286C115.077 85.1221 122.171 87.0083 124.718 84.7352C125.911 84.0258 126.508 84.8802 127.346 85.509C128.974 86.3473 123.687 91.1839 123.461 92.0061C122.139 94.6984 111.418 91.0549 109.241 91.2322C107.871 90.9421 105.791 91.6192 106.533 92.7799C107.919 93.3119 112.659 98.9546 114.32 97.423C115.045 96.9877 115.867 96.1816 116.674 96.9555C117.335 97.4714 118.673 98.213 117.818 99.1964C116.98 99.5833 110.87 109.853 109.499 108.096L109.532 108.08ZM105.404 81.3173C102.906 78.0285 93.6516 81.9461 97.1984 85.4606L103.018 90.007C103.26 90.1843 103.486 90.1682 103.712 89.9586C106.227 87.6532 109.306 84.2676 105.404 81.3173Z" fill="white"/>
<path d="M133.151 79.449C132.603 78.7235 131.539 77.9497 132.248 76.9985C132.829 76.0312 133.538 75.0477 132.571 74.0804L120.624 59.8449C118.77 57.6846 117.287 61.6183 115.417 58.3294C113.595 57.0236 123.688 50.5748 124.026 49.7204C124.993 48.8498 125.767 50.1557 126.315 50.8005C127.105 51.5905 126.348 52.445 125.928 53.1704C124.429 54.7826 130.62 59.9416 131.184 61.2153C132.522 62.8919 132.2 48.4468 132.538 48.4468C132.667 47.3182 131.732 47.4633 131.023 47.5601C129.878 47.7858 128.427 45.9801 129.524 45.1095L135.795 39.8377C136.666 39.0477 137.423 39.9828 137.923 40.6599C138.649 41.3693 137.842 42.4172 137.585 43.1588C136.859 43.8037 135.747 54.4441 136.698 54.702C139.713 55.4759 149.757 60.3285 152.804 59.2484C153.545 59.0549 154.69 58.6196 155.206 59.3935C155.738 60.0384 156.85 61.0379 155.802 61.8278L150.756 66.0518C149.176 68.2605 138.358 62.3277 136.424 62.1181C135.295 61.5699 135.86 65.7293 135.618 66.1162C135.456 66.7128 137.81 68.9698 138.068 69.4373C138.858 70.582 139.987 70.0661 141.002 69.6308C142.099 69.0182 144.372 71.6138 143.098 72.4682C142.179 72.6617 134.118 81.4481 133.119 79.4651L133.151 79.449Z" fill="white"/>
<path d="M181.709 47.5284C181.499 46.4805 165.087 56.2665 164.539 56.2826C163.411 56.9597 162.895 55.5571 162.476 54.7994C161.524 53.1066 164.926 52.2844 163.572 50.4948L154.737 34.1474C154.205 32.8899 152.996 33.1639 151.9 33.3574C150.626 33.7766 148.965 30.7618 150.416 30.1653L160.122 24.9257C161.395 24.0551 162.959 27.1344 161.976 27.9243C161.202 28.7304 160.299 29.5688 161.073 30.7295L170.053 47.335C173.68 51.4622 179.242 42.2889 179.387 37.5652C179.516 36.2271 180.758 36.5334 181.677 36.5173C183.498 36.1142 183.547 44.7233 184.079 45.5939C184.433 47.1415 182.789 47.6736 181.709 47.5446V47.5284Z" fill="white"/>
<path d="M194.122 40.529C192.252 37.2401 196.395 37.9978 195.492 35.2894L189.414 17.7166C189.108 16.3785 187.85 16.4753 186.738 16.4914C185.416 16.701 184.271 13.4444 185.787 13.0897L196.218 9.47838C197.427 9.01085 197.685 10.4941 197.975 11.3002C198.442 12.3158 197.411 12.8478 196.766 13.3799C194.396 13.799 202.441 31.7587 202.312 32.9195C202.731 35.1604 205.568 33.1774 206.181 35.0314C206.439 35.8214 207.18 37.1917 205.923 37.5464C204.956 37.4174 194.347 42.7216 194.106 40.5129L194.122 40.529Z" fill="white"/>
<path d="M215.984 33.1153C215.549 31.5998 215.936 30.955 217.355 30.3585C219.854 30.4229 215.001 10.9317 215.323 9.80315C215.259 8.46504 214.001 8.30384 212.905 8.1265C211.793 8.07813 211.857 6.69164 211.696 5.86943C211.067 3.95093 217.661 4.19278 218.483 3.72525C219.144 2.38714 235.75 15.1072 235.895 13.0598L234.847 6.4337C234.782 5.11171 233.509 4.96661 232.445 4.78927C231.348 4.69254 231.365 3.62852 231.236 2.79018C230.575 0.79108 239.151 0.871682 240.006 0.339663C241.167 0.113957 241.263 1.37145 241.376 2.19366C241.65 3.22546 240.522 3.59626 239.812 3.98318C237.394 3.88645 242.247 23.7163 241.924 24.7803C241.924 27.0857 245.197 25.5542 245.487 27.4888C245.632 28.2787 245.939 29.5363 244.762 29.6652L236.669 30.9389C235.137 31.2613 234.702 28.2626 235.959 27.779C236.975 27.3114 238.233 26.7472 237.862 25.4252C237.765 24.4901 237.475 23.41 236.669 23.0392L220.789 13.8014C219.144 12.6567 222.691 27.7306 222.352 27.8596C222.352 30.0844 225.545 28.7302 225.835 30.5842C225.98 31.4064 226.302 32.6316 225.061 32.7606C224.11 32.5188 215.952 35.2111 216.017 33.1153H215.984Z" fill="white"/>
<path d="M256.127 14.1223C256.24 1.82134 269.686 -2.70889 278.52 1.57951C279.536 1.51502 280.39 0.757288 281.567 1.0636C283.438 0.676679 284.856 8.76982 285.582 9.75325C286.227 11.1236 283.325 12.4779 282.551 11.301C278.424 6.22259 275.796 4.04613 271.523 3.75594C267.042 3.44963 263.721 6.72237 263.35 12.1877C262.85 19.8133 267.187 25.4236 272.991 25.7944C275.747 25.9395 277.311 24.8433 277.44 22.8925C277.875 20.8612 277.102 19.507 275.119 18.7815C273.99 18.2495 274.087 15.0412 275.602 15.2347C276.441 15.7345 288.5 14.9445 287.774 17.1532C287.855 18.7331 287.387 19.5553 285.807 19.91C283.115 20.442 284.244 28.0676 283.695 29.8571C283.663 31.0663 282.373 30.8567 281.551 30.7761C279.713 30.9373 279.987 29.2445 278.569 29.0027C269.105 33.7425 254.563 27.2938 256.127 14.1061V14.1223Z" fill="white"/>
<path d="M309.862 35.902C310.41 32.1617 313.216 35.2894 314.167 32.6131L320.132 15.0082C320.696 13.7668 319.664 13.0735 318.778 12.3964C317.601 11.7515 318.681 8.47881 320.116 9.12368L330.563 12.6705C331.804 13.0413 331.095 14.3794 330.837 15.1855C330.579 16.2818 329.45 16.0561 328.612 16.0883C326.484 14.9598 321.825 34.0802 321.018 34.9347C319.987 36.966 323.437 37.1273 322.776 38.9813C322.486 39.7551 322.244 41.3028 321.035 40.803C320.341 40.1098 308.718 37.7883 309.878 35.902H309.862Z" fill="white"/>
<path d="M338.381 31.0644C343.444 20.8593 356.341 21.1011 362.693 28.4849C363.741 28.9363 364.547 28.4849 365.45 29.1943C366.24 29.6135 366.353 30.0165 366.32 30.7259C365.853 31.6126 366.272 40.4957 364.354 40.0765C363.451 40.0765 362.193 40.1572 362.097 38.9964C361.323 28.1142 351.908 22.5844 345.83 32.2252C340.397 40.802 348.554 51.1361 357.018 48.8306C358.469 48.3147 360.114 49.4272 359.227 50.991C350.247 61.712 328.95 44.9292 338.414 31.0483L338.381 31.0644Z" fill="white"/>
<path d="M378.814 76.7877C378.831 74.4985 362.064 64.4062 363.499 61.9557C364.514 60.537 365.063 60.1823 366.691 60.9884C368.303 62.8907 379.556 46.7045 380.636 46.2047C382.329 44.7215 379.153 43.2221 380.427 41.7712C380.991 41.1263 381.765 39.8204 382.748 40.7232C383.683 41.2069 396.033 52.5405 396.935 52.0085C397.677 51.9762 398.048 52.3148 398.531 52.734C399.821 53.3789 397.032 59.9888 397.064 60.9722C396.919 61.9556 395.775 61.6977 395.065 61.5688C394.42 61.472 394.098 61.1496 394.066 60.5047C393.824 57.0385 392.889 53.6529 389.342 50.6704C386.795 47.9619 384.844 52.9919 383.296 54.2494C382.571 54.9266 385.537 56.5548 385.763 56.9901C387.359 58.5701 389.39 57.893 388.971 59.9566L387.101 66.7438C386.988 67.6628 385.908 67.421 385.247 67.2436C383.2 66.2924 384.925 60.0855 381.878 58.3283C381.523 58.1187 380.83 57.1353 380.378 57.7318L374.187 65.1155C371.64 69.9521 383.409 72.725 386.666 71.4353C387.359 71.3386 387.794 71.5482 387.988 72.0963C388.262 72.8218 388.939 73.8858 387.923 74.4178L381.458 78.2387C380.169 79.1254 379.072 77.8357 378.798 76.7877H378.814Z" fill="white"/>
<path d="M390.278 85.4631C392.793 82.6257 393.422 86.7851 395.679 85.0601C396.243 83.996 412.575 73.404 410.85 71.7435C410.608 70.9535 409.995 69.9056 410.93 69.3091C411.607 68.8254 412.526 67.7291 413.365 68.6964C415.589 71.0019 416.75 72.34 419.459 75.79C435.032 92.9597 412.446 115.772 399.097 98.4573C398.968 97.5545 388.118 86.2853 390.278 85.4631ZM400.096 94.3785C408.06 106.292 425.762 87.7363 418.088 79.4981C417.459 78.6436 416.379 77.902 415.331 78.8532L399.484 91.2508C397.936 92.3471 399.451 93.4434 400.096 94.3785Z" fill="white"/>
<path d="M422.779 136.051C426.325 133.859 425.374 138.905 428.276 137.792C429.244 136.728 448.703 131.569 446.945 129.022C446.333 127.281 443.818 126.298 438.191 125.669C436.95 125.62 437.256 124.024 437.224 123.17C436.837 121.316 446.832 121.735 447.687 121.268C449.154 121.09 449.476 122.573 449.218 123.686C448.316 123.799 454.813 139.066 454.893 139.646C455.184 140.678 456.36 140.904 456.731 141.807C457.021 142.5 457.215 143.096 456.36 143.677L448.848 149.32C447.8 150.496 445.301 147.74 446.381 146.821C450.476 142.371 453.055 137.131 448.38 137.76L430.888 144.531C427.986 145.676 432.081 148.723 427.986 149.481C426.164 150.883 422.908 138.034 422.198 137.47C421.94 136.793 422.198 136.293 422.795 136.051H422.779Z" fill="white"/>
<path d="M434.772 186.03C435.627 185.514 431.903 167.054 431.919 166.071C431.645 164.781 433.144 164.749 433.998 164.604C435.901 164.249 435.578 167.748 437.723 167.038L456.053 163.975C458.31 163.943 456.859 160.751 458.778 160.461C459.616 160.332 461.067 159.848 461.212 161.17C461.599 162.153 463.63 178.791 464.662 178.968C465.5 179.662 465.807 181.242 464.791 181.822L458.923 185.853C457.907 186.691 456.053 184.466 456.94 183.563C458.826 181.887 462.695 171.214 457.391 171.053L452.829 171.81C451.829 171.859 453.038 175.019 452.925 175.486C453.103 177.727 455.086 178.533 453.441 179.839L447.605 183.789C446.912 184.418 446.251 183.515 445.88 182.967C445.01 180.806 450.314 177.292 449.121 173.987C448.992 173.584 449.121 172.391 448.363 172.568L438.867 174.148C433.773 175.873 440.947 186.062 444.252 187.062C444.832 187.432 445.026 187.884 444.832 188.432C444.558 189.158 444.381 190.415 443.268 190.157L435.869 188.851C434.305 188.674 434.305 186.997 434.788 186.014L434.772 186.03Z" fill="white"/>
<path d="M437.82 198.571C439.254 198.458 439.932 198.861 440.383 200.232C440.867 203.408 457.553 208.937 459.842 210.421C462.808 212.097 462.099 206.987 464.324 207.486C465.082 207.696 466.226 207.938 466.097 208.953L465.823 216.16C467.016 217.675 442.866 225.446 442.447 226.043C440.125 226.913 439.996 227.623 439.109 229.138C438.626 230.299 435.434 230.186 435.643 228.67L436.062 217.353C436.062 216.031 437.529 216.305 438.4 216.337C439.222 216.289 439.48 217.079 439.706 217.74C440.044 218.723 440.544 219.175 441.753 218.756C442.189 218.449 444.446 218.224 444.349 217.45L444.687 208.421C444.816 207.712 443.398 207.551 442.995 207.293C439.593 205.697 440.415 210.066 437.449 209.34C435.337 209.631 437.11 200.506 436.756 199.587C436.788 198.91 437.223 198.539 437.852 198.571H437.82ZM447.622 216.047C447.202 217.498 456.069 213.371 456.327 213.564C458.488 213.048 448.331 209.824 448.444 209.582C447.251 208.825 447.88 215.757 447.606 216.047H447.622Z" fill="white"/>
</svg>
