<svg width="960" height="263" viewBox="0 0 960 263" fill="none" xmlns="http://www.w3.org/2000/svg">
<path d="M939.478 35.5505L870.756 0.767751C867.367 -0.947232 864.538 0.301541 864.538 3.61073V24.449L942.046 53.6762V40.6133C942.046 38.5312 940.909 36.2727 939.478 35.5505Z" fill="white"/>
<path d="M910.728 102.848L958.095 102.821C959.155 102.821 960 101.372 960 99.5819V88.321L906.758 81.4731V98.0674C906.758 100.724 908.559 102.85 910.728 102.848Z" fill="white"/>
<path d="M864.538 36.8325V57.6683C864.538 60.9775 867.368 64.1901 870.757 64.8326L960.001 81.6273V70.3665C960.001 68.579 959.156 66.8592 958.096 66.5234L864.538 36.8325Z" fill="white"/>
<path d="M87.3826 189.082H86.4845L86.424 189.983C85.9084 197.735 83.0133 204.817 78.2761 209.925C75.4892 212.915 72.0803 215.26 68.2886 216.795C63.975 218.568 58.9837 219.467 53.4525 219.467C47.1588 219.467 41.4728 218.162 36.5565 215.585C32.0444 213.22 28.1617 209.788 25.0197 205.375C19.3312 197.387 16.1989 186.324 16.1989 174.215C16.1989 162.186 19.3312 151.174 25.0197 143.205C28.1665 138.802 32.0396 135.372 36.5565 133.01C41.4752 130.435 47.1588 129.13 53.4525 129.13C63.6845 129.13 71.8832 132.2 77.8186 138.256C83.6282 144.179 85.7123 151.445 86.441 155.249L86.591 156.034H102.761L102.625 154.947C101.286 143.941 95.9355 133.811 87.5932 126.488C78.6368 118.669 66.8338 114.539 53.4622 114.539C45.7162 114.539 38.4034 116.043 31.7515 119.01C25.282 121.9 19.512 126.147 14.8337 131.461C10.0965 136.804 6.4147 143.167 3.88513 150.37C1.30716 157.71 0 165.734 0 174.215C0 182.737 1.30716 190.79 3.88513 198.155C6.41228 205.377 10.0965 211.754 14.8312 217.109C19.5071 222.431 25.2784 226.684 31.7515 229.578C38.401 232.546 45.7065 234.054 53.4622 234.054C67.1243 234.054 78.9781 229.764 87.7433 221.65C91.98 217.701 95.4153 212.975 97.8615 207.73C100.44 202.179 102.052 196.231 102.628 190.14L102.737 189.078H87.3826V189.082Z" fill="white"/>
<path d="M492.91 185.192C490.973 181.085 488.068 177.759 484.07 174.993C476.488 169.752 465.641 167.063 453.085 163.95C452.117 163.708 451.178 163.481 450.248 163.254C442.764 161.431 436.301 159.856 431.825 157.044C427.076 154.061 424.955 149.94 424.955 143.682C424.955 139.348 426.979 135.735 430.803 133.232C434.899 130.554 441.043 129.138 448.571 129.138C457.225 129.138 463.637 130.979 468.178 134.769C472.535 138.392 475.14 143.846 476.166 151.406L476.28 152.242H492.426L492.341 151.199C491.857 145.334 490.45 140.01 488.139 135.377C485.93 130.917 482.778 126.988 478.901 123.86C471.347 117.766 460.853 114.546 448.556 114.546C442.321 114.546 436.63 115.271 431.643 116.72C426.768 118.129 422.556 120.218 419.129 122.926C412.327 128.302 408.732 136.03 408.732 145.266C408.732 150.629 409.942 155.411 412.3 159.448C414.389 163.015 417.463 166.143 421.44 168.745C428.828 173.576 438.385 176.064 446.748 178.015C458.706 180.774 467.566 182.989 472.852 186.375C475.379 187.996 477.067 189.844 478.163 192.194C479.26 194.544 479.783 197.453 479.783 201.288C479.783 206.482 477.846 210.851 474.179 213.921C469.785 217.602 463.044 219.477 454.107 219.477C443.173 219.477 434.72 216.885 428.981 211.771C423.97 207.308 421.01 200.928 420.179 192.81L420.09 191.94H403.913L403.976 192.967C404.75 205.655 410.109 216.213 419.468 223.501C428.351 230.416 440.329 234.071 454.102 234.071C461.1 234.071 467.416 233.16 472.906 231.366C478.023 229.692 482.419 227.245 485.977 224.093C489.261 221.2 491.854 217.61 493.563 213.585C495.195 209.694 496.022 205.514 495.996 201.296C496.001 194.839 494.989 189.576 492.91 185.192Z" fill="white"/>
<path d="M591.574 165.051C589.521 159.169 586.537 154.012 582.702 149.722C575.199 141.338 564.775 136.72 553.323 136.72C546.359 136.72 540.15 138.184 534.863 141.068C531.16 143.106 527.866 145.808 525.145 149.039V139.203H508.992V262.078H525.145V221.389C527.769 224.823 531.077 227.677 534.861 229.773C540.022 232.619 546.238 234.061 553.323 234.061C564.775 234.061 575.208 229.442 582.702 221.058C586.537 216.768 589.521 211.611 591.574 205.73C593.721 199.582 594.811 192.737 594.811 185.391C594.811 178.046 593.721 171.201 591.574 165.051ZM571.793 209.128C566.879 216.053 559.876 219.715 551.546 219.715C543.619 219.715 536.965 216.503 532.3 210.428C527.635 204.353 525.145 195.674 525.145 185.391C525.145 175.109 527.619 166.447 532.3 160.353C536.982 154.258 543.619 151.065 551.546 151.065C559.876 151.065 566.879 154.727 571.793 161.652C576.22 167.891 578.658 176.321 578.658 185.391C578.658 194.462 576.22 202.899 571.793 209.128Z" fill="white"/>
<path d="M648.868 136.715C635.475 136.715 624.267 141.162 616.458 149.573C608.543 158.095 604.355 170.479 604.355 185.387C604.355 199.708 608.521 211.861 616.402 220.527C624.451 229.378 635.92 234.054 649.565 234.054C660.458 234.054 669.698 231.003 676.993 224.989C683.454 219.662 688.182 212.066 690.663 203.008L690.997 201.786H674.762L674.573 202.51C673.42 206.687 671.075 210.44 667.824 213.312C663.072 217.549 656.75 219.696 649.033 219.696C640.142 219.696 632.739 216.472 627.627 210.377C623.209 205.112 620.699 197.931 620.51 190.061H692.127V189.095C692.127 172.59 688.528 159.686 681.431 150.744C674.043 141.445 663.08 136.715 648.868 136.715ZM620.532 175.73C620.774 169.228 623.58 163.194 628.469 158.65C633.732 153.756 640.977 151.061 648.868 151.061C652.707 151.027 656.517 151.721 660.097 153.104C663.286 154.35 666.187 156.23 668.625 158.628C673.147 163.102 675.732 169.143 675.962 175.73H620.532Z" fill="white"/>
<path d="M779.384 153.703C777.885 150.011 775.547 146.716 772.556 144.077C767.071 139.263 759.453 136.72 750.528 136.72C743.324 136.72 736.808 138.188 731.163 141.082C727.42 142.977 724.069 145.562 721.289 148.7V139.203H705.134V231.578H721.289V174.217C721.263 171.025 721.888 167.861 723.126 164.918C724.313 162.144 726.079 159.654 728.307 157.616C732.978 153.331 739.441 151.065 746.979 151.065C753.387 151.065 758.25 152.998 761.431 156.792C764.248 160.159 765.737 165.08 765.737 171.027V231.578H781.89V167.478C781.88 162.343 781.04 157.708 779.384 153.703Z" fill="white"/>
<path d="M116.794 102.848H115.826V103.814V230.612V231.578H116.794H131.013H131.981V230.612V103.814V102.848H131.013H116.794Z" fill="white"/>
<path d="M189.481 136.715C176.087 136.715 164.88 141.162 157.069 149.573C149.155 158.095 144.965 170.479 144.965 185.387C144.965 199.708 149.131 211.861 157.013 220.527C165.061 229.378 176.533 234.054 190.176 234.054C201.068 234.054 210.308 231.003 217.606 224.989C224.067 219.662 228.794 212.066 231.276 203.008L231.61 201.786H215.372L215.186 202.51C214.033 206.687 211.688 210.44 208.437 213.312C203.685 217.549 197.36 219.696 189.643 219.696C180.754 219.696 173.352 216.472 168.237 210.377C163.822 205.112 161.312 197.931 161.123 190.061H232.73V189.095C232.73 172.59 229.133 159.686 222.036 150.744C214.656 141.445 203.697 136.715 189.481 136.715ZM161.145 175.73C161.387 169.228 164.192 163.194 169.08 158.65C174.345 153.756 181.59 151.061 189.481 151.061C193.319 151.027 197.129 151.721 200.708 153.104C203.896 154.35 206.798 156.229 209.236 158.628C213.76 163.102 216.345 169.143 216.575 175.73H161.145Z" fill="white"/>
<path d="M327.127 219.355C321.446 219.355 320.487 216.536 320.487 210.217V166.236C320.487 155.818 317.031 148.002 310.207 143.002C304.518 138.833 296.651 136.722 286.821 136.722C274.125 136.722 264.309 139.743 257.628 145.702C254.54 148.471 252.109 151.892 250.514 155.717C248.962 159.396 248.055 163.574 247.822 168.142L247.769 169.157H263.917L263.978 168.256C264.425 161.652 266.091 157.557 269.383 154.985C272.803 152.313 278.339 151.067 286.826 151.067C293.318 151.067 298.055 152.301 300.902 154.736C303.214 156.717 304.339 159.492 304.339 163.224C304.339 171.362 298.464 173.222 282.917 176.108C270.719 178.413 261.201 180.869 254.392 185.362C250.725 187.777 248.059 190.654 246.246 194.145C244.31 197.85 243.383 202.181 243.383 207.381C243.383 215.212 246.288 221.874 251.778 226.686C257.268 231.497 265.057 234.063 274.207 234.063C287.915 234.063 298.457 229.596 304.819 221.125C306.092 225.292 307.944 228.106 310.582 229.903C313.179 231.676 316.542 232.466 321.475 232.466C324.351 232.466 326.379 232.246 330.134 230.997L330.797 230.778V219.065L329.715 219.191C328.856 219.295 327.992 219.35 327.127 219.355ZM304.334 195.683C304.334 203.654 301.599 209.792 296.204 213.937C291.278 217.72 284.161 219.722 275.628 219.722C270.143 219.722 266.004 218.56 263.331 216.273C260.814 214.121 259.536 210.891 259.536 206.678C259.536 201.625 261.346 198.123 265.406 195.326C269.206 192.703 275.108 190.645 284.529 188.647C294.296 186.661 300.936 184.613 304.33 182.543L304.334 195.683Z" fill="white"/>
<path d="M390.154 137.212C387.46 136.863 384.745 136.701 382.028 136.729C375.698 136.729 370.235 138.744 365.788 142.717C362.641 145.534 359.937 149.335 357.585 154.28V139.203H341.429V231.577H357.597V182.367C357.597 174.075 360.23 166.575 365.016 161.253C367.366 158.627 370.256 156.536 373.488 155.123C376.961 153.627 380.71 152.872 384.492 152.906C386.302 152.91 388.108 153.059 389.893 153.352L391.016 153.534V137.318L390.154 137.212Z" fill="white"/>
<path d="M879.728 102.848H864.543V149.394C861.918 145.979 858.63 143.128 854.875 141.01C849.76 138.165 843.653 136.72 836.72 136.72C825.113 136.72 814.571 141.339 807.031 149.72C799.079 158.563 794.877 170.899 794.877 185.392C794.877 199.885 799.079 212.218 807.031 221.061C814.571 229.443 825.113 234.061 836.72 234.061C843.527 234.061 849.634 232.595 854.875 229.713C858.557 227.665 861.834 224.964 864.545 221.742V231.59H880.696V102.848H879.728ZM857.397 210.428C852.733 216.503 846.076 219.716 838.148 219.716C829.819 219.716 822.816 216.054 817.902 209.129C813.477 202.89 811.037 194.46 811.037 185.392C811.037 176.324 813.477 167.892 817.902 161.653C822.816 154.728 829.819 151.066 838.148 151.066C846.076 151.066 852.733 154.278 857.397 160.353C862.062 166.428 864.55 175.107 864.55 185.392C864.55 195.677 862.057 204.334 857.385 210.428H857.397Z" fill="white"/>
</svg>
