<svg width="344" height="450" viewBox="0 0 344 450" fill="none" xmlns="http://www.w3.org/2000/svg">
<path d="M171.841 104.492C189.548 104.507 206.525 111.54 219.049 124.049C231.572 136.557 238.618 153.519 238.641 171.213H273.498C273.468 144.281 262.748 118.461 243.69 99.4176C224.632 80.3742 198.793 69.663 171.841 69.6328C144.889 69.663 119.05 80.3742 99.9917 99.4176C80.9338 118.461 70.2138 144.281 70.1836 171.213H105.041C105.063 153.519 112.109 136.557 124.633 124.049C137.156 111.54 154.134 104.507 171.841 104.492Z" fill="white"/>
<path d="M171.841 0C126.376 0 82.772 18.0478 50.6229 50.1724C18.4738 82.297 0.412598 125.867 0.412598 171.298H35.2983C35.3135 135.114 49.7032 100.417 75.3058 74.8286C100.908 49.2401 135.63 34.8538 171.841 34.8312C208.028 34.8689 242.722 49.2491 268.309 74.8174C293.897 100.386 308.289 135.054 308.327 171.213V357.955L171.841 412.486L35.2697 357.87V241.045H238.641V310.649L171.841 337.458L105.07 310.649V275.962H70.2126V334.23L171.841 375L273.498 334.345V206.186H0.412598V381.481L171.841 450L343.098 381.481V171.127C343.053 125.755 324.995 82.2551 292.888 50.1724C260.781 18.0898 217.248 0.0453491 171.841 0V0Z" fill="white"/>
</svg>
