<svg width="422" height="449" viewBox="0 0 422 449" fill="none" xmlns="http://www.w3.org/2000/svg">
<g clip-path="url(#clip0_1_813)">
<path d="M217.941 448.094H28.615C17.9605 448.094 8.25436 442.31 3.3455 433C-1.67492 423.69 -1.00554 412.562 5.01897 403.858L130.083 223.992L5.01897 44.1814C-1.00554 35.5324 -1.67492 24.3493 3.28972 15.0393C8.25436 5.78435 17.9605 0 28.615 0L218.108 0C247.394 0 274.783 14.213 291.406 38.0665L421.156 224.102L291.183 410.138C274.56 433.881 247.171 448.094 217.941 448.094ZM47.4137 410.083H217.885C234.508 410.083 250.016 402.04 259.499 388.543L374.411 224.102L259.722 59.6063C250.295 46.1095 234.731 38.0114 218.108 38.0114L47.4137 38.0114L153.456 190.443L192.894 133.756C201.82 120.92 217.885 115.411 232.946 120.039C248.007 124.666 258.104 138.163 258.104 153.753V294.341C258.104 309.876 248.007 323.428 232.946 328.055C217.885 332.683 201.82 327.174 192.894 314.338L153.456 257.651L47.4137 410.083ZM176.829 224.047L219.614 285.526V162.513L176.829 224.047Z" fill="white"/>
</g>
<defs>
<clipPath id="clip0_1_813">
<rect width="421.158" height="448.094" fill="white"/>
</clipPath>
</defs>
</svg>
