<svg width="622" height="271" viewBox="0 0 622 271" fill="none" xmlns="http://www.w3.org/2000/svg">
<g clip-path="url(#clip0_1_362)">
<path d="M404.886 144.971C400.814 146.101 397.578 142.366 396.257 137.609C393.867 129.003 396.433 65.3662 392.03 49.5129C388.257 35.9264 373.31 31.3003 356.781 35.888C333.158 42.4507 325.182 57.5356 322.062 71.245C320.747 77.0008 318.849 82.6259 316.152 87.8745C308.721 102.314 296.894 114.141 286.22 116.999C277.875 119.235 269.775 112.035 264.35 91.7783C263.236 87.6055 262.298 82.5337 261.261 77.0622C285.967 65.9733 325.028 42.5199 318.696 18.8819C315.322 6.29453 303.803 -2.69648 283.523 2.14483C283.116 2.24473 282.832 2.62897 282.862 3.04394C282.885 3.40511 283.131 3.70481 283.477 3.80471C287.135 4.85751 290.339 11.5585 292.153 18.3287C301.943 54.8767 275.554 69.1855 262.444 72.6974C261.845 72.8587 261 72.8741 260.354 72.8357C257.057 48.5369 264.312 18.0443 274.24 7.73924C274.494 7.47796 274.632 7.12447 274.617 6.76329C274.578 5.85651 273.656 5.25711 272.818 5.58755C247.344 15.7082 224.836 38.6237 219.38 65.2202L218.488 21.4717L176.976 32.5913L176.73 100.785C176.569 117.645 168.3 139.231 163.927 140.407C160.354 141.367 157.557 138.07 156.435 133.898C154.414 126.351 158.356 70.3689 154.637 56.4674C151.44 44.5486 138.407 40.3758 123.906 44.2643C107.422 48.6829 99.5533 57.8968 95.5957 67.5102C89.8476 60.7247 79.9575 57.2052 65.7255 60.5249C65.2875 60.6248 64.9801 61.0398 65.0109 61.4932C65.0339 61.8697 65.2875 62.1925 65.641 62.3078C69.199 63.4835 72.3036 70.1461 74.0787 76.7702C83.8689 113.318 57.4722 127.627 44.37 131.139C43.7706 131.3 42.9253 131.316 42.2797 131.277C38.96 106.802 46.3449 76.0709 56.381 65.958C56.6269 65.7044 56.7653 65.3739 56.7499 65.0204C56.7115 64.1674 55.8431 63.5988 55.0516 63.9062C20.8858 77.3158 -8.03149 113.703 2.01999 151.219C9.68157 179.821 34.6873 188.881 59.1168 182.334C70.3671 179.322 79.7039 173.858 87.3654 166.25C87.6267 165.989 87.7958 165.643 87.8188 165.282C87.8957 163.922 86.2665 163.23 85.3367 164.175C79.773 169.846 73.8251 173.927 68.1308 175.448C59.7853 177.685 51.678 170.484 46.2527 150.228C45.1384 146.055 44.2009 140.983 43.1558 135.511C67.8619 124.423 106.923 100.969 100.583 77.3312C99.9144 74.8491 98.9308 72.5053 97.6321 70.3843C99.0153 66.5189 101.029 62.7381 104.909 61.7007C108.882 60.6325 111.902 62.3846 112.863 65.958C115.207 74.6954 111.511 130.824 115.13 144.333C117.843 154.462 127.541 164.429 144.424 159.902C158.925 156.014 170.021 145.801 176.446 121.303V168.14C176.499 210.49 163.197 232.361 141.15 238.27C132.013 240.722 123.337 237.725 122.323 233.952C121.954 232.561 122.692 232.153 123.683 231.884C136.847 228.357 147.321 215.555 143.932 201.814C142.057 194.184 134.91 188.85 127.072 189.442C110.734 190.672 100.345 209.153 104.072 223.085C107.799 236.987 123.86 246.093 147.498 239.761C193.774 227.358 221.793 190.48 220.755 134.974L219.879 91.9166C219.956 92.2086 220.017 92.5006 220.094 92.785C227.756 121.387 252.754 130.447 277.183 123.9C297.478 118.459 311.756 105.065 320.233 85.4308C321.854 81.5347 323.591 76.0248 324.528 72.9356C325.804 68.2557 329.27 57.8968 335.279 56.014C339.805 54.7538 343.279 56.721 344.408 60.7939C347.175 70.7608 344.9 134.559 349.181 149.959C352.385 161.509 363.574 172.79 382.816 167.441C396.894 163.53 408.037 154.454 415.43 134.666C415.507 134.459 415.545 134.236 415.53 134.013C415.437 132.261 413.017 131.907 412.41 133.552C410.066 139.946 407.522 144.234 404.871 144.971H404.886Z" fill="white"/>
<path d="M619.111 58.8198C613.732 38.7553 595.158 22.6636 575.893 27.82C566.356 30.3713 555.306 37.5949 550.971 58.766C550.902 57.7209 550.587 56.5298 550.264 55.3387C547.498 45.0105 541.327 37.08 525.043 41.4449C498.893 48.4532 492.799 76.579 490.032 89.6275C489.126 94.269 484.907 115.179 478.79 116.877C475.616 117.761 472.511 114.472 470.875 108.585C470.306 106.549 469.906 104.221 469.73 101.831L465.503 9.34619L418.635 22.3639L421.086 90.2576L421.14 91.1413C421.363 96.9048 422.023 115.809 423.791 125.107C423.791 125.107 423.845 125.415 423.96 125.953C424.114 126.675 424.275 127.321 424.444 127.882C425.228 130.709 426.803 135.228 429.624 139.109C429.67 139.178 429.723 139.239 429.77 139.309C429.793 139.332 429.808 139.362 429.831 139.385C429.831 139.393 429.846 139.401 429.854 139.408C434.841 146.102 442.664 149.583 454.084 146.417C484.2 138.048 489.902 105.266 492.653 90.5957C493.652 85.8313 497.594 68.5946 502.789 67.2037C505.571 66.4583 508.46 69.3016 509.843 74.4657C510.32 76.2562 510.458 78.3464 510.589 80.4367L512.74 196.521C513.455 238.909 496.526 261.54 474.479 267.45C465.342 269.901 456.666 266.904 455.651 263.131C455.282 261.74 456.02 261.333 457.012 261.064C470.175 257.537 480.649 244.734 477.261 230.994C475.385 223.363 468.239 218.03 460.4 218.622C444.063 219.851 433.673 238.333 437.408 252.265C441.135 266.166 457.196 275.273 480.834 268.94C527.111 256.538 555.121 219.644 554.091 164.138L553.761 148.046L553.615 141.706L552.116 76.5482C551.632 59.6497 556.305 43.7118 563.651 41.7369C568.815 40.3537 573.51 43.5658 576.169 53.502C578.828 63.4306 585.944 139.232 566.079 144.557C565.219 144.788 564.412 144.941 563.636 145.026C562.806 145.118 562.16 145.802 562.176 146.64V146.732C562.191 147.57 562.86 148.246 563.697 148.292C567.025 148.461 570.621 148.031 574.402 147.016C616.314 135.789 627.034 88.421 619.111 58.8275V58.8198Z" fill="white"/>
</g>
<defs>
<clipPath id="clip0_1_362">
<rect width="621.532" height="270.176" fill="white" transform="translate(0 0.824219)"/>
</clipPath>
</defs>
</svg>
