<svg width="433" height="525" viewBox="0 0 433 525" fill="none" xmlns="http://www.w3.org/2000/svg">
<path d="M74.7647 0.495117H0.563931L69.4431 156.953C99.1135 224.344 99.1135 301.107 69.4431 368.499L0.54541 525H74.7462L142.514 371.073C172.907 302.04 172.907 223.412 142.514 154.379L74.7647 0.495117Z" fill="#F2F7F8"/>
<path d="M258.332 88.8271H187.502L214.234 149.551H247.935C310.338 149.551 361.11 200.323 361.11 262.726C361.11 325.129 310.338 375.901 247.935 375.901H214.234L187.502 436.624H258.332C354.22 436.624 432.23 358.614 432.23 262.726C432.23 166.837 354.22 88.8271 258.332 88.8271Z" fill="#F2F7F8"/>
</svg>
