<svg width="591" height="569" viewBox="0 0 591 569" fill="none" xmlns="http://www.w3.org/2000/svg">
<path d="M445.489 167.053L505.992 24.5868C510.941 12.9293 502.38 0 489.71 0H185C170.808 0 157.986 8.48064 152.442 21.5398L1.42383 377.137C-3.52509 388.794 5.03535 401.723 17.7054 401.723H145.511L240.596 177.823C243.369 171.29 249.779 167.053 256.878 167.053H445.489Z" fill="white"/>
<path d="M445.489 167.053L350.404 390.953C347.632 397.486 341.221 401.723 334.122 401.723H145.511L85.0088 544.189C80.0599 555.847 88.6203 568.776 101.29 568.776H406.006C420.198 568.776 433.02 560.296 438.564 547.236L589.577 191.64C594.525 179.982 585.965 167.053 573.295 167.053H445.489Z" fill="white"/>
</svg>
