<svg width="433" height="363" viewBox="0 0 433 363" fill="none" xmlns="http://www.w3.org/2000/svg">
<path d="M0 0H62.6017C62.6017 20.6866 66.6569 40.758 74.656 59.6581C82.3803 77.9083 93.4365 94.2991 107.518 108.372C121.6 122.444 138.002 133.493 156.264 141.212C175.177 149.206 195.262 153.259 215.962 153.259H344.306V172.037H172.155C77.0766 172.041 0 95.015 0 0ZM259.786 96.9579H344.309V78.1898H303.608C282.709 78.1898 263.059 70.057 248.282 55.2893C233.504 40.5216 225.366 20.8882 225.366 0H162.764C162.764 25.8999 172.857 50.2463 191.182 68.559C209.507 86.8718 233.873 96.9579 259.786 96.9579ZM91.9549 52.349C98.7333 68.3644 108.437 82.7463 120.8 95.1019C133.164 107.458 147.556 117.154 163.582 123.928C180.168 130.938 197.79 134.494 215.965 134.494H344.309V115.726H259.786C244.157 115.726 228.99 112.664 214.71 106.627C200.92 100.798 188.535 92.4535 177.904 81.8287C167.272 71.2039 158.925 58.8274 153.089 45.0468C147.048 30.7727 143.984 15.6157 143.984 0H81.3822C81.3822 18.1598 84.94 35.774 91.9549 52.349ZM0 362.849H62.6017C62.6017 342.163 66.6569 322.091 74.656 303.191C82.3803 284.941 93.4365 268.55 107.518 254.477C121.6 240.405 138.002 229.356 156.264 221.637C175.177 213.643 195.262 209.591 215.962 209.591H344.306V190.812H172.155C77.0766 190.809 0 267.834 0 362.849ZM162.764 362.849H225.366C225.366 341.964 233.504 322.331 248.282 307.56C263.059 292.792 282.709 284.659 303.608 284.659H344.309V265.891H259.786C233.873 265.891 209.507 275.977 191.182 294.29C172.857 312.603 162.764 336.953 162.764 362.849ZM120.8 267.747C108.437 280.103 98.7333 294.485 91.9549 310.5C84.94 327.075 81.3822 344.686 81.3822 362.849H143.984C143.984 347.23 147.048 332.073 153.089 317.802C158.921 304.022 167.272 291.645 177.904 281.02C188.535 270.396 200.92 262.051 214.71 256.222C228.993 250.185 244.16 247.123 259.786 247.123H344.309V228.355H215.965C197.793 228.355 180.168 231.911 163.582 238.921C147.556 245.695 133.164 255.392 120.8 267.747Z" fill="white"/>
<path d="M381.555 82.8218V108.471H381.56H387.589V82.8218H398.493V77.7534H370.797V82.8218H381.555Z" fill="white"/>
<path d="M406.841 84.2894L414.272 108.471H414.283H419.445L426.729 84.2894H426.921V108.471H433V77.7534H423.69L417.368 100.086H417.222L410.562 77.7534H401.054V108.471H406.65V84.2894H406.841Z" fill="white"/>
</svg>
