<svg width="960" height="204" viewBox="0 0 960 204" fill="none" xmlns="http://www.w3.org/2000/svg">
<path d="M171.437 106.524C171.437 106.524 171.402 106.462 171.385 106.436C169.748 103.594 169.766 100.131 171.411 97.2891C191.989 61.7592 191.884 16.785 167.771 4.17506C144.594 -9.78155 106.403 12.8149 86.4024 48.7383C84.8275 51.5628 81.8177 53.2418 78.5892 53.233C37.5024 53.1194 -0.758377 75.2086 0.0115633 102.212C-0.767126 129.295 37.9049 151.41 79.0179 151.095C82.2727 151.069 85.2825 152.739 86.9448 155.529C138.96 242.653 222.236 202.401 171.437 106.524ZM72.2897 115.854C72.5085 117.253 71.3273 118.478 69.9187 118.329C44.9656 115.749 26.0058 103.052 25.997 87.7573C25.4633 70.5651 51.3526 56.4599 79.0004 56.5998C80.5578 56.5998 81.5902 58.2176 80.9603 59.6342C72.4997 78.7764 69.175 96.3097 72.281 115.854H72.2897ZM143.089 184.229C128.425 193.298 103.157 177.714 89.5784 153.675C88.8084 152.32 89.7096 150.615 91.2583 150.466C113.175 148.402 132.144 140.812 144.297 130.073C144.297 130.073 144.314 130.064 144.314 130.056C145.425 129.137 147.096 129.531 147.683 130.843C157.919 153.789 156.362 176.595 143.08 184.229H143.089ZM123.657 61.6542C122.572 61.1995 121.461 60.7623 120.341 60.3425C119.011 59.8441 118.521 58.2176 119.344 57.0632C133.876 36.6268 154.253 26.378 167.579 33.8984C183.004 41.8824 182.242 72.1042 168.322 95.9249C167.535 97.2716 165.619 97.359 164.709 96.0998C153.378 80.4117 140.701 68.755 123.674 61.6542H123.657Z" fill="white"/>
<path d="M303.718 98.3406C304.622 97.6949 305.41 96.8981 306.074 95.9594C307.867 93.427 308.777 90.2301 308.777 86.4567C308.777 82.34 308.002 79.058 306.474 76.702C304.893 74.2641 302.465 72.5538 299.249 71.6183C296.31 70.7616 292.543 70.3269 288.048 70.3269H240.409V131.517H284.87C289.652 131.517 293.715 131.271 296.943 130.786C300.351 130.276 303.126 129.328 305.192 127.973C307.378 126.54 308.956 124.505 309.879 121.929C310.733 119.541 311.167 116.499 311.167 112.883C311.167 108.562 310.106 104.889 308.008 101.969C306.912 100.442 305.476 99.2289 303.718 98.3406ZM251.367 80.0879H288.052C290.883 80.0879 293.116 80.2391 294.685 80.5383C295.841 80.7588 296.609 81.2061 297.031 81.9053C297.394 82.5006 297.822 83.7763 297.822 86.4598C297.822 89.8521 297.107 91.3671 296.505 92.0443C295.636 93.0239 294.19 93.6318 292.215 93.8523C289.834 94.1168 286.71 94.2523 282.93 94.2523H251.367V80.0879ZM299.539 118.282C299.18 119.286 298.587 119.992 297.731 120.442C296.679 120.994 295.151 121.349 293.189 121.504C291.019 121.674 288.222 121.759 284.87 121.759H251.367V104.01H282.93C285.541 104.01 288.017 104.086 290.285 104.231C292.411 104.369 294.288 104.731 295.863 105.314C297.249 105.824 298.294 106.628 299.06 107.768C299.828 108.914 300.216 110.637 300.216 112.883C300.216 115.129 299.989 117.034 299.542 118.282H299.539Z" fill="white"/>
<path d="M330.305 70.3269H319.35V131.517H375.756V121.759H330.305V70.3269Z" fill="white"/>
<path d="M441.349 101.67C441.349 105.821 441.201 109.302 440.911 112.01C440.637 114.568 440.133 116.606 439.412 118.067C438.763 119.387 437.868 120.338 436.681 120.975C435.374 121.677 433.61 122.146 431.44 122.367C429.087 122.609 426.126 122.732 422.642 122.732H409.111C405.653 122.732 402.698 122.609 400.333 122.367C398.15 122.143 396.38 121.677 395.073 120.975C393.885 120.338 392.991 119.387 392.342 118.067C391.621 116.606 391.117 114.568 390.843 112.01C390.553 109.299 390.405 105.821 390.405 101.673V70.3269H379.45V101.67C379.45 107.928 379.872 113.103 380.707 117.047C381.589 121.23 383.195 124.515 385.476 126.811C387.762 129.11 390.931 130.701 394.893 131.533C398.619 132.317 403.404 132.714 409.111 132.714H422.642C428.35 132.714 433.134 132.317 436.86 131.533C440.823 130.698 443.991 129.11 446.278 126.811C448.562 124.515 450.165 121.23 451.047 117.047C451.881 113.097 452.304 107.925 452.304 101.67V70.3269H441.349V101.67Z" fill="white"/>
<path d="M471.442 121.759V105.204H518.578V95.4429H471.442V80.0879H520.631V70.3269H460.487V131.517H521.68V121.759H471.442Z" fill="white"/>
<path d="M617.769 75.7633C615.476 73.5837 612.307 72.1065 608.345 71.3695C604.635 70.6797 599.866 70.3269 594.171 70.3269H549.672V131.517H594.171C599.879 131.517 604.66 131.132 608.377 130.377C612.333 129.573 615.501 128.033 617.785 125.803C620.075 123.57 621.684 120.395 622.572 116.373C623.407 112.581 623.832 107.632 623.832 101.67V100.174C623.832 94.0129 623.41 88.9607 622.572 85.1527C621.684 81.1084 620.068 77.9461 617.769 75.7602V75.7633ZM612.874 101.67C612.874 106.524 612.632 110.404 612.153 113.201C611.725 115.711 610.934 117.557 609.8 118.688C608.676 119.812 606.94 120.565 604.641 120.924C602.036 121.331 598.512 121.538 594.168 121.538H560.624V80.3116H594.168C597.664 80.3116 600.641 80.4092 603.022 80.6045C605.224 80.784 607.006 81.1966 608.32 81.8266C609.482 82.3841 610.351 83.2377 610.972 84.4314C611.671 85.7763 612.163 87.6977 612.433 90.1419C612.723 92.7499 612.871 96.1264 612.871 100.174V101.67H612.874Z" fill="white"/>
<path d="M775.045 70.3269L739.349 131.517H752.133L759.308 118.36H802.517L809.692 131.517H822.476L786.784 70.3269H775.045ZM765.035 108.602L780.916 80.8124L796.797 108.602H765.035Z" fill="white"/>
<path d="M888.576 73.9869C886.545 72.5852 883.735 71.6403 879.984 71.0923C876.484 70.582 871.832 70.3237 866.163 70.3237H825.849V131.514H836.804V108.303H869.432C869.577 108.303 869.719 108.303 869.861 108.303L882.066 131.517H893.512L880.784 107.283C883.779 106.672 886.126 105.79 887.912 104.609C890.283 103.043 891.915 100.949 892.759 98.391C893.528 96.0539 893.918 93.2601 893.918 90.082V88.5859C893.918 85.181 893.578 82.299 892.907 80.0155C892.161 77.4831 890.706 75.4515 888.579 73.9837L888.576 73.9869ZM882.96 90.082C882.96 92.0128 882.815 93.5845 882.529 94.7531C882.321 95.594 881.88 96.2019 881.14 96.6649C880.513 97.0555 879.2 97.591 876.5 97.9059C874.135 98.1831 870.818 98.3217 866.648 98.3217H836.804V80.3115H864.78C869.177 80.3115 872.73 80.4029 875.338 80.5856C878.346 80.7966 879.896 81.2848 880.667 81.6565C881.549 82.0817 882.094 82.6896 882.384 83.5684C882.768 84.7432 882.963 86.4315 882.963 88.5859V90.082H882.96Z" fill="white"/>
<path d="M960 80.0879V70.3269H902.095V131.517H913.053V105.204H957.868V95.4429H913.053V80.0879H960Z" fill="white"/>
<path d="M749.446 70.3269L721.143 120.209L698.471 70.3269H687.664L664.996 120.209L636.689 70.3269H623.904L659.6 131.517H671.563L693.069 84.0125L714.576 131.517H726.535L762.231 70.3269H749.446Z" fill="white"/>
</svg>
