<svg width="579" height="579" viewBox="0 0 579 579" fill="none" xmlns="http://www.w3.org/2000/svg">
<path d="M557.312 180.447C542.722 144.517 521.382 112.362 493.8 84.7794C466.218 57.1971 433.99 35.7845 398.133 21.2674C363.437 7.11334 326.782 0 289.255 0C251.729 0 215.073 7.11334 180.45 21.1948C155.336 31.3568 132.109 44.8576 110.914 61.4796L153.521 104.087C192.645 75.2707 239.752 59.6649 289.328 59.6649C350.662 59.6649 408.295 83.5454 451.628 126.879C494.961 170.212 518.842 227.917 518.842 289.179C518.842 338.682 503.236 385.79 474.42 424.986L517.027 467.593C533.649 446.398 547.15 423.171 557.312 398.057C571.394 363.434 578.507 326.778 578.507 289.252C578.507 251.653 571.321 215.07 557.312 180.447Z" fill="white"/>
<path d="M289.252 518.839C227.917 518.839 170.285 494.958 126.951 451.625C86.3037 410.977 62.7861 357.7 59.9553 300.648C66.9234 311.754 75.1981 322.206 84.7068 331.714C117.66 364.668 161.574 382.887 208.174 382.887C254.774 382.887 298.688 364.741 331.641 331.714L361.982 301.374V383.831H421.719V199.319H237.571V258.984H320.028L289.542 289.47C244.684 334.328 171.736 334.328 126.951 289.47C88.1183 250.637 82.9647 190.754 111.346 146.26L68.0122 102.926C48.4142 126.153 32.7359 152.139 21.2674 180.375C7.11334 215.07 0 251.653 0 289.252C0 326.779 7.11334 363.434 21.1948 398.057C35.7844 433.987 57.1245 466.142 84.7068 493.724C112.289 521.307 144.517 542.719 180.374 557.236C214.997 571.318 251.652 578.431 289.179 578.431C326.705 578.431 363.361 571.318 397.984 557.236C426.22 545.768 452.205 530.089 475.432 510.492L433.115 468.174C392.468 500.983 342.239 518.839 289.252 518.839Z" fill="white"/>
</svg>
