<svg width="960" height="242" viewBox="0 0 960 242" fill="none" xmlns="http://www.w3.org/2000/svg">
<path d="M232.646 75.326C226.555 60.3275 217.647 46.9045 206.133 35.3905C194.619 23.8765 181.166 14.9379 166.197 8.87792C151.714 2.96941 136.412 0 120.747 0C105.082 0 89.7807 2.96941 75.3275 8.84762C64.8437 13.0896 55.1477 18.7254 46.3 25.6642L64.0862 43.4503C80.4179 31.4212 100.083 24.9067 120.778 24.9067C146.381 24.9067 170.439 34.8754 188.529 52.9645C206.618 71.0537 216.586 95.1422 216.586 120.716C216.586 141.38 210.072 161.045 198.043 177.407L215.829 195.193C222.768 186.345 228.404 176.649 232.646 166.166C238.524 151.712 241.493 136.411 241.493 120.746C241.493 105.05 238.493 89.7791 232.646 75.326Z" fill="white"/>
<path d="M120.746 216.585C95.1422 216.585 71.084 206.617 52.9948 188.527C36.0268 171.559 26.2096 149.319 25.0279 125.503C27.9367 130.139 31.3909 134.502 35.3602 138.472C49.1164 152.228 67.448 159.833 86.9006 159.833C106.353 159.833 124.685 152.258 138.441 138.472L151.106 125.806V160.227H176.043V83.2043H99.1721V108.111H133.593L120.867 120.837C102.142 139.562 71.69 139.562 52.9948 120.837C36.7843 104.626 34.633 79.6289 46.4803 61.055L28.3912 42.9658C20.2101 52.6618 13.6653 63.5093 8.87792 75.296C2.96941 89.7794 0 105.051 0 120.746C0 136.411 2.96941 151.713 8.84762 166.166C14.9379 181.164 23.8462 194.587 35.3602 206.101C46.8742 217.615 60.3274 226.554 75.2957 232.614C89.7488 238.492 105.05 241.462 120.715 241.462C136.381 241.462 151.682 238.492 166.135 232.614C177.922 227.827 188.769 221.282 198.465 213.101L180.801 195.436C163.832 209.131 142.865 216.585 120.746 216.585Z" fill="white"/>
<path d="M385.814 93.5049C385.269 94.0806 384.36 94.1109 383.754 93.5655C383.148 93.0504 383.087 92.1414 383.602 91.5354C384.693 90.1416 385.238 88.6266 385.238 86.9298V83.7483H360.271V184.981H385.238V131.077C385.238 123.623 387.177 117.624 391.026 113.079C394.874 108.534 400.419 106.231 407.63 106.231C411.448 106.292 414.629 106.685 417.205 107.382V82.0515C416.084 81.6273 413.66 81.4455 409.933 81.4455C401.782 81.4152 393.753 85.4451 385.814 93.5049Z" fill="white"/>
<path d="M454.929 83.7188H429.962V184.951H454.929V83.7188Z" fill="white"/>
<path d="M442.595 30.481C438.111 30.481 434.384 31.9657 431.354 34.9351C428.324 37.9045 426.809 41.6011 426.809 45.9946C426.809 50.3881 428.324 54.115 431.384 57.145C434.444 60.2053 437.808 61.7203 441.504 61.7203C445.201 61.7203 448.2 61.0537 450.564 59.6902C452.927 58.3267 454.776 56.4784 456.078 54.0847C457.412 51.691 458.048 48.6004 458.048 44.8432C458.048 41.0557 456.594 37.7227 453.654 34.8139C450.776 31.9354 447.079 30.481 442.595 30.481Z" fill="white"/>
<path d="M529.954 81.4155C514.591 81.4155 501.835 86.2938 491.685 96.0505C481.564 105.807 476.474 118.685 476.474 134.713V234.249H501.441V183.587C501.502 181.951 500.956 180.436 499.866 178.982C499.381 178.345 499.441 177.467 499.987 176.921C500.562 176.346 501.502 176.285 502.108 176.83C510.38 183.799 520.894 187.284 533.711 187.284C547.103 187.284 558.739 182.163 568.616 171.892C578.494 161.62 583.463 149.015 583.463 134.047C583.463 119.079 578.373 106.595 568.223 96.5353C558.072 86.4453 545.316 81.4155 529.954 81.4155ZM554.86 149.53C552.436 154.166 548.982 157.802 544.528 160.468C540.074 163.135 535.074 164.468 529.499 164.468C520.954 164.468 513.955 161.59 508.531 155.802C503.108 150.045 500.411 142.894 500.411 134.41C500.411 125.926 503.077 118.776 508.44 112.958C513.804 107.171 520.742 104.262 529.257 104.262C537.771 104.262 544.77 107.14 550.285 112.867C555.769 118.594 558.526 126.108 558.526 135.35C558.526 140.167 557.314 144.894 554.86 149.53Z" fill="white"/>
<path d="M702.025 148.137C701.571 149.621 701.298 151.439 701.207 153.621C701.177 154.439 700.51 155.106 699.662 155.106C698.844 155.106 698.147 154.439 698.116 153.621C698.025 151.5 697.753 149.652 697.298 148.137L677.512 83.7491H656.423L637.486 148.137C637.031 149.621 636.759 151.439 636.668 153.621C636.637 154.439 635.971 155.106 635.122 155.106C634.304 155.106 633.607 154.469 633.577 153.621C633.517 151.773 633.304 149.924 632.971 148.106L614.125 83.7188H586.642L621.003 184.951H647.242L664.726 131.684C665.18 130.229 665.453 128.32 665.544 125.987C665.574 125.23 666.21 124.594 666.968 124.594C667.756 124.594 668.362 125.2 668.392 125.987C668.453 128.32 668.725 130.229 669.21 131.684L687.117 184.951H712.509L747.172 83.7188H720.114L702.025 148.137Z" fill="white"/>
<path d="M801.261 81.4155C791.747 81.4155 783.051 83.7789 775.173 88.536C767.295 93.2932 761.114 99.7471 756.629 107.928C752.145 116.109 749.903 125.139 749.903 135.047C749.903 150.227 754.841 162.741 764.75 172.558C774.627 182.375 787.626 187.284 803.685 187.284C819.744 187.284 832.743 180.86 842.681 167.983L826.653 153.469C820.411 161.347 812.806 165.286 803.867 165.286C790.202 165.226 781.172 158.772 776.809 145.924C776.658 145.53 776.264 144.985 775.597 144.228C775.052 143.622 775.052 142.713 775.597 142.107L775.718 141.985C776.233 141.41 777.082 141.319 777.748 141.743C778.476 142.228 779.445 142.44 780.657 142.44H849.469C849.741 139.925 849.893 137.319 849.893 134.622C849.893 119.109 845.439 106.352 836.561 96.3838C827.683 86.415 815.926 81.4155 801.261 81.4155ZM824.804 124.775C824.259 125.26 823.501 125.32 822.895 124.957C821.896 124.381 820.774 124.078 819.593 124.078H781.475C780.233 124.139 779.172 124.411 778.324 124.926C777.718 125.29 776.991 125.26 776.445 124.805C775.718 124.199 775.658 123.139 776.324 122.472C777.173 121.593 777.748 120.775 778.051 119.988C779.93 114.776 782.869 110.685 786.899 107.777C790.929 104.868 795.565 103.383 800.837 103.383C806.109 103.383 810.806 104.898 814.896 107.928C818.987 110.958 821.835 114.988 823.441 119.988C823.683 120.806 824.168 121.654 824.926 122.533C825.501 123.199 825.471 124.199 824.804 124.775Z" fill="white"/>
<path d="M889.585 147.622V33.936H864.618V151.682C864.557 158.409 865.557 164.135 867.618 168.862C872.738 180.801 885.374 186.77 905.463 186.77V163.954C900.342 163.954 896.403 162.711 893.676 160.257C890.949 157.803 889.585 153.561 889.585 147.622Z" fill="white"/>
<path d="M948.213 160.257C945.486 157.803 944.123 153.591 944.123 147.622V33.936H919.156V151.682C919.095 158.409 920.095 164.135 922.155 168.862C927.276 180.801 939.911 186.77 960 186.77V163.954C954.879 163.954 950.94 162.711 948.213 160.257Z" fill="white"/>
<path d="M319.094 79.4463V49.3887H294.126V79.4766V83.2339H273.219V83.749V107.565V108.141H294.126V111.504V143.743C294.126 151.076 294.823 157.287 296.217 162.347C297.671 167.407 300.247 171.801 303.913 175.558C311.064 182.83 324.063 186.466 342.94 186.466V163.62C337.274 163.62 332.729 162.923 329.396 161.529C322.548 158.469 319.124 151.985 319.124 142.046V111.504V108.11H345.546V107.535V83.7187V83.2036H319.124V79.4463H319.094Z" fill="white"/>
</svg>
