<svg width="960" height="161" viewBox="0 0 960 161" fill="none" xmlns="http://www.w3.org/2000/svg">
<path d="M0 0.000488281H27.2162C27.2162 8.99987 28.9792 17.7316 32.4569 25.9539C35.815 33.8933 40.6217 41.0239 46.7439 47.1459C52.866 53.268 59.9967 58.0746 67.9362 61.4328C76.1586 64.9104 84.8904 66.6733 93.8899 66.6733H149.688V74.8426H74.8446C33.5092 74.8442 0 41.3354 0 0.000488281ZM112.943 42.1806H149.689V34.0158H131.994C122.908 34.0158 114.366 30.4777 107.941 24.0533C101.517 17.6288 97.9784 9.08757 97.9784 0.000488281H70.7622C70.7622 11.2679 75.1501 21.8594 83.1169 29.8261C91.0837 37.7928 101.677 42.1806 112.943 42.1806ZM39.9776 22.7741C42.9245 29.7414 47.143 35.998 52.5183 41.3732C57.8935 46.7483 64.1502 50.9668 71.1175 53.9136C78.3283 56.9633 85.9897 58.5101 93.8915 58.5101H149.689V50.3453H112.943C106.148 50.3453 99.5539 49.0133 93.3456 46.3869C87.3505 43.8513 81.9662 40.221 77.344 35.5989C72.7218 30.9767 69.0929 25.5925 66.5558 19.5974C63.9294 13.3877 62.5973 6.79387 62.5973 0.000488281H35.3811C35.3811 7.90065 36.9279 15.5634 39.9776 22.7741V22.7741ZM0 157.853H27.2162C27.2162 148.853 28.9792 140.121 32.4569 131.899C35.815 123.96 40.6217 116.829 46.7439 110.707C52.866 104.585 59.9967 99.7784 67.9362 96.4203C76.1586 92.9427 84.8904 91.1797 93.8899 91.1797H149.688V83.0104H74.8446C33.5092 83.0089 0 116.518 0 157.853ZM70.7622 157.853H97.9784C97.9784 148.767 101.517 140.226 107.941 133.8C114.366 127.375 122.908 123.837 131.994 123.837H149.689V115.673H112.943C101.677 115.673 91.0837 120.06 83.1169 128.027C75.1501 135.994 70.7622 146.587 70.7622 157.853V157.853ZM52.5183 116.48C47.143 121.855 42.9245 128.112 39.9776 135.079C36.9279 142.29 35.3811 149.951 35.3811 157.853H62.5973C62.5973 151.058 63.9294 144.464 66.5558 138.256C69.0914 132.261 72.7218 126.876 77.344 122.254C81.9662 117.632 87.3505 114.002 93.3456 111.466C99.5555 108.84 106.149 107.508 112.943 107.508H149.689V99.343H93.8915C85.9912 99.343 78.3283 100.89 71.1175 103.939C64.1502 106.886 57.8935 111.105 52.5183 116.48V116.48Z" fill="white"/>
<path d="M541.222 44.4848C507.226 44.4848 483.229 68.4817 483.229 102.727C483.229 136.972 507.226 160.719 541.222 160.719C575.218 160.719 599.465 136.972 599.465 102.727C599.465 68.4817 575.468 44.4848 541.222 44.4848V44.4848ZM541.222 137.973C522.973 137.973 513.475 123.474 513.475 102.727C513.475 81.9792 522.973 67.2313 541.222 67.2313C559.47 67.2313 569.218 81.7298 569.218 102.727C569.218 123.724 559.72 137.973 541.222 137.973ZM789.124 89.0463V157.89H759.082V95.055C759.082 78.0314 753.825 68.2685 739.054 68.2685C724.283 68.2685 715.772 80.2843 715.772 98.8108V157.892H685.73V95.0565C685.73 78.0329 680.223 68.27 665.701 68.27C651.18 68.27 642.419 80.2858 642.419 98.8123V157.893H612.379V47.4892H642.419V65.5136C647.928 52.9959 660.444 44.4848 677.217 44.4848C696.743 44.4848 707.76 53.7473 712.515 67.266C718.524 54.2478 731.791 44.4848 749.816 44.4848C779.607 44.4848 789.121 65.0132 789.121 89.0463H789.124ZM413.061 130.498V87.0429C413.061 58.0036 394.285 44.4848 365.745 44.4848C337.206 44.4848 319.181 60.2564 315.425 82.7867L342.713 85.2905C345.217 74.5251 351.975 67.0151 364.493 67.0151C377.011 67.0151 383.77 74.5251 383.77 86.7919V89.2958L353.478 95.3044C328.444 100.311 311.42 109.073 311.42 130.101C311.42 149.127 325.44 160.644 348.471 160.644C364.743 160.644 379.763 153.885 386.023 141.116C386.041 141.193 386.059 141.272 386.077 141.349C388.351 150.982 396.97 157.774 406.867 157.774L427.263 157.769V148.628C423.985 147.828 420.976 146.147 418.528 143.699C415.005 140.176 413.061 135.48 413.061 130.496V130.498ZM383.77 110.075C383.77 127.85 371.754 139.866 355.982 139.866C346.469 139.866 340.711 135.36 340.711 127.85C340.711 116.835 349.973 114.582 362.992 111.828L383.77 107.322V110.075ZM908.91 143.7C905.387 140.177 903.443 135.481 903.443 130.498V87.0429C903.443 58.0036 884.667 44.4848 856.127 44.4848C827.588 44.4848 809.563 60.2564 805.808 82.7867L833.095 85.2905C835.599 74.5251 842.357 67.0151 854.875 67.0151C867.393 67.0151 874.152 74.5251 874.152 86.7919V89.2958L843.86 95.3044C818.826 100.311 801.802 109.073 801.802 130.101C801.802 149.127 815.822 160.644 838.853 160.644C855.125 160.644 870.145 153.885 876.405 141.116C876.423 141.193 876.441 141.272 876.459 141.349C878.733 150.982 887.352 157.774 897.25 157.774L917.645 157.769V148.628C914.367 147.828 911.358 146.147 908.91 143.699V143.7ZM874.152 110.075C874.152 127.85 862.136 139.866 846.364 139.866C836.851 139.866 831.093 135.36 831.093 127.85C831.093 116.835 840.356 114.582 853.374 111.828L874.152 107.322V110.075ZM440.177 0.000488281H470.313V157.85H440.177V0.000488281ZM245.105 0.000488281H182.269V157.85H213.312V103.391H245.105C285.411 103.391 308.443 84.3652 308.443 51.57C308.443 18.7749 285.411 0.000488281 245.105 0.000488281ZM244.104 77.8576H213.312V25.2856H244.104C267.637 25.2856 277.9 34.799 277.9 51.8225C277.9 68.8461 267.637 77.8576 244.104 77.8576V77.8576Z" fill="white"/>
<path d="M935.671 145.943V157.779H935.673H938.481V145.943H943.559V143.604H930.661V145.943H935.671Z" fill="white"/>
<path d="M947.447 146.62L950.907 157.779H950.912H953.316L956.708 146.62H956.798V157.779H959.629V143.604H955.293L952.349 153.91H952.281L949.179 143.604H944.752V157.779H947.358V146.62H947.447Z" fill="white"/>
</svg>
