<svg width="3756" height="674" viewBox="0 0 3756 674" fill="none" xmlns="http://www.w3.org/2000/svg">
<path fill-rule="evenodd" clip-rule="evenodd" d="M85.7783 299.296H91.9062C119.916 259.032 163.68 238.024 219.699 238.024C329.987 238.024 408.763 328.18 408.763 455.974C408.763 583.767 329.987 673.923 217.073 673.923C162.805 673.923 118.164 652.915 85.7783 612.651H79.6514L70.8984 665.17H0V69.0928H85.7783V299.296ZM676.61 238.024C800.027 238.024 887.556 329.055 887.557 455.973C887.557 582.891 800.027 673.922 676.61 673.922C553.194 673.922 465.664 582.891 465.664 455.973C465.664 329.055 553.194 238.025 676.61 238.024ZM1458.28 238.024C1570.32 238.025 1634.21 292.293 1634.21 386.824V558.383C1634.21 577.639 1649.09 589.017 1670.97 589.018H1681.48V665.169H1656.97C1606.2 665.169 1571.19 645.037 1557.19 606.524H1551.06C1524.8 651.164 1481.04 673.922 1419.76 673.922C1331.36 673.922 1271.84 620.528 1271.84 545.253C1271.84 465.601 1334.86 416.585 1439.9 416.585H1550.18V395.577C1550.18 336.933 1515.17 309.799 1456.53 309.799C1399.63 309.799 1371.62 340.434 1363.75 386.824H1284.97C1291.97 299.295 1354.99 238.024 1458.28 238.024ZM2326 238.024C2449.42 238.025 2536.95 329.055 2536.95 455.973C2536.95 582.891 2449.42 673.922 2326 673.922C2202.58 673.922 2115.05 582.891 2115.05 455.973C2115.05 329.055 2202.58 238.024 2326 238.024ZM1097.16 246.778H1211.83V316.802H1097.16V544.379C1097.16 576.765 1111.17 591.644 1152.31 591.645H1211.83V665.17H1119.92C1049.02 665.17 1011.38 632.784 1011.38 558.384V316.802H915.102V246.778H959.742C1014.01 246.778 1020.14 215.267 1020.14 160.124V116.359H1097.16V246.778ZM2747.41 580.266H2753.54L2838.44 246.778H2955.73L3040.64 580.266H3046.76L3129.04 246.778H3208.69V255.531L3099.28 665.17H2982.87L2897.96 331.682H2892.71L2807.81 665.17H2691.39L2581.98 255.531V246.778H2665.13L2747.41 580.266ZM1839 665.169H1753.22V69.0928H1839V665.169ZM2033.49 665.169H1947.71V69.0928H2033.49V665.169ZM1444.27 483.107C1384.75 483.107 1354.12 498.863 1354.12 539.126C1354.12 576.764 1383 602.147 1432.89 602.147C1502.92 602.147 1550.18 557.507 1550.18 492.735V483.107H1444.27ZM204.819 312.425C129.544 312.425 85.7783 365.818 85.7783 455.974C85.7783 546.129 129.544 599.522 204.819 599.522C277.469 599.522 321.233 546.129 321.233 455.974C321.233 365.818 277.469 312.425 204.819 312.425ZM676.61 312.425C601.335 312.425 553.195 368.443 553.194 455.973C553.194 543.502 601.335 599.521 676.61 599.521C751.886 599.521 800.027 543.502 800.027 455.973C800.027 368.443 751.886 312.425 676.61 312.425ZM2326 312.425C2250.72 312.425 2202.58 368.443 2202.58 455.973C2202.58 543.502 2250.72 599.521 2326 599.521C2401.27 599.521 2449.42 543.502 2449.42 455.973C2449.42 368.443 2401.27 312.425 2326 312.425ZM3442.86 65.5303C3507.46 65.5303 3549.35 97.6216 3549.35 147.009C3549.35 188.477 3522.05 206.399 3500.79 212.233V216.4C3524.97 222.652 3557.06 238.907 3557.06 287.252C3557.06 339.556 3513.51 375.606 3443.7 375.606C3374.1 375.606 3328.67 339.556 3327.21 282.875V266.991H3385.14V276.748C3385.82 312.093 3409.56 330.596 3443.07 330.596C3476.83 330.596 3496.84 312.049 3496.84 284.126C3496.84 256.202 3475.58 240.365 3441.82 240.365H3412.02V194.104H3440.36C3470.79 194.103 3489.75 177.641 3489.75 152.01C3489.75 125.753 3471.41 110.541 3441.61 110.541C3412.19 110.541 3391.01 125.584 3390.36 157.924V166.58H3332.84V158.47H3332.84V152.219C3334.92 97.622 3378.47 65.5303 3442.86 65.5303ZM3686.47 69.2227H3755.33V108.206H3686.47V176.699H3647.49V108.206H3578.63V69.2227H3647.49V0H3686.47V69.2227Z" fill="white"/>
</svg>
