<svg width="426" height="495" viewBox="0 0 426 495" fill="none" xmlns="http://www.w3.org/2000/svg">
<g clip-path="url(#clip0_1_665)">
<path d="M212.99 242.12C84.62 242.12 0 280.11 0 368.19C0 456.27 84.62 494.26 212.99 494.26C341.36 494.26 425.98 456.27 425.98 368.19C425.98 280.11 341.93 242.12 212.99 242.12ZM224.51 398.12H200.91C98.44 398.12 70.81 388.91 70.81 368.19C70.81 347.47 98.44 338.26 200.91 338.26H224.51C327.55 338.26 355.18 347.47 355.18 368.19C355.18 388.91 327.55 398.12 224.51 398.12Z" fill="white"/>
<path d="M5.17969 111.1C5.17969 189.39 55.2597 230.84 123.19 230.84C172.7 230.84 206.66 206.66 219.32 165.22C230.26 194 259.04 223.94 311.42 223.94C379.92 223.94 420.79 183.07 420.79 109.96V0H420.3C363.25 5.6 294.3 8.87 220.03 8.87C145.76 8.87 76.8197 5.6 19.7697 0H5.17969V111.1ZM246.38 88.65H355.75V96.13C355.75 124.34 336.18 141.61 301.06 141.61C265.94 141.61 246.37 123.19 246.37 96.13V88.65H246.38ZM70.2297 88.65H183.63V97.28C183.63 127.79 162.91 145.06 127.79 145.06C92.6697 145.06 70.2197 127.79 70.2197 97.28V88.65H70.2297Z" fill="white"/>
</g>
<defs>
<clipPath id="clip0_1_665">
<rect width="425.99" height="494.25" fill="white"/>
</clipPath>
</defs>
</svg>
