<svg width="811" height="711" viewBox="0 0 811 711" fill="none" xmlns="http://www.w3.org/2000/svg">
<path d="M218.842 123.997C341.077 123.997 420.333 184.721 420.333 278.172C420.333 356.639 368.678 390.55 328.459 401.591V409.477C374.199 421.306 434.923 452.062 434.923 543.542C434.923 642.513 352.512 710.728 220.419 710.729C88.7198 710.729 2.76016 642.513 0 535.261V505.205H109.622V523.605C110.88 590.525 155.807 625.558 219.235 625.558C283.113 625.558 320.967 590.464 320.967 537.627C320.967 484.79 280.748 454.822 216.87 454.822H160.483V367.285H214.109C271.678 367.285 307.561 336.135 307.561 287.635C307.56 237.952 272.862 209.168 216.476 209.168C160.82 209.168 120.749 237.608 119.495 298.747V315.206H10.6494V299.858H10.6465V288.029C14.5897 184.721 97.0005 123.997 218.842 123.997ZM679.794 130.984H810.089V204.749H679.794V334.354H606.029V204.749H475.734V130.984H606.029V0H679.794V130.984Z" fill="white"/>
</svg>
